<svg width="40.000000" height="74.000000" viewBox="0 0 40 74" fill="none" xmlns="http://www.w3.org/2000/svg" xmlns:xlink="http://www.w3.org/1999/xlink">
	<desc>
			Created with Pixso.
	</desc>
	<defs/>
	<path id="Vector" d="M7.04401 3.63361C6.72668 3.29871 6.39935 3.05725 6.50183 3.20001C5.89258 2.48035 5.81799 2.52673 5.8349 2.33698C5.46002 1.85852 4.93677 1.4726 5.37885 2.0011L4.21588 0.704651L4.96484 1.4259C4.90771 1.28259 4.60846 0.994507 4.30701 0.700439L4.1944 0.590149L4.16638 0.562744L4.15265 0.549133L4.09155 0.493469L4.03186 0.444824L3.97357 0.39679L3.94489 0.372925C3.93677 0.36554 3.90887 0.348511 3.8916 0.337097C3.8147 0.287903 3.73566 0.24231 3.6546 0.200378C3.57562 0.158569 3.5177 0.146545 3.45245 0.121094C3.38959 0.101318 3.33148 0.0752563 3.27521 0.0654907C3.16333 0.0418091 3.06885 0.0216064 3 0L3.1355 0.010437C3.25482 0.0176392 3.37274 0.0407104 3.48608 0.0788574C3.55811 0.102112 3.62897 0.119141 3.72546 0.172974C3.771 0.196777 3.81757 0.222595 3.86389 0.250427L3.93335 0.293457C3.95605 0.308105 3.98309 0.325684 3.98846 0.331726L4.11902 0.440186L4.12738 0.447205L4.18665 0.500854L4.20178 0.516479L4.23242 0.547729L4.29431 0.610596L4.95349 1.28223L4.91547 1.18689C5.18707 1.52161 5.78674 2.09918 6.00323 2.29297C5.98492 2.24652 6.02832 2.24408 5.79688 2.0061C7.40533 3.61115 6.07922 2.59021 7.38007 3.9563C7.29932 3.87122 7.19482 3.76874 7.04401 3.63361ZM8.61353 4.79266L9.06537 5.46252L10.0306 6.37793C10.0041 6.42578 10.6571 7.14288 10.1623 6.71045C10.0777 6.61377 9.90997 6.42279 9.76233 6.28088C9.78699 6.46643 10.9691 7.57526 10.6127 7.37927C9.89246 6.612 9.76117 6.51526 9.36957 5.99078C8.68256 5.31439 8.16919 4.8349 7.82281 4.54486C7.63318 4.32965 7.65369 4.25195 7.40717 3.98413L7.57806 4.16229L7.72571 4.0694C7.91412 4.31 8.12823 4.50122 8.36298 4.74243L7.40576 3.49725C7.87213 3.7403 8.88428 4.89136 9.36163 5.27795C8.7265 4.84253 9.73724 5.75696 8.61353 4.79266ZM7.40717 3.9845L7.38049 3.95709L7.40717 3.9845ZM14.8772 59.2173C15.1126 58.9847 15.2097 58.9441 15.2576 58.9244L12.6285 61.5653C12.6792 61.4508 13.3967 60.6503 12.8724 61.1399C13.063 60.8779 13.7797 60.217 13.9218 60.1596L13.6834 60.3029C14.3503 59.756 14.6425 59.2181 14.2115 59.5787L14.2632 59.528L16.1767 58.0798C15.575 58.7131 15.621 58.4746 14.8772 59.2173ZM4.69977 4.37311C5.02905 4.72662 5.05969 4.78027 5.0094 4.75305C4.90179 4.63007 4.79852 4.50336 4.69977 4.37311ZM16.6241 57.7415L17.2234 57.2877C16.9932 57.4793 16.7817 57.6384 16.6241 57.7415ZM11.8581 60.2667C11.8531 60.2637 11.8439 60.2659 11.8525 60.2467L12.1263 60.0477C12.1242 60.0496 12.1222 60.0516 12.1203 60.0537C12.024 60.1318 11.9377 60.2017 11.8581 60.2667ZM28.8223 46.0294L29 45.8613C28.9367 45.9237 28.8778 45.9788 28.8223 46.0294ZM4.31775 67L5.55713 65.8965C5.36774 66.0193 5.94135 65.4625 5.65582 65.6705C5.75012 65.5865 6.18091 65.1801 6.08441 65.312L5.84387 65.5496C6.55817 65.0289 6.2229 65.4423 7.31903 64.4902C6.74341 65.1869 6.41211 65.4127 6.03149 65.7056L5.71234 65.9995L4.6037 66.838L4.31775 67ZM20.4157 21.3099L20.4207 21.3305C20.4117 21.3159 20.4121 21.3111 20.4157 21.3099ZM20.4404 21.4134L20.4207 21.3303C20.4678 21.4094 20.6931 21.6664 20.4404 21.4134ZM16.3675 57.8716C16.4017 57.8741 16.4915 57.8286 16.6241 57.7418L16.1767 58.0798L16.3675 57.8716ZM15.2612 58.5521L14.2632 59.528L13.8495 59.8415C14.2453 59.4822 14.699 59.0524 15.2612 58.5521Z" fill="#000" fill-opacity="1.000000" fill-rule="nonzero"/>
	<path id="Vector" d="M26.9889 47.5713C29.0189 45.58 26.3795 47.9503 27.2777 47.001C27.8506 46.4575 28.1024 46.3149 28.4683 45.9849C26.8237 47.5298 28.8641 45.9474 27.2232 47.5233C27.551 47.3931 28.4929 46.4728 29.0132 45.9019C29.5377 45.1911 28.4028 46.3711 28.1696 46.4185C28.832 45.7898 28.7352 45.9205 29.0626 45.6999C30.056 44.667 31.2803 43.7237 31.7554 42.9891C32.5114 42.2779 32.5084 42.3713 32.981 42C33.1664 42.0172 31.9409 43.1417 31.7483 43.4924C31.7961 43.4276 31.8891 43.3008 31.8429 43.3185L31.2287 43.9725C31.7967 43.3367 31.0436 43.955 30.7131 44.2682C30.4764 44.4997 30.0057 44.9594 30.098 44.9235L30.475 44.5917C30.0499 45.0787 29.3925 45.5221 28.9646 46.0574C28.962 46.1052 29.1555 45.934 29.1973 45.9207C28.5871 46.3901 28.0695 46.9135 27.2198 47.662L27.7845 47.2999C27.0328 47.8267 25.6142 49.3021 24.6677 50.3613C24.762 50.2334 24.951 50.0215 24.8112 50.1221C24.1968 50.6858 23.8199 51.1985 24.1462 50.979C23.4862 51.4702 22.019 53.2366 21.1249 53.9114L17 57C17.1567 56.8716 17.3091 56.7383 17.457 56.6C17.6972 56.1851 17.8849 56.0195 17.226 56.5096C17.8376 55.9935 17.6929 56.2791 18.5455 55.4374C18.168 55.7248 17.9827 55.7078 18.7855 54.8875C20.907 52.9509 22.5056 51.8592 24.533 50.0963C24.535 49.9588 26.045 48.4934 26.7536 47.7562C26.4041 47.9587 25.8455 48.4734 25.2727 49.0144L26.6631 47.6103L26.9889 47.5713Z" fill="#000" fill-opacity="1.000000" fill-rule="nonzero"/>
	<path id="Vector" d="M22.2049 52.3105C22.2537 52.251 22.3041 52.1929 22.3562 52.1363C22.332 52.1716 22.2875 52.224 22.2049 52.3105ZM25.4091 49.3674C25.399 49.3721 25.3995 49.3674 25.3941 49.367L25.5847 49.191L25.4091 49.3674ZM16.3918 57.3544C16.2455 57.4582 16.1466 57.5441 16 57.6478L16.2874 57.4022C16.3863 57.3237 16.4384 57.2917 16.3918 57.3544ZM16.0919 57.8937L16.1887 57.8562C16.1367 57.9117 16.1003 57.9508 16.0547 58C16.024 57.999 16.0265 57.9706 16.0919 57.8937ZM34.7827 39.1827L35 39C34.8771 39.118 34.8185 39.1631 34.7827 39.1827Z" fill="#000" fill-opacity="1.000000" fill-rule="nonzero"/>
	<path id="Vector" d="M29.2473 44.3172C28.5229 45.0148 29.0576 44.2992 28.0419 45.2952L28.3336 44.9966C27.5607 45.6679 26.301 46.9445 25.432 47.7903C25.571 47.7354 24.9576 48.3549 25.1232 48.3187C24.5165 48.8846 23.9164 49.4455 23.5451 49.6796C23.2004 50.0609 22.5852 50.5499 22.1469 51.0343C22.3046 50.8029 21.3518 51.5563 22.5333 50.4897C22.4365 50.5746 22.4851 50.5095 22.3892 50.5928C23.0652 49.8224 23.4504 49.6251 24.0807 49.0087C24.4188 48.6018 23.4035 49.5519 23.7431 49.1883C24.5646 48.4519 26.1627 46.7224 26.2551 46.9153C26.8373 46.3641 26.8842 46.2554 27.0284 46.0622C28.087 45.3253 30.3194 42.702 30.508 42.9033C30.17 43.2198 29.6359 43.7521 29.1094 44.1863L29.2473 44.3172ZM17.5177 54.9784C17.5637 54.9321 17.6096 54.8857 17.6555 54.8394L17.5177 54.9784ZM9.03271 64.4267L9.46161 64.2584C11.201 62.6113 11.7824 61.9695 13.2818 60.5079C13.3783 60.3786 13.1859 60.5455 13.0882 60.6301C14.1534 59.6136 15.6981 58.0446 16.5218 57.3521C16.855 57.0231 17.6916 56.1219 17.3217 56.4105C17.4955 56.262 17.6926 56.0905 17.8755 55.9028C17.8789 55.8088 17.4436 56.3008 17.395 56.2741C17.5403 56.1256 17.5891 56.06 17.6376 56.0408C17.3483 56.2466 17.7397 55.6329 16.579 56.7777C16.2368 57.3259 17.3984 55.9979 17.2518 56.3762C16.8669 56.7556 16.8655 56.6664 16.8179 56.6846C16.3288 57.1698 16.3717 57.1866 16.4251 57.1876C16.1997 57.3363 15.6326 57.994 15.3163 58.1943C14.3506 59.124 15.4578 58.2313 14.8319 58.8428L14.351 59.0777L13.3354 60.1196C11.7895 61.5537 13.3416 59.7037 11.555 61.3235C11.8439 61.1636 11.2605 61.9442 10.4857 62.7539C10.9686 62.2885 11.9321 61.4976 12.5139 60.8559C11.7375 61.8036 13.7238 59.6905 13.3801 60.2404C12.8984 60.6127 12.1741 61.3101 11.642 61.8867L11.8366 61.7176C11.2543 62.3146 10.6773 62.6327 9.90436 63.4861C9.49225 63.8829 9.60284 63.8414 9.70294 63.7985C9.33936 64.1196 9.00714 64.3994 9.03271 64.4267ZM9.94708 63.5789L10.4811 63.0309C10.3715 63.1779 10.1675 63.3771 9.94708 63.5789ZM15.7424 11.8684L15.5668 11.7151C15.6085 11.7454 15.6739 11.8045 15.7424 11.8684ZM15.0156 60.867L15.328 60.5526C15.2261 60.6595 15.1219 60.7643 15.0156 60.867ZM22.5125 54.2913L23.0028 53.8654C22.847 54.0156 22.6833 54.1578 22.5125 54.2913ZM19.5217 15.5618L19.5378 15.576L19.6042 15.6539L19.5217 15.5618ZM36.4661 40.0401C36.5392 39.9443 36.6162 39.8513 36.6969 39.7615C36.6959 39.7858 36.6083 39.8889 36.4661 40.0401ZM22.4222 54.3696L22.4481 54.3401L22.5125 54.2915L22.4222 54.3696ZM12.2413 64.2818L12.0268 64.4686C12.0955 64.4033 12.1671 64.3409 12.2413 64.2818ZM12.3447 63.5081C12.2687 63.5767 12.1954 63.6413 12.136 63.6894L12.3447 63.5081ZM1 69L1.44299 68.5992C1.23187 68.8027 1.1001 68.9187 1 69ZM11.2969 64.6917C11.2667 64.7106 11.2363 64.7294 11.2146 64.7403C11.2772 64.6863 11.3121 64.6658 11.2969 64.6917ZM12.6771 9.56604L12.7025 9.59174L12.699 9.61603L12.6771 9.56604ZM11.8175 8.37708L11.4533 8C11.5792 8.12146 11.7006 8.24725 11.8175 8.37708ZM36.6532 32.456C36.5231 32.3625 36.2376 32.1232 36.3412 32.264C36.1506 32.0275 36.226 31.9816 36.6532 32.456ZM13.9967 12.3449C13.9451 12.2625 13.8734 12.1674 13.8009 12.072C13.9409 12.2441 14.0646 12.3939 13.9967 12.3449ZM13.8011 12.072L13.5974 11.8187C13.6672 11.9017 13.7351 11.9861 13.8011 12.072ZM37.9769 35.9382C37.9956 35.9606 38.001 35.9965 37.9998 36.0458C37.9722 36.0294 37.9781 35.9918 37.9769 35.9382Z" fill="#000" fill-opacity="1.000000" fill-rule="nonzero"/>
	<path id="Vector" d="M11.4902 8.06738C11.4525 7.97321 9.91608 6.31439 11.2744 7.64343C11.3105 7.5036 10.4531 6.74072 10.1163 6.3609C10.3973 6.60046 10.0435 6.17511 10.1537 6.2226C10.3209 6.41095 10.5068 6.64734 10.8069 6.93481C10.9822 7.0296 10.5637 6.55676 10.2009 6.22382C10.676 6.60602 9.7265 5.61011 10.369 6.18127C11.6351 7.50934 12.52 8.45795 13.3038 9.49854C12.5855 8.73804 11.7845 7.88483 11.1426 7.31384L11.3212 7.64484C12.0738 8.26324 12.4468 8.73627 13.1283 9.40338L11.5734 7.9295C10.8006 7.28357 11.2607 7.77264 11.806 8.34558C11.6675 8.20886 11.5385 8.08899 11.4902 8.06738ZM11.8427 9.75549L11.8149 9.73236C11.7955 9.70746 11.7697 9.67816 11.759 9.66077L11.8427 9.75549ZM3.00037 70.994L3.15948 70.8928C3.03796 70.9885 2.99542 71.0131 3.00037 70.994ZM13.1148 10.29L13.1136 10.2891C13.1231 10.2999 13.1255 10.3025 13.1148 10.29ZM3.93713 69.9936C3.9306 69.9964 3.92389 69.9985 3.91339 70.0045C3.92725 69.995 3.92963 69.9974 3.93713 69.9936ZM6.44366 70.7693C6.44135 70.779 6.44269 70.7839 6.43219 70.8016C6.35883 70.8665 6.38885 70.8295 6.44366 70.7693ZM3.94684 69.9984C3.94446 69.996 3.94427 69.9916 3.93713 69.9938C3.94208 69.9936 3.9502 69.9907 3.94684 69.9984ZM19.9658 54.5417C19.9658 54.5417 19.9292 54.6046 19.8635 54.6954C19.8261 54.7186 19.8481 54.6802 19.9658 54.5417ZM16.9715 57.7606L16.9232 57.8257L16.9715 57.7606ZM37.6377 33.2058C37.761 33.3268 37.8818 33.4504 38 33.5764C37.8755 33.4565 37.7548 33.3329 37.6377 33.2058ZM3.91339 70.0045C3.8728 70.0288 3.81842 70.0666 3.73193 70.1325C3.82672 70.0595 3.87958 70.0237 3.91339 70.0045ZM25.0875 50.1901L24.9836 50.2772L25.0367 50.2167L25.0875 50.1901ZM26.6528 48.5131C26.5889 48.5598 26.5544 48.576 26.5156 48.5995C27.1259 48.0526 28.1547 46.9552 28.3617 46.9105C28.1634 47.1047 27.1928 48.1701 27.4136 48.0441C26.99 48.4272 26.4506 49.0799 26.22 49.2839C26.838 48.5776 26.2234 49.144 25.7488 49.5638C25.3658 49.9939 25.8906 49.5524 25.5554 49.9175L24.6055 50.8491L25.4142 50.0192L25.0875 50.1901L25.1783 50.114C26.6011 48.764 25.1821 49.8823 26.6528 48.5131ZM26.5154 48.5995C26.4238 48.6813 26.3417 48.7517 26.2742 48.8024C26.4064 48.673 26.4652 48.6301 26.5154 48.5995ZM32.0518 42.8078L32.3096 42.5748L32.0518 42.8078ZM13.058 59.8102C13.0566 59.8572 12.296 60.7125 12.2507 60.6381L12.9557 59.8954L13.058 59.8102ZM30.1497 27.2455C30.2413 27.3336 30.3323 27.4232 30.4218 27.5143L30.4651 27.5763C30.401 27.53 30.234 27.3409 30.1497 27.2455ZM27.6912 47.8227C27.5341 47.9615 27.4587 48.0179 27.4135 48.0441C27.5142 47.9529 27.6105 47.8721 27.6912 47.8227ZM29.9566 27.3371C29.8248 27.2396 29.6299 27.0967 29.5832 27.0956C29.3481 26.8617 29.2149 26.6656 28.9874 26.4158C29.248 26.6937 29.5656 26.9994 29.9566 27.3371ZM28.9689 26.3952L28.9872 26.4158L28.9689 26.3952Z" fill="#000" fill-opacity="1.000000" fill-rule="nonzero"/>
	<path id="Vector" d="M13.278 59.7211L13.5084 59.5178L13.3788 59.614L13.924 59.0364C14.0057 58.9642 14.0863 58.8907 14.1656 58.8157C14.1271 58.8498 14.0923 58.8713 14.0682 58.8823L14.2416 58.6958C14.7534 58.3127 15.916 57.2495 16.2752 56.9664C16.7283 56.57 17.2653 56.067 17.5876 55.7375C17.2856 56.0399 16.8704 56.427 16.9565 56.2726C17.536 55.6254 17.7311 55.2247 18.8835 54.2588L18.2589 54.8761L19.7952 53.6187C20.2302 53.0756 19.0284 54.2462 18.7852 54.3912C19.9418 53.3751 20.6707 52.299 21.2927 51.9133C21.2946 51.774 21.2983 51.5405 22.0204 50.8375C21.5837 51.428 22.5 50.4622 22.1614 50.9662C22.4482 50.7602 22.9344 50.1494 23.0271 50.16L22.9316 50.1978C24.0429 48.8766 24.6148 48.6504 25.1935 48.1878C26.6841 46.7642 27.3108 46.053 28.5148 44.8807C28.5153 44.7881 28.7123 44.3391 29.1957 43.8689C29.4808 43.7103 30.5892 42.668 30.78 42.6384C29.9583 43.5209 30.0126 43.2661 29.4819 43.7557C29.1399 44.2628 29.5266 43.8768 28.9948 44.505C29.4319 44.006 31.1619 42.4409 31.5973 41.8517L31.4047 42.021C32.178 41.1578 32.1359 40.8046 33.6249 39.5656L34.3272 38.9661C34.2877 38.9894 34.2747 38.9836 34.2507 38.9932C34.7809 38.4585 34.9503 38.241 35.1436 38.0195C35.1944 37.9609 35.2465 37.9034 35.2997 37.8469C35.3717 37.771 35.4453 37.6966 35.5204 37.6236C35.6934 37.4547 35.9241 37.2409 36.2864 36.9174C36.1746 37.0172 36.2235 36.9513 36.1118 37.0513C36.2556 36.89 36.4048 36.7336 36.5593 36.5823C36.2745 36.2971 36.0189 36.0126 35.7686 35.7303L35.4008 35.3154L35.0926 34.9737C34.7151 34.7321 35.1002 35.1124 35.2437 35.3512C34.0344 34.2021 32.8726 32.8203 32.2196 32.0096L31.4175 31.2915C31.8421 31.7682 32.3243 32.3871 32.1458 32.2903C31.7398 31.8607 31.8525 31.9097 31.2465 31.3335C31.3049 31.4766 31.5139 31.7634 31.7386 32.0939C30.4398 30.9473 31.6166 31.6706 30.6263 30.9489C30.24 30.567 30.0787 30.2825 30.0883 30.1893L29.3221 29.5631C29.3105 29.4207 28.4522 28.5609 27.8972 27.9902C27.8566 27.8936 28.4225 28.3718 28.6111 28.6097C28.6208 28.5165 28.0441 27.8955 27.6566 27.5126C27.3766 27.5095 25.1456 24.9801 25.4396 25.5956C23.7479 23.827 21.3224 21.3915 20.2344 20.1962C19.8182 19.8589 19.0458 19.0964 19.4427 19.6191C18.0443 18.232 17.4654 17.3752 16.0402 16.0355C15.908 15.9387 16.6661 16.6594 16.5708 16.6562C15.7194 15.701 14.8621 15.0765 13.4919 13.6429C13.7263 13.8804 13.7667 13.9772 13.7851 14.0242C13.8326 14.0258 13.2563 13.4047 12.9146 13.0212C12.6981 12.83 13.1703 13.3081 13.038 13.2117C10.2527 10.5801 8.37006 8.33752 5.6604 5.65997C6.4342 6.4245 6.63446 6.80524 6.60498 6.85083L5.84705 6.10162C5.60144 5.76672 5.03333 5.20319 4.59283 4.69775C4.5174 4.65692 4.26776 4.44598 4.48169 4.70154C3.68823 4.0061 3.14685 3.38538 2.56873 2.71722L2.12384 2.2052L2.06702 2.13989L2.03314 2.08752C2.00983 2.05341 1.98297 2.02173 1.9715 1.98071C1.93457 1.90723 1.91571 1.82452 1.90869 1.74146C1.90271 1.65778 1.91089 1.57117 1.93719 1.48889C1.95306 1.45044 1.96246 1.39923 1.98218 1.37927C1.98999 1.36548 1.99664 1.35101 2.00201 1.33606L2.00623 1.32391L2.02325 1.30377L2.05737 1.26337L2.12622 1.18146L2.13483 1.17114L2.13605 1.16992C2.08832 1.22253 2.12341 1.18408 2.11298 1.19562L2.11481 1.19446L2.11841 1.19183L2.13245 1.18146L2.16034 1.16016L2.21429 1.11432C2.23608 1.10437 2.25739 1.09363 2.27832 1.08209C2.32367 1.05103 2.35638 1.0506 2.38953 1.03308C2.39734 1.02252 2.44086 1.01831 2.4812 1.01416L2.60083 1L2.46558 1.00159C2.44708 1.00256 2.41339 1.00043 2.40137 1.00439C2.37183 1.01251 2.34143 1.01746 2.31085 1.0191L2.24445 1.04541C2.19348 1.05798 2.14832 1.08966 2.09772 1.1225L2.07806 1.13446L2.06781 1.14044L2.06299 1.14343L2.06158 1.14423L2.06104 1.14465C2.06921 1.13544 2.04132 1.16577 2.07947 1.1239L2.07666 1.12689L2.0307 1.17389C1.99957 1.20605 1.96838 1.23822 1.93719 1.27032C1.88184 1.34821 1.80316 1.49146 1.78528 1.64368C1.77319 1.79749 1.80176 1.95178 1.86816 2.09131C1.91052 2.15662 1.9422 2.21417 1.99799 2.27991L2.15192 2.46045L2.46936 2.83295L1.85651 2.35223L2.74707 3.4035C2.117 2.86798 1.71783 2.28253 1.59503 2.2074C1.60828 2.25623 1.64661 2.31 1.69055 2.36798L1.75818 2.45685L1.82404 2.52997C1.90912 2.62537 1.97772 2.70905 1.9635 2.73236C1.81616 2.59625 1.71082 2.50964 1.61151 2.37695C1.56055 2.32019 1.53143 2.25842 1.50494 2.20105C1.47803 2.14386 1.4516 2.09229 1.44275 2.03607L1.40881 1.87555L1.40479 1.7066C1.39941 1.64783 1.41486 1.58606 1.42407 1.51794C1.42993 1.44922 1.45337 1.37769 1.48169 1.29803C1.38373 1.49841 1.34705 1.76935 1.42688 2.04407C1.46625 2.17975 1.52924 2.32019 1.62756 2.44049C1.65002 2.47015 1.6759 2.50665 1.69757 2.53113L1.76202 2.60345L1.89404 2.75006C2.27423 3.16815 2.66016 3.58099 3.0517 3.98859L5.25067 6.26477C5.4234 6.45819 5.12744 6.07471 5.10938 6.02808C5.58136 6.50598 5.91144 6.74628 6.48694 7.36621C6.7998 7.79547 6.15869 7.12756 5.85669 6.84027C5.8454 6.93231 5.99731 7.07697 6.31903 7.41162C6.45966 7.41382 8.15149 9.18201 8.6604 9.51947C10.3984 11.2881 8.19965 9.41809 9.94769 11.0936L10.5401 11.5244C11.476 12.5752 12.7115 13.9097 13.8569 15.0133L13.6218 14.7747C13.4971 14.5838 13.7799 14.8229 13.9131 14.9207C14.7999 15.7337 15.4699 16.5899 16.0661 17.0242C16.9545 18.0734 18.5137 19.7452 19.5825 20.8925C19.987 21.0865 18.2203 19.3641 17.8228 18.84L18.8347 19.8454C18.2103 19.2228 18.0027 18.938 17.6871 18.5065C18.5939 19.3681 18.7942 19.7484 19.6087 20.6097C19.5716 20.5165 19.7014 20.6108 20.0901 20.9951L20.1309 21.1733C20.1435 21.1747 20.1919 21.2122 20.3161 21.3267L21.7701 22.8545C21.423 22.5686 21.3474 22.6135 20.9598 22.2303C21.1384 22.3271 20.8185 21.9937 20.4305 21.6108C20.7241 21.9923 20.0149 21.2744 19.9856 21.3196C20.7632 22.0877 21.7067 23.043 22.1964 23.5667L22.4255 23.6672C23.181 24.385 23.9259 25.1952 24.4457 25.6745L24.3217 25.4839C25.2281 26.3448 26.0601 27.2527 26.9099 27.9724C27.6279 28.8302 28.5628 29.8793 29.1331 30.5969C29.3964 31.0222 31.5578 32.7983 32.3334 33.799C32.4024 33.8497 31.783 33.1292 31.5098 32.7961C32.1158 33.3724 32.4849 33.9424 32.7576 34.041C31.397 32.7483 32.8984 34.0432 32.3233 33.4232C32.945 34.0436 33.5865 34.7115 33.8613 35.046C32.8533 34.0438 34.0997 35.5208 33.1161 34.4693C33.4581 34.8777 33.8751 35.3411 34.323 35.8122L34.7574 36.266C34.8649 36.3742 34.9753 36.4794 35.0887 36.5814L35.0308 36.6461C35.1058 36.6461 35.0836 36.7025 34.9214 36.8943C34.9176 36.8983 34.7007 37.0057 34.7045 37.0019C34.6043 37.111 34.7235 37.0246 34.8291 36.9543C34.9326 36.8857 35.0223 36.8334 34.7889 37.084C34.704 37.1453 34.6639 37.1696 34.4932 37.3286C34.3412 37.4691 34.1914 37.6118 34.0439 37.7569L33.1005 38.7007C32.48 39.3233 31.9138 39.8725 31.6278 39.9857C30.9991 40.7447 33.022 38.738 32.0552 39.8627C32.7281 39.3183 33.4995 38.4113 33.7866 38.2966C33.1635 38.8665 33.6407 38.5854 33.2554 38.9697L32.5349 39.5799L32.6793 39.4301C31.4779 40.4618 29.7417 42.2626 28.2973 43.6693C26.999 44.7864 26.0398 45.4908 24.5958 46.9433C25.0756 46.5674 23.4373 48.1902 24.4453 47.374C23.8174 48.086 23.1003 48.6928 23.0496 48.6687C23.6287 48.0682 23.2458 48.4501 23.7258 47.937C23.344 48.2258 22.5702 48.998 22.2814 49.3438C22.4257 49.1938 22.3782 49.2582 22.4251 49.2401C21.7491 49.9717 22.0414 49.5315 21.5117 50.0195C21.4133 50.2435 20.4014 51.1556 19.9679 51.6511L19.2012 52.2324C19.6322 51.9226 18.5749 52.8973 18.5231 53.0577C17.9963 53.4974 17.5157 53.8277 16.7935 54.5767C17.1296 54.3048 16.1647 55.2901 16.2124 55.3628C15.0058 56.6756 13.9535 57.2778 12.8423 58.553C12.8937 58.53 13.1753 58.3295 12.8403 58.692C12.5478 58.949 12.0722 59.4353 11.7706 59.7217L11.7816 59.7142L11.7646 59.7277C11.6169 59.8677 11.5184 59.9506 11.5003 59.9395C10.936 60.382 10.6154 60.5803 9.57147 61.517C9.57526 61.3758 10.441 60.5696 10.8264 60.2311L11.2087 59.9873C11.4044 59.5857 12.1232 59.1155 12.3164 58.854C11.5978 59.3241 9.91119 61.0582 8.80609 62.0059C9.33746 61.2869 10.6884 59.9158 11.892 58.7442L11.4086 59.3064L12.0334 58.6886L11.5035 59.361C12.0812 58.7615 12.6108 58.2735 13.1406 57.7392C12.514 58.3583 12.366 58.695 12.7045 58.3289C13.3332 57.5698 13.4749 57.6523 14.0031 57.1196C13.7131 57.42 13.3288 57.8041 13.6168 57.5967C14.5834 56.472 14.9213 56.2441 15.7872 55.2082C15.7842 55.4403 16.9916 54.0353 17.2292 53.9872L16.796 54.4366L17.8053 53.5729C18.5785 52.6187 16.9417 54.2401 18.1946 52.8639C19.4006 51.6435 19.4904 51.7953 20.4565 50.8538C20.0729 51.0989 19.2549 51.7945 18.4846 52.563L18.9193 52.066C18.6321 52.2725 17.5719 53.3414 17.043 53.8747C18.0024 53.0778 16.6547 54.308 16.3154 54.767C16.1755 54.7743 16.7516 54.2231 16.0304 54.8335C16.6575 54.2136 16.7544 54.1281 17.5256 53.3131C15.835 55.0515 15.7487 54.6212 14.3022 56.1674C15.0247 55.5098 14.1564 56.5019 14.1052 56.6165C13.7715 56.932 13.095 57.5724 12.8065 57.8256L12.957 57.4864C12.0407 58.3141 11.9391 58.8169 10.8306 59.7217C10.6422 59.795 11.6995 58.8207 11.5067 58.9898C10.0649 60.3021 9.72137 60.9491 8.56628 62.2386C8.46838 62.2788 8.422 62.2045 7.94244 62.5804C8.13446 62.5035 7.84631 62.848 8.37128 62.4103C7.98517 62.8416 7.45721 63.282 7.07294 63.6191C7.89325 62.738 6.64105 63.884 6.44946 64.0062C6.01678 64.455 6.64148 63.9291 6.93024 63.6755C6.59052 64.0434 6.25299 64.546 5.96545 64.661C6.01178 64.7349 7.11688 63.8334 7.79114 63.1954L7.35706 63.6456C7.6936 63.3729 7.74213 63.3074 8.17322 62.8607C7.7887 63.3352 7.88306 63.3444 8.02649 63.2874C8.07428 63.2227 7.98077 63.3044 8.02612 63.2422C8.36542 62.8746 8.65417 62.621 8.604 62.7344C9.00415 62.4984 8.16278 63.2733 7.96289 63.552L7.40546 64.0733L5.30182 65.6443C4.48407 66.3957 4.1925 66.8093 3.64026 67.4354L3.40833 67.5275C2.73047 68.2147 2.10596 68.8783 2.6333 68.5301C2.6347 68.4824 2.73065 68.3982 2.8761 68.2472C2.9054 68.2368 2.94635 68.2097 2.99512 68.1721C3.01361 68.1619 3.02539 68.1581 3.04126 68.1506L1.76746 69.3361C3.11432 68.1998 1.95605 69.3998 2.28815 69.3156C1.99231 69.5911 1.69647 69.8666 1.40063 70.1421L1.29083 70.2443L1.14777 70.4047L1.1084 70.4495C1.10443 70.4529 1.09216 70.4702 1.08057 70.4873L1.0484 70.5355C1.00751 70.5983 0.973999 70.6556 0.947876 70.7031C0.895142 70.7989 0.871216 70.8545 0.874023 70.8515C0.933105 70.7076 1.00586 70.5696 1.09137 70.4395C1.09796 70.4301 1.10455 70.4208 1.11127 70.4114L1.14594 70.362C1.16272 70.3371 1.17938 70.3121 1.19592 70.2871L1.20032 70.2799L1.20093 70.2792L1.25873 70.2156L1.25995 70.2138L1.26233 70.2106L1.271 70.1993L1.28339 70.1809C1.29608 70.1608 1.29285 70.1566 1.27802 70.1646C1.27057 70.1686 1.26031 70.1755 1.2475 70.1849L1.23749 70.1925L1.23663 70.1931L1.17664 70.2588L1.17548 70.26L1.17285 70.2624L1.16785 70.2672L1.14575 70.2889C1.11365 70.3216 1.07715 70.3582 1.03217 70.4084C0.948303 70.5234 0.862183 70.6642 0.794983 70.8063C0.75 70.9266 0.707275 71.0513 0.679382 71.168C0.659546 71.2866 0.646912 71.3977 0.638855 71.4885C0.655518 71.5458 0.667908 71.6042 0.675964 71.6633C0.692261 71.7519 0.702271 71.8693 0.748413 72.0021C0.768677 72.0688 0.791992 72.1406 0.818481 72.2155C0.851746 72.2876 0.890503 72.3629 0.932617 72.4406C0.974365 72.5218 1.02545 72.5979 1.08478 72.6675C1.11444 72.7042 1.14496 72.741 1.17566 72.7787L1.22339 72.834L1.22943 72.8408L1.30005 72.9042L1.3075 72.9105L1.32233 72.9233L1.44434 73.0278C1.5282 73.0892 1.65405 73.1655 1.76562 73.2223L1.85272 73.265L1.92633 73.2908L2.07568 73.3384C2.17499 73.3721 2.27655 73.3876 2.37805 73.3976C2.58014 73.4279 2.77881 73.4044 2.95941 73.3765C3.138 73.3315 3.30298 73.2844 3.43237 73.2075L3.34509 73.2286C3.4649 73.1625 3.60132 73.0972 3.71893 72.991C3.77911 72.9416 3.84418 72.8856 3.90051 72.833L3.99567 72.7344L4.41626 72.3115C4.70239 72.0294 4.9931 71.7519 5.28839 71.4792C5.28839 71.5254 6.05554 70.9893 6.43799 70.7455C5.5896 71.6392 6.13641 71.1519 6.10931 71.2642C6.19598 71.1706 6.35773 71.0082 6.38562 70.9983C6.53052 70.8937 6.24213 71.1931 6.24036 71.2404C5.75952 71.6855 5.27771 72.1432 4.85651 72.5247C4.66779 72.697 4.47498 72.8649 4.2782 73.0283L4.12567 73.151C4.03601 73.2219 3.94708 73.2853 3.86218 73.3402C3.68866 73.4448 3.51624 73.5082 3.3764 73.551C3.57184 73.4458 3.75665 73.3526 3.90674 73.2265C3.9812 73.1691 4.06769 73.099 4.12567 73.0494L4.22821 72.9643C4.36627 72.8517 4.51038 72.7365 4.65546 72.5635C4.51544 72.669 4.37976 72.7801 4.24872 72.8964C4.21381 72.9277 4.17828 72.9591 4.14233 72.9916L4.07776 73.0498L3.95471 73.1518C3.79175 73.2924 3.59351 73.3978 3.383 73.4918C2.92456 73.671 2.41882 73.6924 1.94666 73.5528C1.88422 73.5342 1.82178 73.5143 1.75958 73.4924C1.60327 73.4232 1.45355 73.3401 1.31232 73.2442C1.29022 73.2295 1.28381 73.2241 1.27917 73.2203L1.26056 73.2054L1.22302 73.1755L1.14734 73.1147L1.13794 73.1069L1.13312 73.103L1.04419 73.0231L1.03979 73.0183L1.0047 72.9794L0.935242 72.9C0.843567 72.7916 0.754028 72.6802 0.688232 72.5482L0.620789 72.4476C0.57019 72.3738 0.527344 72.295 0.492981 72.2125C0.453247 72.123 0.417114 72.0304 0.391846 71.9603C0.368347 71.89 0.359741 71.8412 0.359741 71.8412L0.349915 71.7374C0.346497 71.671 0.334045 71.5764 0.341492 71.4636C0.350586 71.335 0.366882 71.207 0.390259 71.0802C0.428955 70.9403 0.466919 70.8051 0.533508 70.6515C0.596069 70.5224 0.668274 70.3982 0.749634 70.2799L0.789368 70.2238C0.804993 70.2018 0.802795 70.2072 0.810425 70.1977L0.927429 70.067L1.01453 69.9716L1.02136 69.9654L1.03461 69.9531L1.05908 69.9307C1.07239 69.9186 1.08563 69.9064 1.09882 69.894C1.12085 69.8738 1.13373 69.8624 1.13373 69.8624C1.08917 69.8989 1.05261 69.9265 1.02075 69.9492L1.00891 69.9574L1.0033 69.9614L1.00287 69.9616L0.921021 70.0515L0.920166 70.0521L0.919006 70.0532L0.916199 70.0554L0.896118 70.0715L0.859192 70.0999L0.791382 70.1475L0.756653 70.1722C0.741211 70.1859 0.705078 70.2321 0.678406 70.2666C0.619995 70.3429 0.554993 70.4369 0.485962 70.5612L0.434814 70.6594L0.399048 70.7483C0.375 70.811 0.350281 70.8813 0.325989 70.9601C0.243958 71.2694 0.156067 71.7527 0.400452 72.3844C0.359558 72.3119 0.262634 72.1155 0.224487 71.8258C0.207214 71.6802 0.188782 71.5137 0.211853 71.332C0.220215 71.2377 0.232971 71.1438 0.250183 71.0507C0.274475 70.9554 0.303345 70.8574 0.336853 70.7589C0.376404 70.5935 0.590088 70.2339 0.699646 70.1022L0.794556 69.9937L0.908936 69.8668L0.935425 69.8419L0.988403 69.7917C1.12531 69.6627 1.25836 69.5298 1.38757 69.3932L1.72028 69.2166C1.5788 69.2714 2.63892 68.2024 1.82098 68.8976C1.50671 69.1796 1.19232 69.4614 0.877869 69.7433L0.850586 69.7676L0.837341 69.7795L0.830688 69.7853L0.829102 69.7869L0.729187 69.8965L0.726135 69.8997L0.637268 69.9971L0.5979 70.0403C0.596924 70.0391 0.568848 70.0784 0.555786 70.0964L0.50885 70.164C0.449036 70.2524 0.401062 70.3335 0.36377 70.4009C0.288879 70.5377 0.256775 70.6162 0.260193 70.6107C0.255981 70.6168 0.287476 70.5266 0.351074 70.3915C0.387329 70.3149 0.426758 70.2397 0.469299 70.1664L0.578491 69.9879L0.664368 69.8433L0.769287 69.7275L0.770691 69.7257L0.773132 69.7224L0.777954 69.7158L0.786743 69.7039C0.792175 69.6965 0.79718 69.6899 0.801025 69.6843C0.808838 69.6735 0.81366 69.6675 0.81366 69.6675L0.767883 69.7114L0.762451 69.7168L0.6521 69.8377L0.640686 69.8508L0.615356 69.8807C0.597107 69.902 0.576843 69.9263 0.554382 69.9525L0.537354 69.9728L0.528687 69.9831C0.526489 69.9853 0.523254 69.9891 0.512024 70.0048C0.392639 70.17 0.289612 70.3463 0.204407 70.5311C0.157471 70.6447 0.12738 70.7449 0.0936279 70.8588L0.0490723 71.0276C0.0394897 71.0848 0.0316162 71.1425 0.0245972 71.2007C-0.0496216 71.6671 0.0563354 72.1382 0.179749 72.4679C0.250793 72.6296 0.322632 72.7607 0.373962 72.8502C0.423767 72.9414 0.462463 72.9857 0.462463 72.9857L0.441589 72.9537C0.427979 72.9338 0.410706 72.9037 0.392212 72.8661C0.354309 72.7916 0.306152 72.6904 0.263611 72.5882C0.223267 72.4957 0.191772 72.3997 0.169495 72.3013L0.138794 72.1681C0.162903 72.2577 0.189575 72.3444 0.218079 72.4274C0.248352 72.5095 0.288513 72.586 0.325623 72.6611C0.36377 72.7358 0.403259 72.8071 0.44342 72.8751C0.485168 72.9416 0.533325 73.001 0.578857 73.0599C0.625 73.1183 0.67157 73.1737 0.717896 73.2263L0.752625 73.2651L0.769897 73.2841L0.774292 73.2886L0.77655 73.291L0.891907 73.3948L0.895935 73.3982L0.926636 73.4237C0.967346 73.4568 1.00568 73.4879 1.04138 73.5173C1.24469 73.6671 1.55353 73.8311 1.71063 73.8735C1.88263 73.9255 2.0329 73.9694 2.16614 73.9815C2.43427 74.0106 2.62225 74.0032 2.76898 73.9745C2.91565 73.9482 3.02179 73.9281 3.12335 73.8859C3.22546 73.8472 3.32666 73.8062 3.46027 73.7492C3.58771 73.6811 3.75848 73.6006 3.96497 73.4486C4.01971 73.4061 4.07361 73.3625 4.12646 73.3177L4.21381 73.242L4.25873 73.2016L4.27979 73.1808L4.45697 73.0093C4.63165 72.8452 4.80872 72.6835 4.98816 72.5245C5.61023 72.0926 6.18835 71.5386 7.20056 70.4885C6.43079 71.2111 7.05768 70.4993 6.72156 70.7252C7.44635 69.9281 7.78131 69.7488 8.21411 69.3917C8.35944 69.1494 8.45734 68.9721 7.78229 69.6564C7.59344 69.6385 8.69775 68.7831 8.65338 68.6155C10.9169 66.3748 10.8088 67.1591 13.3179 64.4038L13.1759 64.4596C14.9072 62.847 15.8239 61.835 17.4114 60.3262L18.5255 59.0032C18.2352 59.258 17.4178 59.9072 17.7084 59.514C17.224 60.2146 16.5537 60.803 15.972 61.4983C15.8779 61.535 16.1183 61.2551 16.2142 61.1246C15.8281 61.5096 15.6837 61.7515 15.1534 62.24C15.1555 62.1929 15.6852 61.6122 15.2518 62.0161L14.6247 62.7737C13.6621 63.6649 14.0037 63.0667 12.9425 64.1823C13.2062 64.0408 13.7089 63.7161 14.1465 63.3107C13.6605 63.8195 14.8486 62.6864 14.4294 63.1747C13.6204 63.7994 13.3444 64.2147 12.3318 65.1082C12.4567 65.0092 12.5038 64.9971 12.7448 64.769L11.3953 66.1841C11.6859 65.7911 10.1913 67.2646 10.2423 67.0589C11.6885 65.5588 11.3012 66.0371 12.9419 64.3203C12.4473 64.7763 11.7525 65.308 11.3911 65.5214C11.3795 65.5389 11.3576 65.5656 11.3073 65.6184C10.9724 65.7971 11.2141 65.516 11.0739 65.3867C11.9393 64.7186 12.3742 64.1295 13.3368 63.2838C13.5814 63.188 12.905 63.9002 12.4348 64.3287L13.2832 63.584L13.0918 63.7064L15.0955 61.668C14.7072 62.0457 14.5336 62.1326 14.3008 62.2997C14.5597 62.037 14.7993 61.7601 15.0535 61.4652C15.0662 61.5929 15.1526 61.6061 15.4067 61.3515C16.695 60.0391 17.3572 59.2556 17.7582 58.6974L17.9151 58.5516C17.7688 58.8406 18.9722 57.7607 19.4506 57.4326C19.3557 57.3784 20.0783 56.7204 20.4162 56.3088C20.7026 56.1955 20.5541 56.5784 20.1662 57.1027C19.205 57.9009 19.5925 57.5149 19.0639 57.8183L17.574 59.15L17.9588 58.904C17.2826 59.6355 16.5134 60.2195 16.6543 60.2564C17.0871 59.9448 17.6675 59.297 18.0975 58.9885L17.6628 59.4849C18.5751 58.7532 18.0012 58.9814 19.0607 58.051C18.7691 58.4908 19.1566 57.9665 19.635 57.5923C19.3447 57.9858 17.8555 59.3162 18.2845 59.1462C18.8598 58.6866 19.8802 57.2621 20.6954 56.7075L20.6472 56.7264C21.6439 55.7036 22.0735 55.4232 22.4994 55.0927C22.8887 54.6231 23.5428 54.0905 24.015 53.6309L23.9661 53.605L24.6411 52.9659C24.259 53.2099 23.8701 53.7349 23.2938 54.2875L23.2946 54.1484C22.7243 54.8787 22.163 55.1863 21.5967 55.6295C22.3942 54.9578 23.6611 53.5466 23.9701 53.5097L24.3558 52.9874L24.5994 52.796C24.8864 52.4063 24.4567 52.6685 23.7822 53.3068C23.6855 53.4378 23.6368 53.5032 23.6861 53.4832C23.3492 53.756 23.0143 53.9811 22.2906 54.7315L22.7221 54.3761C21.806 55.2955 20.9416 56.1003 20.5579 56.3455C21.8586 54.9965 23.1604 53.6922 24.4122 52.4557C24.9377 52.2462 25.4631 51.9001 25.797 51.8589C26.6619 51.0541 27.8195 49.9446 28.4935 49.1691L28.3978 49.2068C28.7031 48.8777 29.0251 48.5644 29.3627 48.2681C29.6994 47.8575 29.0286 48.4464 29.2692 48.1661L30.5183 47.0234C30.3781 47.0312 29.3681 48.0334 28.8837 48.5049C28.9798 48.4205 29.1734 48.2501 29.1237 48.3173C28.5931 48.898 27.4412 49.8177 27.2932 50.155C27.0046 50.4082 27.9158 49.6771 27.0008 50.5955C26.4207 51.2429 26.1343 51.3566 26.0412 51.3921C25.9936 51.3648 26.9568 50.3813 26.5723 50.673C27.0566 50.2016 27.296 50.06 27.8731 49.4153C27.3933 49.8827 26.6717 50.4481 26.4768 50.757C25.467 51.6206 25.4259 51.312 25.8594 50.8624C25.809 51.022 27.6415 49.2281 26.4813 50.5228C27.1057 50.0436 28.1175 49.0404 28.8859 48.3653L28.8387 48.384L29.7554 47.5091C29.6091 47.6151 29.3205 47.8685 29.2744 47.8401L30.6201 46.7039C29.8517 47.3326 31.0078 46.2261 31.2969 45.8798C31.4875 45.8042 32.0159 45.3632 31.582 45.859C31.0991 46.421 31.2455 46.1312 30.7642 46.6005L31.5301 46.0198L31.5792 45.9534L32.0601 45.6235C32.9749 44.7048 31.486 45.8516 32.7373 44.7532L32.6848 45.0056C34.0349 43.6358 35.6741 41.783 36.6853 40.8718C36.3618 41.0789 36.1523 41.1036 36.4633 40.6861C36.0648 41.1162 35.2256 41.9423 34.6196 42.525C34.5226 42.6565 35.4841 41.9037 36.1104 41.2387C35.9617 41.7144 34.3806 42.7577 34.4719 42.9995C32.8794 44.6968 33.079 44.0621 31.7759 45.551C31.6818 45.496 31.3411 45.9102 31.2014 45.918C31.4941 45.3849 33.0789 44.0623 33.9456 43.1171C33.851 43.2 33.6608 43.3667 33.6116 43.3874C34.2397 42.7202 34.5251 42.4702 35.0069 42.0469L34.9585 42.1124C35.825 41.3973 35.3936 41.5696 35.8278 41.0734C36.0198 40.9047 36.6476 40.2386 36.598 40.3969L37.3726 39.4868L37.4153 39.6102C37.8971 39.1414 37.9465 38.9832 38.4297 38.6043L38.5244 38.6585L37.3657 39.8604C37.9906 39.2886 37.6047 39.7651 38.2802 39.1257C37.8708 39.451 37.9908 39.3113 38.2136 39.0727C38.325 38.9531 38.462 38.8093 38.5714 38.6864C38.6189 38.6337 38.6644 38.5794 38.708 38.5234C38.7227 38.5041 38.7365 38.4841 38.7494 38.4635C38.7626 38.447 38.7733 38.4285 38.7809 38.4087C38.895 38.3067 39.0094 38.2047 39.1168 38.098L39.3408 37.863L39.4537 37.7441C39.4915 37.7043 39.5155 37.6584 39.5472 37.6157L39.4645 37.726L39.3624 37.827L39.4505 37.7063L39.5133 37.59C39.5529 37.5159 39.5972 37.4527 39.6194 37.3828L39.7001 37.1919C39.7228 37.1296 39.7374 37.0658 39.7573 37.0027C39.8027 36.877 39.8147 36.7391 39.8329 36.575C39.8304 36.4927 39.8256 36.4031 39.8167 36.304C39.8027 36.2058 39.7724 36.1005 39.7447 35.9819L39.83 36.2789C39.8458 36.3782 39.8594 36.4756 39.8715 36.572C39.8729 36.6682 39.8687 36.7634 39.8647 36.8583C39.8566 36.9525 39.8342 37.0435 39.8192 37.1364C39.7744 37.3176 39.7142 37.4987 39.6122 37.6658C39.5719 37.7543 39.5025 37.8334 39.4357 37.9164L39.2266 38.1714L38.8381 38.5446C38.7505 38.6243 38.6655 38.6984 38.5679 38.7812L38.7937 38.5892C38.8226 38.5659 38.9139 38.4804 38.9886 38.4115L39.2384 38.1792C39.4136 37.9796 39.623 37.7708 39.7509 37.527C39.8715 37.2784 39.963 37.0104 39.9871 36.7507C40.0481 36.2275 39.8773 35.7991 39.8 35.6155C39.6913 35.3442 39.4661 35.1401 39.2847 34.9337C39.1068 34.7415 38.8822 34.4962 38.8015 34.4362C38.5776 34.2365 38.3527 34.0456 38.1094 33.8127C38.5529 34.2827 38.4161 34.2592 38.4046 34.3396C38.399 34.3799 38.4247 34.446 38.5699 34.6127L38.9855 35.0703L39.3536 35.465C39.4134 35.5433 39.4611 35.6327 39.5208 35.7238C39.5627 35.8235 39.6143 35.9271 39.6501 36.0431C39.6546 35.9694 39.5334 35.6741 39.4461 35.5825C39.6219 35.7341 39.8293 36.1812 39.7772 36.7045C39.7601 36.965 39.6594 37.227 39.5358 37.4604C39.4028 37.6885 39.1985 37.8744 39.0383 38.0457L38.6731 38.3665C38.7225 38.2684 38.6042 38.3533 38.5876 38.3434C38.5774 38.3404 38.5657 38.3404 38.6087 38.2862C38.6544 38.2294 38.7449 38.1284 38.9053 37.9569L39.1242 37.6842C39.0592 37.7782 39.0847 37.7748 39.175 37.6964C39.1973 37.6764 39.225 37.6525 39.2537 37.623L39.3361 37.5154C39.365 37.4746 39.4014 37.4322 39.4307 37.3808C39.4563 37.3272 39.484 37.2702 39.5133 37.2098C39.6158 36.9646 39.6943 36.6321 39.6357 36.2857C39.5783 35.9397 39.4258 35.601 39.1505 35.3562L39.1602 35.4851C39.1667 35.5468 39.1613 35.6092 39.1589 35.6104C39.1658 35.6072 39.0801 35.5187 38.9531 35.3863L38.4955 34.9094L37.9995 34.4307L38.0853 34.5271C37.6417 34.2371 37.0563 33.4763 36.3379 32.8517C35.8936 32.3272 33.9943 30.508 34.9202 31.1827C34.2419 30.6556 33.8049 30.0356 33.1609 29.3649L34.0314 30.1337C33.1432 29.0848 33.369 29.4169 32.7247 28.5115C32.6139 28.4653 32.4141 28.3195 32.5383 28.5099C31.2256 27.2192 29.327 25.4002 28.6569 24.5438C27.731 23.6348 27.4479 23.629 26.2103 22.2923C25.9549 22.0059 26.5322 22.3937 25.6432 21.5781C25.577 21.5297 26.3797 22.4824 25.4363 21.5273C24.8484 20.764 23.7931 19.9952 22.989 19.041C22.4904 18.6109 21.6943 17.7959 21.7908 18.0344C22.5453 18.7507 23.575 19.8026 23.6998 19.9946C23.641 19.8506 24.2665 20.4743 23.7557 19.9012C24.9257 20.955 24.4356 20.6642 25.4735 21.621C25.5138 21.718 24.8797 21.1889 24.6909 20.9504C24.5883 21.0428 26.6173 22.9565 25.6102 22.1897C24.5322 21.1363 24.4186 20.6185 23.3887 19.8006C23.7008 20.2285 24.3323 20.7554 24.7015 21.3259L23.9006 20.6088L23.4185 19.9898L23.4371 20.0369C22.0023 18.7902 22.2935 18.7013 21.1389 17.4578C21.904 18.0828 21.147 17.1293 21.7131 17.6088C20.9207 16.7975 20.3167 16.2235 20.2133 16.3154C21.6393 17.8893 20.1953 16.5028 21.4898 17.9818C21.2263 17.7897 21.678 18.4529 20.8376 17.6401C19.9727 16.6429 21.1989 17.8367 20.2988 16.8793C20.235 16.8333 20.169 16.7853 20.1871 16.8319C19.8092 16.3558 19.6685 16.3534 19.2058 15.7825L19.3091 15.9241C18.6102 15.348 18.6768 15.1625 18.0612 14.6801C18.3541 14.8267 17.7509 14.2537 17.455 13.8699C18.0407 14.3968 18.4468 14.5932 19.5425 15.6923C19.6182 15.8813 19.5058 15.8331 19.9304 16.3098L19.2216 15.592C19.3667 15.7548 19.4695 15.8863 19.5995 16.0383L20.3171 16.6913C19.4861 15.7851 19.9473 16.1212 19.6366 15.694C18.8137 14.9269 18.9941 15.0249 18.4736 14.5453C18.4398 14.6791 16.7913 13.1611 15.8185 12.3029L16.2481 12.7226C16.8624 13.4377 15.7188 12.3365 15.671 12.3349L15.2267 11.8104C15.3126 11.907 15.4194 12.0522 15.2 11.8582C14.5573 11.1893 14.6791 11.1442 14.0377 10.4761C13.9418 10.4733 14.4272 11.0947 13.994 10.7131C13.8128 10.6135 13.2562 10.2749 12.4242 9.36725C12.38 9.28821 12.1635 9.05353 11.9089 8.78558C11.9427 8.82422 11.9869 8.87146 11.9999 8.89117L11.3693 8.36542C11.7842 8.93457 12.4059 9.32068 12.8233 9.89258L12.7902 10.0092C13.1765 10.3932 13.6689 10.9467 13.8714 11.2249C13.2692 10.6526 13.1649 10.5098 12.5215 9.84003C12.3817 9.79559 12.8102 10.2914 12.8721 10.3629L12.8169 10.2227C13.6651 10.941 13.9197 11.4608 14.912 12.4182C15.0627 12.5618 14.9781 12.4668 14.9594 12.42C15.6786 13.2788 16.5555 13.9509 17.2294 14.8105L17.0179 14.5221L19.4135 17.2529L19.3924 17.2901C19.2612 17.1947 19.6467 17.5754 19.8648 17.7682L19.8642 17.7668L21.1814 19.2601C20.9991 19.1224 20.8251 18.9744 20.66 18.8169C20.5338 18.6232 19.5644 17.717 19.7715 17.7676C19.2897 17.3828 18.6566 16.6202 18.3078 16.3325C18.9397 16.8602 17.9763 15.8572 17.9175 15.7131C17.6725 15.5679 17.0592 14.8536 17.0688 14.995C16.9368 14.8982 17.3987 15.2349 17.6064 15.5199C18.1541 16.1863 16.4363 14.4663 17.1367 15.2783C16.2178 14.2737 14.9251 13.0306 13.9904 11.9813L14.575 12.5078C14.1224 12.0779 13.0896 11.0231 12.9792 10.9771C13.3005 11.3114 13.6858 11.6923 14.0933 12.1232C14.0389 12.2178 13.0826 11.1187 12.9894 11.1182L11.891 9.78186L12.4304 10.3091C12.1386 9.92926 10.9645 8.87262 10.1245 8.05945C10.4979 8.63361 11.3735 9.3045 12.205 10.2119C12.8002 10.8799 11.7148 9.92126 12.2903 10.5414C12.1107 10.4105 11.722 10.0191 11.5547 9.80194L11.2996 9.58539C11.7417 10.2094 12.9626 11.3801 13.6813 12.2527C13.6212 12.1732 13.5706 12.1021 13.5593 12.0692C14.2105 12.6439 14.8338 13.2656 15.4087 13.8854C15.0621 13.5997 14.9566 13.4553 14.7861 13.2645C14.7405 13.2648 15.2968 13.8368 15.4854 14.0746C14.9002 13.5477 15.3264 14.0258 14.958 13.6907C15.2991 14.0734 15.6 14.3591 16.0522 14.789C16.3171 14.9821 15.911 14.5524 16.0039 14.5532C16.4321 15.0333 16.751 15.1307 17.3649 15.846C16.4578 14.9841 17.4985 16.1777 17.7732 16.512L17.6211 16.3676C17.8484 16.7006 18.0853 16.9399 18.329 17.0839C17.9879 16.7012 17.6211 16.3676 17.7794 16.4156C18.017 16.6562 18.2538 16.8961 18.5093 17.1821L18.3018 16.8975L19.4829 18.0927C19.6232 18.3284 19.8702 18.7095 19.9637 18.9443C20.2938 19.1848 20.6554 19.6167 20.9101 19.9028L20.8041 19.7573C21.3716 20.2385 22.5074 21.4347 22.5632 21.5753C22.9772 21.9104 20.1798 18.6669 22.7966 21.3437C23.8059 22.3467 23.2886 22.1041 23.8177 22.7232C23.8177 22.7232 23.7991 22.6772 23.8653 22.725C24.3173 23.1539 24.3096 23.2495 24.6508 23.6322C24.365 23.3898 23.9799 23.0095 23.8762 22.8671C23.952 23.0559 24.8016 23.7758 25.0952 24.1567C24.7438 23.6328 25.9832 24.9713 25.6872 24.5878C26.6229 25.404 27.493 26.4062 27.8895 26.9291C28.5969 27.4113 28.9208 27.982 29.94 28.8922C29.7879 28.7477 29.5344 28.4633 29.3145 28.2684C28.8331 27.6509 30.3544 29.2277 29.5693 28.3207C29.7399 28.5119 29.5449 28.3704 29.3697 28.1746C29.0518 27.8433 28.7759 27.5081 28.8896 27.5577L29.7407 28.2792L29.4822 27.989L30.7656 29.092C30.784 29.1384 30.6542 29.0444 30.5878 28.996C32.0141 30.3369 33.5538 31.9606 34.7819 33.1569C34.797 33.3687 35.5244 34.1331 36.3558 34.9817L36.9893 35.6265L37.3029 35.9471L37.4213 36.0702L37.4885 36.1437C37.5762 36.2387 37.6595 36.3297 37.6766 36.4369C37.6982 36.5407 37.6711 36.6381 37.6234 36.7017C37.6932 36.6359 37.7552 36.5674 37.8115 36.5297C37.869 36.4919 37.9266 36.4861 37.9672 36.5527C37.9728 36.464 37.9756 36.3158 37.8851 36.1692C37.8411 36.0961 37.7781 36.0239 37.7107 35.9443C37.6758 35.9042 37.6415 35.8666 37.5995 35.8239C37.5399 35.7634 37.4779 35.7032 37.4137 35.6434C37.3023 35.5963 36.6523 35.0225 37.0112 35.451C35.6599 34.0647 37.2841 35.5493 36.9524 35.0735L37.3292 35.4618L37.6649 35.8168C37.8074 35.9853 37.9625 36.119 38.0303 36.2921C38.0613 36.3738 38.0745 36.4612 38.0689 36.5483C38.0633 36.6356 38.0391 36.7205 37.9979 36.7977C37.9222 36.9483 37.7805 37.0388 37.6674 37.1292L37.5197 37.2433L37.2877 37.4435L36.8276 37.8499L36.8267 37.8973L36.0568 38.5737C36.6365 37.9719 36.4949 37.8896 35.77 38.6872L35.8685 38.6003C35.4799 39.0798 34.5175 39.9249 33.844 40.6082L33.3173 41.0021C32.6428 41.6865 32.7343 41.8358 32.5852 42.1276C31.5248 43.1971 30.8085 43.7113 29.9904 44.4064C29.6998 44.7996 28.1115 46.4012 29.0237 45.6227C28.0132 46.5336 27.9249 46.0596 26.428 47.8569L26.9081 47.4814C25.3166 49.0402 22.9607 51.178 22.2858 51.9543C23.0518 51.5569 20.4973 54.0994 20.3956 54.5564C20.433 54.438 19.8253 55.0142 19.7169 55.0783C19.6077 55.2283 19.4115 55.4638 19.1444 55.6552C19.7249 55.0074 18.5249 55.9006 19.7757 54.8024C19.0563 55.2725 18.1918 55.9401 16.8912 57.2433L16.9858 57.2982L17.9969 56.2491C17.9476 56.4075 18.4758 55.8752 18.7194 55.6839C16.8381 57.6348 19.1462 55.6078 17.1702 57.5499C16.9318 57.6902 17.0749 57.5878 16.5447 58.0762C16.7875 57.8402 16.8824 57.8484 16.4962 58.2338L16.0645 58.5438C15.5026 59.3492 17.2822 57.4962 16.7841 58.1649C17.6021 57.4695 18.9483 56.1953 18.7988 56.5334C17.5936 57.7986 17.5047 57.4631 16.2517 58.793L16.1546 58.9705C15.671 59.3956 15.5316 59.4034 15.2419 59.6118C15.2426 59.6572 15.1442 59.7895 14.8579 60.0867C13.992 60.7554 13.462 61.2441 12.6467 61.8449C14.6159 60.0466 14.1896 60.1682 16.211 58.301C15.8741 58.5737 14.4778 59.9148 14.2902 59.8959L14.3835 59.9522C13.7103 60.5433 13.0376 61.1345 12.2654 61.9497L12.794 61.5089C11.6859 62.5053 11.1521 63.3641 10.1945 64.0677C10.4821 63.7691 10.7233 63.5341 10.9163 63.3651C10.3394 63.8717 9.66498 64.5562 9.08685 65.155L7.74115 66.2457C7.78894 66.272 7.01672 67.0432 7.44958 66.731C6.6264 67.6613 6.1001 67.9623 5.57312 68.4486C4.7514 69.4224 6.38904 67.7089 6.58069 67.7239C5.37366 68.9907 4.02655 70.2662 3.25861 70.8947C3.49683 70.6284 3.60675 70.4933 3.57587 70.4881C3.56183 70.5489 3.0553 71.0396 2.77722 71.317L2.53699 71.4591L2.52698 71.4706L2.52435 71.4734L2.55023 71.4989L2.55066 71.4989L2.55206 71.4999L2.55627 71.5039C2.56012 71.5081 2.56366 71.5126 2.56671 71.5175C2.56708 71.5184 2.56488 71.5134 2.56647 71.5162C2.57068 71.5246 2.56488 71.5113 2.56787 71.5189C2.57092 71.5294 2.57593 71.5392 2.58276 71.5479C2.58496 71.5499 2.5946 71.563 2.59821 71.5621C2.60126 71.5621 2.60425 71.5627 2.60706 71.5638L2.61407 71.5667C2.61987 71.5637 2.61267 71.578 2.63129 71.5609C2.62225 71.5704 2.61987 71.572 2.62006 71.5706L2.61707 71.571L2.61243 71.573C2.60883 71.5732 2.61084 71.5826 2.60541 71.5794C2.59521 71.5722 2.59558 71.5858 2.58557 71.5746C2.57434 71.579 2.56165 71.5497 2.5575 71.5497C2.55725 71.5438 2.55725 71.5403 2.55627 71.54C2.55865 71.54 2.54822 71.5403 2.56049 71.5417C2.58173 71.5452 2.60126 71.5553 2.61627 71.5706L2.62708 71.5832C2.6283 71.5856 2.63934 71.5987 2.62567 71.5865L2.52618 71.5057L2.47601 71.4664L2.47559 71.4662L2.54865 71.5318L2.54883 71.5316L2.54901 71.5312L2.54926 71.5308L2.54944 71.5298L2.54944 71.5288C2.54865 71.528 2.54541 71.5294 2.53918 71.5318C2.539 71.5298 2.52393 71.5359 2.51233 71.5354C2.50427 71.5425 2.51294 71.5424 2.5047 71.5519C2.50171 71.5593 2.5105 71.5599 2.50629 71.5714L2.50586 71.5734L2.50568 71.5744L2.50549 71.5748C2.47498 71.5471 2.5741 71.6364 2.43665 71.5131L2.43726 71.5137L2.43988 71.5159L2.45996 71.5334L2.49963 71.5684L2.58032 71.6384L2.58936 71.6461L2.58679 71.6414L2.58057 71.6324C2.57617 71.6268 2.57092 71.6219 2.56506 71.6179C2.55438 71.6106 2.54205 71.606 2.52917 71.6045C2.54163 71.6106 2.55548 71.6136 2.5694 71.6132C2.58331 71.6128 2.59692 71.6091 2.60901 71.6023C2.61462 71.6003 2.62286 71.6007 2.62469 71.5914C2.62585 71.59 2.62732 71.5889 2.62897 71.5882C2.63055 71.5875 2.63232 71.587 2.63409 71.587C2.63269 71.5912 2.64496 71.5788 2.65698 71.5667L2.69049 71.5332L2.94415 71.2822C3.10352 71.1268 3.24133 70.9967 3.34949 70.9078C3.12927 71.1133 2.91333 71.3232 2.70197 71.5375L2.64819 71.5925C2.64056 71.5983 2.64056 71.5957 2.63733 71.5985C2.63232 71.6011 2.6319 71.6103 2.62811 71.6146C2.6225 71.6155 2.61865 71.6187 2.61566 71.6246C2.61426 71.6342 2.60681 71.631 2.60278 71.6348C2.59778 71.6364 2.59497 71.6475 2.58899 71.6481C2.57751 71.6458 2.56671 71.6672 2.55383 71.6631C2.54639 71.6652 2.53937 71.6688 2.5332 71.6734C2.52679 71.6714 2.51996 71.6714 2.51349 71.6732C2.48181 71.6768 2.52435 71.6844 2.52435 71.7119L2.52557 71.722C2.52594 71.726 2.51147 71.7133 2.50507 71.7097L2.45514 71.675L2.40472 71.64L2.37927 71.6224L2.36664 71.6135L2.36023 71.6091L2.35858 71.6079C2.47742 71.7145 2.39148 71.6371 2.41797 71.6613L2.41779 71.6611L2.41718 71.6603C2.41132 71.6532 2.40411 71.6473 2.39594 71.6431C2.38507 71.6393 2.37567 71.634 2.37286 71.6246C2.33514 71.6011 2.32648 71.5517 2.31824 71.4987C2.31146 71.4748 2.32751 71.4338 2.32587 71.4226C2.3255 71.4268 2.32269 71.4304 2.31805 71.4324C2.31525 71.4336 2.31226 71.4343 2.3092 71.4344L2.30383 71.4344C2.30139 71.4346 2.31183 71.4236 2.31543 71.4188L2.37805 71.3425L2.41016 71.3037L2.42639 71.2838L2.43042 71.279L2.38147 71.3329L2.38269 71.3318L2.38489 71.3294L2.3941 71.3204C2.61737 71.1008 2.84363 70.8842 3.07275 70.6706C3.07416 70.623 2.6889 70.9156 3.0752 70.5309C3.98962 69.6588 3.40948 70.3979 3.74359 70.1736C3.38342 70.5013 3.13037 70.7519 2.92511 70.9781C2.82257 71.0913 2.73181 71.1983 2.64539 71.3059L2.51831 71.4678L2.51813 71.4683L2.58093 71.3991L2.58057 71.3997L2.57971 71.4013L2.57794 71.4041L2.57452 71.4095L2.56769 71.4207L2.55426 71.4426L2.52734 71.4872C2.51147 71.5151 2.48645 71.5515 2.47778 71.5734C2.46814 71.5824 2.52716 71.5345 2.57715 71.4951C2.58966 71.485 2.60229 71.475 2.61505 71.465L2.63269 71.4511L2.6369 71.4477L2.63794 71.4469L2.63855 71.4465L2.63873 71.4463L2.63892 71.4461L2.57068 71.521L2.57294 71.5197L2.58112 71.5145L2.61609 71.4919C2.62347 71.4439 3.05573 71.0126 3.1637 70.8662L3.35571 70.8353C3.21527 70.7979 3.84076 70.0425 4.41907 69.5345C3.93286 70.1453 4.07831 69.9943 4.02997 70.2437C4.89246 69.5783 4.80035 69.2916 5.76093 68.5399C5.66803 68.5755 4.89667 69.2986 5.52277 68.6337C6.05511 68.0974 6.0531 68.2372 6.435 67.902C5.95557 68.2305 6.00458 68.0725 5.4776 68.4211C4.5152 69.3578 5.09412 68.8038 4.13031 69.6962L4.85596 68.8514C4.03662 69.6409 4.1839 69.35 4.08917 69.3877C5.39252 67.944 5.24078 68.4679 6.10852 67.5679C6.5871 67.1937 5.28815 68.4034 6.01056 67.7922C6.82928 66.9579 6.24817 67.6523 7.21161 66.7599L7.02155 66.8808C7.26215 66.5543 7.5979 66.3288 7.93481 66.0095C8.31946 65.6722 7.78229 66.6724 9.27686 65.1989C9.18317 65.2509 9.14325 65.2644 9.13458 65.2559L7.05865 66.0798C8.7251 64.4276 10.3712 62.7552 11.9965 61.0632C12.2863 60.5339 10.6489 62.2019 10.7008 62.0411L9.92865 62.8573C10.025 62.8641 11.6144 61.2152 10.9861 62.0204C9.54156 63.3809 8.96222 64.0739 7.52039 65.2939C7.81317 64.7608 9.30072 63.5695 10.075 62.6135C9.71814 62.9834 9.39685 63.2759 9.08044 63.5554L11.6456 60.907L11.8838 60.7291C11.2719 61.3638 10.8497 61.8037 10.7983 61.8633C11.6169 61.0294 12.3839 60.4022 12.5283 60.4361L12.384 60.5855L12.7117 60.3158C12.9014 60.1176 13.0902 59.9188 13.278 59.7211ZM5.86652 6.12732C5.90845 6.18585 5.93811 6.23529 5.95502 6.27673C5.93756 6.23346 5.97986 6.25897 5.86652 6.12732ZM6.16968 69.6957L4.53625 71.3668L3.72937 72.1935L3.5293 72.3978C3.50159 72.429 3.45044 72.472 3.40289 72.5113C3.3537 72.5488 3.31036 72.5948 3.25476 72.623C3.0437 72.7579 2.79529 72.8181 2.54944 72.8243C2.77075 72.8032 2.9845 72.7469 3.15643 72.6309C3.24756 72.5818 3.32098 72.5129 3.39062 72.444C3.46973 72.373 3.50043 72.3204 3.5542 72.2603L4.08014 71.6212C4.38898 71.2407 4.60406 70.9612 4.6651 70.8461C4.72607 70.731 4.63257 70.7804 4.32397 71.0574C4.16962 71.1959 3.96155 71.3914 3.69226 71.6515L3.24115 72.0914C3.19922 72.136 3.15765 72.1661 3.11554 72.2001L3.0517 72.2517L2.97668 72.29L2.90039 72.3302L2.81555 72.3547C2.78662 72.3625 2.7583 72.3735 2.72845 72.3795L2.63611 72.3878C2.63513 72.4003 2.37726 72.3641 2.38049 72.3551C2.50647 72.3693 2.66058 72.3766 2.81555 72.3177C2.89618 72.2996 2.96802 72.2485 3.04388 72.2053L3.14783 72.1187C3.18414 72.0884 3.22449 72.0432 3.26343 72.0055C3.59735 71.6705 3.93542 71.3396 4.27759 71.0128C4.78662 70.6145 5.29877 70.22 5.8139 69.8295L6.56946 69.262C6.76672 69.1165 6.89209 69.0281 6.89233 69.0378C6.74701 69.2801 6.40973 69.508 6.07117 69.874L6.16968 69.6957ZM6.66052 68.6217C7.26758 67.9799 7.16425 68.1605 7.29645 68.0988L6.62445 68.7394C6.69885 68.648 6.72754 68.5946 6.66052 68.6217ZM7.29407 68.1709C7.22443 68.2416 7.16602 68.303 7.13934 68.3391L7.29407 68.1709ZM7.76099 64.9233L7.69458 64.9851L8.1377 64.5289C8.08331 64.5942 7.97314 64.7122 7.76099 64.9233ZM6.57507 66.272L6.36176 66.3559L6.77734 65.9283C6.75909 66.0046 6.7348 66.0792 6.57507 66.272ZM2.69751 70.5421C2.61383 70.5869 2.49689 70.6738 2.36621 70.7786L2.16235 70.9459L2.10999 70.9897L2.08368 71.0117L2.07062 71.0228L2.07025 71.0232C2.07904 71.0132 2.04956 71.0455 2.09009 71.0013L2.08948 71.0021L2.08789 71.0037L2.0849 71.0068L2.07886 71.0128L1.98376 71.1105C1.94421 71.1467 1.93823 71.166 1.92438 71.1865C1.91132 71.2081 1.89343 71.2246 1.87921 71.2487C1.85931 71.3041 1.82281 71.3529 1.81177 71.4017C1.79871 71.4497 1.78027 71.4916 1.76721 71.5242C1.75879 71.5569 1.74695 71.58 1.73193 71.5892C1.71948 71.6232 1.70282 71.5876 1.68915 71.5091L1.69257 71.3641C1.6994 71.3091 1.71967 71.2499 1.73334 71.1871C1.74713 71.1559 1.76422 71.127 1.7793 71.0961C1.79572 71.0656 1.80432 71.0342 1.83508 71.0019L1.9137 70.9045L1.93359 70.8799C1.93866 70.8749 1.94366 70.8698 1.94861 70.8646L1.99359 70.819C2.11377 70.6975 2.23737 70.572 2.36481 70.4427C2.38672 70.4467 2.45013 70.4078 2.547 70.3347C2.30402 70.5981 2.15631 70.7887 2.31427 70.7409C2.84821 69.9731 2.98511 70.2441 3.66095 69.512C3.94873 69.3512 2.93695 70.3546 2.69751 70.5421ZM23.1823 20.8078C23.1544 20.7957 23.0654 20.747 22.9437 20.6755L23.3973 21.2134C24.3046 22.0756 25.1442 22.6543 25.8333 23.5573C26.235 23.9011 26.4939 24.0418 26.7333 24.1838C26.5467 24.0056 26.3707 23.84 26.2206 23.7059C24.1412 21.3212 24.8819 22.7152 23.1823 20.8078ZM33.548 30.7863C33.4622 30.6899 33.4437 30.6428 33.4437 30.6428C35.2637 32.775 36.8499 34.4438 37.9256 35.4992C37.6533 35.358 36.6436 34.4554 36.1611 34.0298L36.4908 34.5042L36.8011 34.6966L37.4348 35.4592C37.189 35.314 36.6333 34.7418 36.2167 34.4042C36.1979 34.3575 35.0727 33.069 34.7797 32.6876L35.799 33.5978C35.5168 33.3587 34.2498 32.067 33.7595 31.5429C33.7868 31.4961 34.7213 32.3104 34.7512 32.5001C34.9106 32.5493 33.8996 31.5443 34.5983 32.1208C33.899 31.3098 32.6438 30.1611 32.0568 29.6326L31.8696 29.6304C31.2197 29.0565 31.5662 29.1079 30.7832 28.4368C31.6619 29.345 30.5302 28.387 31.2367 29.1022C30.9738 28.9107 31.1342 29.1946 30.4262 28.478C29.9536 27.7656 29.596 27.8063 29.1415 27.1405C28.7275 26.8054 29.4722 27.6152 28.7165 26.8973C27.9325 25.9915 28.0276 25.9943 28.0643 25.8536C28.8824 26.6162 28.8395 26.8533 29.5099 27.4758L28.3724 26.0435C28.6318 26.258 28.81 26.4305 28.9515 26.5831C28.701 26.317 28.5034 26.0759 28.3461 25.8578L28.0934 25.5172C28.8254 26.2422 29.4771 26.8849 29.6298 26.9612L29.5721 26.8182C29.8707 27.0357 30.2617 27.4855 30.4246 27.7101C31.0746 28.3649 31.6683 29.0739 31.8674 29.1603L31.6583 28.8743C32.4515 29.6859 32.536 29.7803 33.548 30.7863ZM18.4155 57.5964C18.7449 56.9549 19.1426 56.282 21.4467 54.0496L21.2566 54.2166C22.3043 52.9788 23.6249 52.1266 24.91 50.6313C24.173 51.2445 24.2149 51.2136 23.3306 51.8204L24.1021 51.1435C23.8143 51.2578 24.5839 50.5827 25.1131 50.0492L24.54 50.4146C24.2494 50.7616 23.4305 51.5957 23.4315 51.5483C23.6245 51.3792 22.4656 52.7643 21.7421 53.4233C21.7443 53.2832 23.2368 51.8573 22.4692 52.3937C23.0933 51.8687 23.0956 51.729 23.7225 51.1548C23.097 51.6814 23.4847 51.2029 23.0038 51.5796L24.0156 50.6222C24.0182 50.5735 22.525 51.9997 23.2493 51.111C23.6815 50.7542 24.6929 49.6595 24.7868 49.715L24.788 49.6679C25.5124 48.9167 25.2197 49.4496 26.0865 48.5045C26.1349 48.5312 25.9874 48.7292 25.6539 49.045C25.3619 49.3018 25.2682 49.2926 24.6907 49.8452C24.4948 50.156 25.3673 49.1589 25.0728 49.6482C24.9265 49.8912 23.5328 51.0923 24.0588 50.7909L24.782 50.0411C24.8759 50.0966 25.4069 49.561 25.4524 49.6359C25.932 49.2145 26.2742 48.7073 26.8011 48.3137C27.0411 48.1714 26.7967 48.593 27.5211 47.7958C28.0071 47.0933 29.7873 45.3688 30.4619 44.7307L31.0862 44.2057C31.0832 44.3002 29.9785 45.2928 30.4083 44.9849L31.3254 44.1101L31.2273 44.1504C31.5189 43.8482 31.8544 43.5767 32.1427 43.3232C31.8086 43.5475 31.1826 44.2123 31.2331 44.0071C31.6396 43.5729 31.6752 43.4802 32.0783 43.1097C31.988 43.1884 31.9075 43.2531 31.9072 43.2316C32.7277 42.3499 32.8194 42.4991 33.059 42.3118C34.0194 41.5601 32.2874 43.2646 32.4777 43.2356L35.0284 40.7887C34.7888 40.9761 34.548 41.1654 34.5967 41.0532C35.1758 40.4068 34.5502 40.9793 35.4174 40.1257C35.4628 40.2927 36.5713 39.1121 37.2432 38.5679C37.4843 38.2414 37.5343 38.1744 36.9096 38.792C36.9086 38.6555 37.7825 37.8409 38.0593 37.5537C38.0956 37.5244 38.1312 37.4943 38.166 37.4633C38.2477 37.3907 38.3557 37.3079 38.4478 37.2089C38.4939 37.1594 38.5431 37.1116 38.5728 37.0544C38.6067 37.0001 38.6436 36.9497 38.6599 36.8975C38.629 37.0624 38.6157 37.1118 38.6884 37.0403C38.704 37.0214 38.7297 36.9967 38.749 36.9592C38.767 36.9214 38.7877 36.8742 38.8112 36.8174C38.8354 36.7609 38.8397 36.6899 38.8557 36.611C38.8625 36.5213 38.859 36.431 38.8453 36.3421L38.8525 36.2943C38.9127 36.5015 38.9219 36.7501 38.8375 36.986C38.7584 37.2268 38.5685 37.4138 38.3892 37.6122L37.8425 38.186L37.3395 38.7014C37.0176 39.024 36.7298 39.2954 36.5187 39.4576L36.7101 39.3358C35.7448 40.413 34.3547 41.4272 34.0128 42.0264C34.1083 42.0345 33.8187 42.2427 33.9114 42.2991L33.0981 42.9906L33.2891 42.8685L31.9882 44.1265L32.0362 44.1066L30.3975 45.3992C30.3634 45.3683 30.3931 45.319 30.1655 45.4968C29.9861 45.6469 29.8154 45.8069 29.6542 45.9761C29.653 45.9769 29.653 45.9769 29.6526 45.9767L29.653 45.9772C29.3476 46.2995 29.1844 46.5543 28.8156 46.9584L30.0176 45.7811C30.1703 45.7397 30.1264 45.8975 29.58 46.5168C29.8214 46.2814 29.9647 46.2248 29.6749 46.5251C29.6279 46.5431 28.8572 47.2668 29.0986 46.9391C27.9442 48.0452 26.2533 50.0126 24.4258 51.6176C25.7263 50.452 23.5085 52.6758 24.9048 51.3347C24.0347 52.3746 23.9926 52.067 23.0289 53.051C22.9775 53.1653 23.5569 52.5187 23.8442 52.3579C22.2548 54.0062 20.9594 54.9375 19.4143 56.5248L19.4163 56.6603C19.1094 56.9469 18.7693 57.2654 18.4155 57.5964ZM15.2197 60.5978L14.2745 61.4888L14.3629 61.3969L13.3982 62.244C13.9296 61.6627 14.2217 61.222 13.4047 61.9629C13.499 61.9258 13.3055 62.1876 13.5939 61.9342C13.1116 62.4955 12.0024 63.6763 12.1976 63.2751C13.3031 62.3738 12.2991 62.9101 13.1635 62.1978C12.671 62.5513 12.2811 62.9994 11.8499 63.3671C12.324 63.0093 11.8815 63.5918 11.282 64.241C10.9924 64.4952 10.2698 65.2443 9.789 65.667C9.88672 65.4431 9.45526 65.7987 10.1779 65.0493C9.7674 65.4091 9.38068 65.7948 9.0202 66.2041C9.21747 66.03 9.55121 65.7144 9.55176 65.7598C9.30719 66.1192 8.94958 66.4692 8.77863 66.6885L8.30103 67.1423C8.34113 67.0912 8.37347 67.0447 8.3927 67.0075L7.81702 67.4671C8.53882 66.8103 8.10718 67.1204 8.06104 67.0922C8.1543 67.1479 7.62537 67.5438 7.38635 67.7762L7.82159 67.1874C7.53326 67.3948 7.0011 68.1153 7.05267 67.9088C8.11218 66.7946 8.54523 66.3915 9.55542 65.4353L9.21649 65.8939C10.3731 64.8319 9.79761 65.1078 11.0498 63.8709C11.6249 63.4109 12.9321 62.0099 13.0701 62.0959C12.8793 62.2173 13.748 61.2246 14.227 60.8501C14.8027 60.4823 16.2471 59.0759 15.8608 59.5524C15.4753 59.9375 14.8988 60.3979 14.6548 60.7728L15.426 60.0496L14.9899 60.5935C15.2243 60.3214 15.2542 60.4 15.2197 60.5978ZM3.84375 67.3553L3.87122 67.3253L3.83954 67.3575L3.84375 67.3553Z" fill="#000" fill-opacity="1.000000" fill-rule="nonzero"/>
	<path id="Vector" d="M12.3511 9.88678C12.1603 9.64697 11.6209 9.12103 11.7811 9.1701C11.7072 9.21759 12.728 10.1266 12.3511 9.88678ZM11.6517 9.31158C11.6286 9.25989 11.6779 9.26288 11.4398 9.02289L12.0856 9.69305L11.6517 9.31158ZM10.566 9.05798C10.2701 8.67535 10.0798 8.4361 9.54034 7.90997C9.19128 7.85754 10.3753 8.81879 10.4796 9.19586C9.48499 8.23798 9.31293 7.81165 8.51874 7C8.98041 7.33496 10.649 8.91736 10.566 9.05798ZM10.8148 9.67493L10.3026 9.1015L10.365 9.14618L10.8776 9.71997L10.8148 9.67493ZM23.9171 20.1049C24.0128 20.1077 24.3071 20.4896 24.4781 20.6813C24.3268 20.5375 24.1073 20.344 23.9171 20.1049ZM17.186 19.5515L13.0692 15.3852L17.186 19.5515ZM37.4243 34.0832C36.3505 32.9332 35.934 32.3624 34.8156 31.2145C36.4061 32.6052 36.6476 33.3174 38 34.4678L37.4243 34.0832ZM37.3994 33.3272C37.127 33.23 38.1595 34.2823 37.9333 34.1849C37.2015 33.418 37.6656 33.7554 36.9747 33.0858L37.3994 33.3272ZM30.8952 29.7385L31.1887 30.119L30.9325 29.8323L30.8952 29.7385ZM37.496 40.3302L37.6392 40.2272L37.1064 40.8096L37.496 40.3302ZM37.7827 40.1249L37.6392 40.2272L37.7827 40.1249ZM31.1436 30.3549L30.6213 29.8744L30.4124 29.5881L31.1436 30.3549ZM36.056 34.2945L35.6334 33.8206C35.7174 33.9144 36.3694 34.4894 36.056 34.2945ZM34.1112 43.756L33.5297 44.2658L33.577 44.202L34.1567 43.6938L34.1112 43.756ZM37.7857 37.4227C37.8141 37.3499 37.7633 37.3813 37.6995 37.4352L37.6012 37.523L37.4686 37.6457C37.431 37.6788 37.4127 37.6914 37.4277 37.6667C37.443 37.6436 37.4596 37.6213 37.4773 37.6C37.4987 37.5715 37.553 37.5095 37.5635 37.4895L37.6573 37.4067C37.8369 37.2571 37.7913 37.3618 37.7857 37.4227ZM31.7638 44.2872C31.6899 44.3604 31.6097 44.4352 31.5271 44.5023L31.7638 44.2872ZM31.7638 44.2872C32.0024 44.0508 32.2156 43.789 32.3987 43.6459C32.1314 43.9709 32.0115 44.0669 31.7638 44.2872ZM29.0132 46.9807L29.225 46.7614C28.9708 46.9479 29.0806 46.8488 29.3046 46.6796C29.5362 46.4547 29.5444 46.4884 29.5863 46.4759L29.7533 46.3619L29.541 46.5242C29.1863 46.8767 28.9661 47.0884 29.0132 46.9807ZM19.983 58.1619C20.7573 57.3452 20.9521 57.1285 20.8566 57.12C21.5989 56.3519 21.5707 56.5574 22.0491 56.1246C21.1805 56.965 21.0291 57.1627 19.983 58.1619ZM22.0491 56.1246L22.353 55.8319C22.2546 55.9324 22.1533 56.03 22.0491 56.1246ZM31.6413 43.2515L31.0648 43.6647L31.2582 43.4951L31.6413 43.2515ZM18.823 59.3627C18.968 59.2125 19.2077 58.9795 19.3066 58.8462C19.4015 58.8556 18.6782 59.5124 18.823 59.3627ZM20.8862 55.299C20.9356 55.1871 21.4661 54.6995 21.6621 54.481C21.3701 54.7834 21.2226 55.1194 20.8862 55.299ZM16.315 61.4218C16.4598 61.2715 16.6528 61.0111 16.5112 61.0664C16.7519 60.8782 17.1353 60.6805 16.315 61.4218ZM19.4348 56.7555L19.531 56.6248L20.1115 56.116L19.4348 56.7555ZM20.6179 54.062C21.2951 53.5142 19.7917 55.1771 20.9039 54.1796C19.6019 55.5977 20.9209 53.9886 19.9226 54.9976C20.4922 54.3916 20.7029 54.0273 20.6179 54.062ZM19.9224 54.9974C19.84 55.0853 19.7488 55.1793 19.6483 55.2795L19.9224 54.9974ZM11.6564 63.963C11.7304 63.8994 11.8063 63.838 11.8842 63.779C11.8087 63.8434 11.7351 63.9037 11.6564 63.963ZM16.6512 58.1361L17.6664 57.3151C16.9886 57.8638 15.4426 59.4025 15.4465 59.2147C15.9293 58.6992 16.5577 58.1254 16.8458 57.9194L16.6512 58.1361ZM7.74884 70.2864L8.18396 69.928L7.69727 70.4315C7.82581 70.2766 7.50012 70.4645 7.74884 70.2864ZM7.60303 70.5288L7.69727 70.4316C7.67834 70.455 7.64874 70.4859 7.60303 70.5288ZM13.4454 62.2798C13.7368 61.9782 13.9777 61.7446 14.2659 61.4919C14.1708 61.6208 13.4449 62.3724 13.4454 62.2798ZM4.80823 72.9318L5.48181 72.2959L4.75745 73L4.80823 72.9318ZM1 69.9666L1.09607 69.8369L1.67456 69.3297L1.57666 69.4612L1 69.9666ZM4.08527 70.3441C4.52118 69.8926 4.95282 69.6302 4.85352 69.7632L3.98535 70.6156C4.1322 70.3259 4.22729 70.3802 4.71008 69.8656L4.08527 70.3441ZM23.9121 47.5419C23.6703 47.6849 22.7531 48.6494 22.7496 48.7441C22.8967 48.6382 23.4286 48.1496 23.1362 48.4977L22.2684 49.1202C21.3481 50.1797 23.1819 48.5267 23.7157 48.082C22.7174 49.1011 22.3383 49.3209 21.2607 50.3893C21.4837 50.1543 21.6911 49.9051 21.8815 49.6434C21.834 49.5237 20.8665 50.5557 20.1415 51.2604C20.5623 50.7714 20.2668 51.0029 19.9008 51.2999C19.8382 51.3568 19.7937 51.3915 19.7596 51.4139L19.6348 51.5142L19.7212 51.429C19.7054 51.4257 19.7131 51.3955 19.7596 51.3185C20.3867 50.7459 20.7773 50.2195 21.1642 49.8343C20.9177 50.3497 22.5172 48.557 23.0472 48.1155L23.6238 47.571L23.835 47.3625C23.8624 47.3057 23.7834 47.3463 23.4351 47.6378C23.7304 47.399 24.6149 46.5038 24.5764 46.6293L26.6189 44.61C26.673 44.5479 26.7237 44.4828 26.7708 44.4153C26.8501 44.3536 26.8688 44.3491 26.8666 44.3652C29.3668 41.8942 31.8669 39.4234 34.3614 36.9526L34.332 36.9171C34.3495 36.9285 34.3702 36.9401 34.3936 36.9526C34.3876 36.9863 34.3797 37.0324 34.3429 37.0905C34.4559 37.0687 34.4365 37.0958 34.389 37.1497L34.3721 37.1693C34.364 37.1783 34.3708 37.1727 34.3298 37.2148C34.2698 37.2772 34.2136 37.3367 34.1696 37.3868C34.0816 37.4869 34.0417 37.549 34.1129 37.521C34.1968 37.4532 34.2873 37.3742 34.3793 37.2892C34.4404 37.2319 34.4341 37.2401 34.4502 37.2253L34.4859 37.1908C34.5316 37.1433 34.5665 37.0937 34.5812 37.0583C34.6285 37.0541 34.6456 37.0781 34.6557 37.1108C34.6666 37.1425 34.6702 37.1837 34.7141 37.1917C34.6763 37.2417 34.6347 37.2889 34.5898 37.3329C34.5786 37.3433 34.4266 37.4867 34.336 37.5653C34.1338 37.7433 33.9531 37.8829 33.7724 38.021C33.4113 38.2974 33.0503 38.5675 32.5179 39.1261C32.6134 39.1347 32.9977 38.844 32.2732 39.5477L32.4667 39.3781C31.2596 40.4585 31.6893 40.3813 30.8233 40.9565L30.9174 41.012C30.3395 41.4722 29.3251 42.4762 28.7433 43.0319L28.7919 43.0125C27.1029 44.515 27.8738 43.8857 26.0378 45.6331L26.9539 44.8993C26.3691 45.5501 26.1339 45.5944 25.6979 46.0457C25.7443 46.0283 25.6957 46.1852 26.1304 45.7817L23.8126 47.813C23.2345 48.2737 23.8629 47.654 23.9121 47.5419ZM21.2607 50.3893C21.1312 50.5266 20.9981 50.6603 20.8615 50.7904L21.2607 50.3893Z" fill="#000" fill-opacity="1.000000" fill-rule="nonzero"/>
	<path id="Vector" d="M33.9362 36L34 36.0648C33.9734 36.0492 33.9514 36.0268 33.9362 36ZM17.4379 52.7319C17.782 52.3121 17.096 52.9627 17 53L18.3741 51.6367C18.3972 51.6719 18.5657 51.5694 18.5651 51.6235L17.4379 52.7319Z" fill="#000" fill-opacity="1.000000" fill-rule="nonzero"/>
	<path id="Vector" d="M19.3335 52.2986C19.3982 52.2726 19.5564 52.1461 19.7308 52.0011L19.0025 52.7496C18.9858 52.723 19.0479 52.619 19.3335 52.2986ZM20.705 54L20.9427 53.7604L21.3203 53.4168L20.705 54ZM24.2582 50.0856C24.0206 50.419 23.455 50.934 23.2659 51.1062C23.8813 50.4753 23.5988 50.7324 24.2582 50.0856ZM23.9598 51.3405L24.576 50.7563L24.5293 50.8219L23.9598 51.3405ZM30 32.3028L29.7156 32C29.8126 32.0988 29.9074 32.1997 30 32.3028Z" fill="#000" fill-opacity="1.000000" fill-rule="nonzero"/>
	<path id="Vector" d="M35 35.86C34.7943 35.7188 34.7886 35.7481 34.809 35.7985C34.8325 35.8519 34.8931 35.9379 34.8871 35.9764C34.8299 36.0032 34.7877 36.0071 34.7534 35.9886C34.7596 35.9851 34.7654 35.981 34.7709 35.9764C34.756 35.9359 34.738 35.8966 34.717 35.8588L34.6868 35.8854L34.6216 35.8118L34.2023 35.389C34.4457 35.5323 34.5947 35.6733 34.604 35.5807C33.3193 34.3535 34.1442 35.2478 33.1515 34.3969L31.7474 32.9936L31.8463 33.1216C31.7285 33.0031 31.6822 32.9451 31.6498 32.8962L26.9186 28.1666C26.0927 27.2717 27.4904 28.5479 26.9271 27.8428C27.9315 28.8337 29.4787 30.2517 29.4614 30.4371C29.4418 30.39 29.4037 30.2963 29.6195 30.4854L30.1158 31.1415L29.535 30.6218C30.0348 31.2812 31.94 33.123 32.3334 33.4078C31.2894 32.3215 31.9292 32.7523 30.3796 31.3327C30.4727 31.3732 30.7921 31.5978 30.4701 31.2519C31.3306 32.1301 32.1649 32.9446 32.9999 33.7741C33.4221 34.1925 33.8409 34.6143 34.2563 35.0392L34.5727 35.366L34.7316 35.5314L34.8084 35.612L34.8319 35.6405C34.8939 35.7162 34.9514 35.7903 35 35.86ZM18.0186 19.0142L18.023 19.0369C17.9965 19.001 17.9901 18.9872 18.0186 19.0142ZM18.6192 19.5813L19.3717 20.5225L18.0491 19.2021L18.023 19.0371C18.1227 19.1708 18.5536 19.6662 18.762 19.8174L18.6192 19.5813ZM20.3018 21.5598C19.6447 20.8524 19.7651 20.8072 20.1778 21.1395C19.5854 20.4792 19.7555 20.8994 19.409 20.3842C19.4832 20.3392 20.2259 21.1409 20.3936 21.3281L20.3018 21.5598ZM25.416 26.5173L25.2573 26.2927L25.7424 26.7531L25.416 26.5173ZM25.2573 26.2927L24.7753 25.8359C24.8336 25.8428 24.891 25.8501 24.9855 25.9089L25.2573 26.2927ZM23.5112 24.6364C23.274 24.4163 23.0394 24.1935 22.8074 23.9681L23.5112 24.6364ZM24.0729 25.1484L24.046 25.1433L23.511 24.6364C23.7122 24.8195 23.8922 24.9838 24.0729 25.1484Z" fill="#000" fill-opacity="1.000000" fill-rule="nonzero"/>
	<path id="Vector" d="M24.9008 26.2637C24.7666 26.2452 24.6163 26.2166 23.9532 25.5198L24.1759 25.5643L24.9008 26.2637ZM28.7314 45.9344L29.3016 45.429L29.2538 45.4949L28.6838 46L28.7314 45.9344ZM31.7789 42.7748C31.8956 42.6744 32.0146 42.5764 32.1357 42.4811C31.9894 42.615 31.8685 42.7167 31.7789 42.7748ZM34.4789 40.8621C35.0527 40.1705 33.53 41.6586 34.6744 40.4598C34.7234 40.3024 34.1049 40.7819 33.5808 41.361C33.6757 41.3684 34.1505 40.8557 33.8636 41.2474C33.4387 41.5551 33.3397 41.7349 33.3903 41.5301C32.7266 42.0988 32.6033 42.1129 32.1353 42.4813C32.9135 41.7694 34.3973 40.1244 35.4406 39.2768C36.0539 38.8478 35.8642 39.2905 36 39.4224C35.9532 39.5325 34.6183 40.8998 34.4789 40.8621ZM33.6179 41.9922C33.332 42.2918 33.2372 42.3762 33.0468 42.5447C33.0495 42.4505 33.3796 42.2271 33.6179 41.9922ZM34.5519 33.9725C34.5151 33.8976 34.0096 33.3436 34.1561 33.4246L34.9343 34.2525C34.743 34.067 34.6534 34.0237 34.5519 33.9725ZM35.2761 34.6154L34.9345 34.2525C35.0241 34.3389 35.1304 34.4506 35.2761 34.6154ZM34.5021 33.946L34.5519 33.9725C34.5593 33.9877 34.5531 33.9897 34.5021 33.946ZM21.6641 23.1349C21.6387 23.1829 21.3033 22.8028 21.1346 22.6121C21.2835 22.7553 21.5004 22.9484 21.6641 23.1349ZM8.35065 9.50555L8.00574 9.21838C8.13477 9.31293 8.20062 9.36157 8.35065 9.50555ZM4.48517 3.62537C4.48297 3.60889 4.4657 3.57971 4.43976 3.54254C4.46674 3.57849 4.48254 3.60651 4.48517 3.62537ZM4.43976 3.54236C4.25439 3.29565 3.54077 2.67554 3.34772 2.3891L3.36395 2.43378L3.1546 2.19666L3.07788 2.10962C3.06622 2.09613 3.05194 2.08124 3.04419 2.07074C3.03967 2.06262 3.03503 2.05463 3.03033 2.04669L3 2C3.02222 2.04309 3.18951 2.20636 3.32587 2.34503L3.77393 2.80206C4.07104 3.10895 4.34106 3.39893 4.43976 3.54236Z" fill="#000" fill-opacity="1.000000" fill-rule="nonzero"/>
</svg>
