<svg width="40.000000" height="74.000000" viewBox="0 0 40 74" fill="none" xmlns="http://www.w3.org/2000/svg" xmlns:xlink="http://www.w3.org/1999/xlink">
	<desc>
			Created with Pixso.
	</desc>
	<defs/>
	<path id="Vector" d="M32.956 3.63397C33.2733 3.29907 33.6006 3.05762 33.4982 3.20038C34.1074 2.48071 34.182 2.52716 34.1651 2.33734C34.5399 1.85895 35.0632 1.47296 34.6211 2.00128L35.7841 0.704834L35.0352 1.42615C35.0923 1.28278 35.3915 0.994751 35.6932 0.700623L35.8056 0.590332L35.8336 0.562927L35.8474 0.549316L35.9083 0.493652L35.968 0.445007L36.0262 0.396973L36.0549 0.373169C36.063 0.365967 36.0911 0.348755 36.1082 0.337341C36.1872 0.286682 36.2676 0.240845 36.3454 0.200378C36.4246 0.158569 36.4823 0.146545 36.5478 0.121094C36.6106 0.101318 36.6685 0.0752563 36.7248 0.0654907C36.8369 0.0418091 36.9312 0.0216064 37 0L36.8647 0.010437C36.7453 0.0176392 36.6273 0.0407104 36.5139 0.0788574C36.4421 0.102112 36.3711 0.118896 36.2746 0.172974C36.2276 0.197388 36.1814 0.223328 36.1361 0.25061L36.0667 0.293701C36.0474 0.305298 36.0289 0.318115 36.0113 0.332092L35.8808 0.440796L35.8724 0.447815L35.8134 0.501465L35.7982 0.51709L35.7676 0.54834L35.7057 0.611145L35.0465 1.28278L35.0845 1.1875C34.8129 1.52203 34.2133 2.09973 33.9968 2.29352C34.0151 2.24689 33.9717 2.24469 34.2031 2.00665C32.5946 3.61194 33.9208 2.591 32.6199 3.95685C32.7007 3.87158 32.8051 3.7691 32.956 3.63397ZM31.3865 4.79303L30.9347 5.46289L29.9695 6.3783C29.9959 6.42615 29.3429 7.14325 29.8377 6.71082C29.9223 6.61395 30.09 6.42316 30.2377 6.28125C30.213 6.4668 29.0309 7.57562 29.3873 7.37964C30.1075 6.61237 30.2389 6.51562 30.6304 5.99115C31.3175 5.31476 31.8308 4.83527 32.1772 4.54523C32.3668 4.33002 32.3463 4.25214 32.5928 3.9845L32.4219 4.16284L32.2743 4.07001C32.0859 4.31061 31.8718 4.50177 31.637 4.74298L32.5942 3.49786C32.1279 3.74066 31.1157 4.89197 30.6384 5.2785C31.2735 4.8429 30.2627 5.75732 31.3865 4.79303ZM32.5928 3.98492L32.6195 3.95746L32.5928 3.98492ZM25.123 59.2173C24.8876 58.9847 24.7905 58.9441 24.7423 58.9245L27.3715 61.5654C27.3208 61.4509 26.6033 60.6503 27.1276 61.14C26.937 60.8779 26.2203 60.2171 26.0782 60.1597L26.3168 60.303C25.6498 59.7561 25.3576 59.2182 25.7885 59.5787L25.7368 59.5281L23.8233 58.0799C24.425 58.7131 24.379 58.4747 25.123 59.2173ZM35.3002 4.37347C34.9709 4.72699 34.9403 4.78064 34.9906 4.75342C35.0982 4.63043 35.2014 4.50372 35.3002 4.37347ZM23.3758 57.7416L22.7766 57.2878C23.007 57.4794 23.2183 57.6385 23.3758 57.7416ZM28.1419 60.2667C28.1469 60.2637 28.1561 60.2659 28.1475 60.2467L27.8739 60.0477L27.8799 60.0538L28.1419 60.2667ZM11.1777 46.0295L11 45.8614C11.0633 45.9238 11.1222 45.9789 11.1777 46.0295ZM35.6823 67L34.4429 65.8966C34.6323 66.0193 34.0587 65.4626 34.3442 65.6705C34.2498 65.5865 33.8191 65.1801 33.9156 65.312L34.1562 65.5497C33.4418 65.0289 33.7771 65.4424 32.681 64.4902C33.2566 65.1869 33.5881 65.4127 33.9685 65.7056L34.2877 65.9995L35.3963 66.8381L35.6823 67ZM19.5843 21.3102L19.5791 21.3308C19.5883 21.3162 19.5879 21.3114 19.5843 21.3102ZM19.5596 21.4137L19.5791 21.3306C19.5322 21.4097 19.3069 21.6667 19.5596 21.4137ZM23.6325 57.8717C23.5983 57.8741 23.5085 57.8287 23.3758 57.7418L23.8233 58.0799L23.6325 57.8717Z" fill="#202020" fill-opacity="1.000000" fill-rule="nonzero"/>
	<path id="Vector" d="M25.5563 58.7023L26.5768 59.6845L27 60C26.5953 59.6384 26.1313 59.2058 25.5563 58.7023ZM13.2176 47.7311C11.1178 45.6827 13.8481 48.121 12.9189 47.1444C12.3263 46.5853 12.0659 46.4387 11.6874 46.0992C13.3885 47.6884 11.278 46.0607 12.9752 47.6818C12.6362 47.5477 11.662 46.601 11.1237 46.0137C10.5812 45.2826 11.7551 46.4965 11.9963 46.5452C11.3111 45.8985 11.4113 46.0329 11.0727 45.806C10.0451 44.7435 8.77881 43.7731 8.28741 43.0175C7.50543 42.2859 7.50848 42.382 7.01971 42C6.82782 42.0179 8.09552 43.1744 8.29474 43.5352C8.24509 43.4685 8.14902 43.3382 8.19684 43.3563L8.83234 44.0291C8.24466 43.3751 9.0238 44.0111 9.36566 44.3333C9.61044 44.5714 10.0974 45.0443 10.002 45.0074L9.61188 44.6661C10.0516 45.1669 10.7316 45.6231 11.1742 46.1737C11.1768 46.2229 10.9768 46.0468 10.9335 46.0331C11.5647 46.516 12.1 47.0543 12.9789 47.8244L12.3947 47.4518C13.1722 47.9938 14.6397 49.5117 15.6184 50.6011C15.5208 50.4695 15.3254 50.2515 15.4701 50.3551C16.1058 50.9351 16.4955 51.4624 16.1579 51.2365C16.8405 51.7418 18.3581 53.5589 19.2831 54.253L23.5498 57.4302C23.3877 57.2982 23.23 57.1609 23.0769 57.0188C22.8284 56.5919 22.6343 56.4216 23.3158 56.9259C22.6829 56.3948 22.8329 56.6886 21.9508 55.8229C22.3411 56.1184 22.533 56.1009 21.7025 55.2571C19.5082 53.265 17.8547 52.142 15.7578 50.3285C15.7556 50.1871 14.1937 48.6796 13.4607 47.9213C13.8223 48.1296 14.4002 48.6591 14.9927 49.2156L13.5543 47.7712L13.2176 47.7311Z" fill="#202020" fill-opacity="1.000000" fill-rule="nonzero"/>
	<path id="Vector" d="M17.7949 52.3107C17.7482 52.2522 17.6968 52.1949 17.6438 52.1363C17.6678 52.1716 17.7124 52.224 17.7949 52.3107ZM14.5909 49.3676C14.601 49.3721 14.6005 49.3674 14.6061 49.367L14.4155 49.191L14.5909 49.3676ZM23.6081 57.3544C23.7545 57.4582 23.8536 57.5441 24 57.6478L23.7126 57.4022C23.6137 57.3237 23.5615 57.2917 23.6081 57.3544ZM23.9081 57.8937L23.8115 57.8562L23.9455 58C23.976 57.999 23.9735 57.9706 23.9081 57.8937ZM5.21732 39.1827L5 39C5.12296 39.118 5.18155 39.1631 5.21732 39.1827Z" fill="#202020" fill-opacity="1.000000" fill-rule="nonzero"/>
	<path id="Vector" d="M10.7527 44.3171C11.4771 45.0147 10.9424 44.2991 11.9581 45.2951L11.6666 44.9965C12.4393 45.6678 13.699 46.9444 14.5682 47.7903C14.4292 47.7353 15.0426 48.3548 14.8772 48.3186C15.4837 48.8845 16.084 49.4454 16.4551 49.6796C16.8 50.0608 17.4152 50.5498 17.8535 51.0342C17.6958 50.8029 18.6486 51.5562 17.4669 50.4897C17.5638 50.5745 17.5153 50.5095 17.6112 50.5927C16.9349 49.8223 16.55 49.625 15.9195 49.0087C15.5816 48.6017 16.5967 49.5518 16.2571 49.1882C15.4356 48.4518 13.8376 46.7223 13.7451 46.9153C13.1631 46.364 13.116 46.2552 12.972 46.0621C11.9134 45.3251 9.68097 42.7018 9.49243 42.9031C9.83044 43.2197 10.3645 43.752 10.8911 44.1862L10.7527 44.3171ZM22.4821 54.9783L22.3443 54.8394L22.4821 54.9783ZM30.9673 64.4267L30.5384 64.2584C28.7989 62.6113 28.2176 61.9695 26.7182 60.5079C26.6217 60.3785 26.8141 60.5455 26.9116 60.6301C25.8464 59.6138 24.3017 58.0446 23.4782 57.3521C23.145 57.0231 22.3084 56.1218 22.6785 56.4105C22.5044 56.262 22.3074 56.0904 22.1245 55.9027C22.1211 55.8088 22.5564 56.3008 22.6049 56.2741C22.4599 56.1256 22.4109 56.0599 22.3622 56.0408C22.6515 56.2466 22.2603 55.6328 23.4208 56.7777C23.7632 57.3258 22.6013 55.9979 22.7482 56.3761C23.1333 56.7556 23.1346 56.6664 23.1821 56.6846C23.6712 57.1698 23.6283 57.1866 23.5749 57.1876C23.8003 57.3363 24.3674 57.994 24.6838 58.1942C25.6494 59.124 24.5422 58.2312 25.1683 58.8428L25.6492 59.0777L26.6648 60.1196C28.2107 61.5536 26.6584 59.7037 28.4452 61.3235C28.1563 61.1636 28.7397 61.9442 29.5144 62.7539C29.0316 62.2885 28.0681 61.4975 27.4863 60.8559C28.2627 61.8036 26.2765 59.6905 26.6201 60.2404C27.1018 60.6127 27.8262 61.3101 28.3582 61.8867L28.1636 61.7176C28.7459 62.3146 29.3229 62.6327 30.0958 63.4861C30.508 63.8829 30.3974 63.8414 30.2973 63.7985C30.6607 64.1196 30.9928 64.3994 30.9673 64.4267ZM30.0529 63.5789L29.5189 63.0309C29.6285 63.1779 29.8327 63.3771 30.0529 63.5789ZM24.2576 11.8682L24.4333 11.715C24.3915 11.7452 24.3261 11.8043 24.2576 11.8682ZM24.9842 60.8669L24.672 60.5526C24.7738 60.6595 24.8779 60.7643 24.9842 60.8669ZM17.4875 54.291L16.9974 53.8654C17.1815 54.0427 17.3356 54.1718 17.4875 54.291ZM20.4783 15.5614L20.462 15.5759L20.3955 15.6537L20.4783 15.5614ZM3.53394 40.04C3.46085 39.9442 3.38382 39.8512 3.3031 39.7614C3.30411 39.7858 3.39172 39.8887 3.53394 40.04ZM17.5779 54.3695L17.5522 54.3399C17.5306 54.3237 17.509 54.3075 17.4875 54.2913L17.5779 54.3695ZM27.7587 64.2816L27.9732 64.4684C27.8753 64.3771 27.8125 64.3241 27.7587 64.2816ZM27.6553 63.5081C27.7313 63.5767 27.8046 63.6413 27.864 63.6893L27.6553 63.5081ZM39 69L38.557 68.5992C38.7681 68.8027 38.8999 68.9187 39 69ZM28.703 64.6917C28.7332 64.7104 28.7637 64.7294 28.7854 64.7403C28.7228 64.6863 28.6877 64.6658 28.703 64.6917ZM27.3229 9.56561L27.2976 9.59131L27.301 9.61584L27.3229 9.56561ZM28.1825 8.37689L28.5467 8C28.4208 8.12134 28.2993 8.24707 28.1825 8.37689ZM3.3468 32.4559C3.47693 32.3624 3.76239 32.1231 3.65884 32.2639C3.8494 32.0274 3.77408 31.9815 3.3468 32.4559ZM26.0031 12.3447C26.0547 12.2623 26.1266 12.1672 26.1991 12.0718C26.0591 12.2439 25.9354 12.3937 26.0031 12.3447ZM26.1991 12.0718L26.4026 11.8185C26.3292 11.9058 26.2605 11.9914 26.1991 12.0718ZM2.02313 35.9379C2.00439 35.9603 1.99896 35.9962 2.00015 36.0457C2.02777 36.0292 2.02191 35.9917 2.02313 35.9379Z" fill="#202020" fill-opacity="1.000000" fill-rule="nonzero"/>
	<path id="Vector" d="M28.5101 8.0675C28.5477 7.97333 30.084 6.3147 28.7258 7.64374C28.6896 7.50385 29.5472 6.74103 29.8838 6.36096C29.6028 6.60052 29.9566 6.17523 29.8464 6.22272C29.6792 6.41101 29.4934 6.64746 29.1932 6.93488C29.0181 7.02966 29.4364 6.55682 29.7995 6.22388C29.3242 6.60608 30.2736 5.60999 29.6313 6.18134C28.3651 7.5094 27.4801 8.45782 26.6963 9.4986C27.4144 8.73816 28.2157 7.88489 28.8574 7.31396L28.6787 7.6449C27.9261 8.26331 27.5532 8.73633 26.8719 9.40344L28.4268 7.92957C29.1995 7.28369 28.7394 7.77271 28.1941 8.34564C28.3326 8.20874 28.4616 8.08887 28.5101 8.0675ZM28.1575 9.75555L28.1852 9.73242C28.2046 9.70752 28.2305 9.67822 28.2412 9.66083L28.1575 9.75555ZM36.9996 70.9941L36.8405 70.8926C36.9622 70.9884 37.0047 71.0129 36.9996 70.9941ZM26.8853 10.2901L26.8863 10.2891C26.886 10.2895 26.8857 10.2898 26.8853 10.2901ZM36.063 69.9935C36.0695 69.9963 36.0763 69.9985 36.0868 70.0044C36.0729 69.9949 36.0705 69.9973 36.063 69.9935ZM33.5565 70.7692C33.5588 70.7789 33.5575 70.7839 33.5679 70.8015C33.6414 70.8661 33.6113 70.8293 33.5565 70.7692ZM36.0533 69.9982C36.0557 69.9959 36.0559 69.9915 36.063 69.9937C36.0581 69.9935 36.05 69.9905 36.0533 69.9982ZM20.0343 54.5416C20.0343 54.5416 20.0709 54.6044 20.1366 54.6954C20.174 54.7185 20.1518 54.6799 20.0343 54.5416ZM23.0286 57.7604L23.0769 57.8256L23.0286 57.7604ZM2.36234 33.2058C2.23907 33.3268 2.11826 33.4503 2 33.5762C2.12448 33.4564 2.24533 33.3329 2.36234 33.2058ZM36.0868 70.0044C36.1273 70.0287 36.1818 70.0665 36.2682 70.1324C36.1734 70.0594 36.1206 70.0236 36.0868 70.0044ZM14.9125 50.1901L15.0164 50.2772L14.9634 50.2166L14.9125 50.1901Z" fill="#202020" fill-opacity="1.000000" fill-rule="nonzero"/>
	<path id="Vector" d="M13.6402 48.9581C13.7039 49.0045 13.7384 49.0206 13.7769 49.0439C13.1685 48.5009 12.1427 47.4114 11.9365 47.367C12.1342 47.5599 13.102 48.6176 12.8818 48.4924C13.3042 48.8729 13.842 49.5208 14.0719 49.7233C13.4557 49.0221 14.0685 49.5844 14.5417 50.0012C14.9236 50.4282 14.4004 49.9898 14.7346 50.3524L15.6816 51.2772L14.8751 50.4533L15.201 50.623L15.1105 50.5474C13.6915 49.2072 15.1063 50.3174 13.6402 48.9581ZM13.7769 49.0439C13.8683 49.1251 13.9501 49.1949 14.0176 49.2452C13.8858 49.1168 13.8272 49.0742 13.7769 49.0439ZM8.25708 43.294L8 43.0626L8.25708 43.294ZM27.195 60.1735C27.1964 60.2203 27.9548 61.0693 28 60.9954L27.297 60.2582L27.195 60.1735ZM10.1535 27.8439C10.0622 27.9315 9.97141 28.0203 9.88223 28.1108L9.83923 28.1723C9.90295 28.1266 10.0695 27.9388 10.1535 27.8439ZM12.6046 48.2726C12.7614 48.4105 12.8366 48.4665 12.8816 48.4924C12.7812 48.4019 12.6853 48.3217 12.6046 48.2726ZM10.3461 27.9349C10.4775 27.8381 10.6718 27.6965 10.7186 27.6953C10.953 27.4631 11.0858 27.2685 11.3127 27.0204C11.0526 27.2964 10.7359 27.5998 10.3461 27.9349ZM11.3308 27L11.3127 27.0204L11.3308 27Z" fill="#202020" fill-opacity="1.000000" fill-rule="nonzero"/>
	<path id="Vector" d="M26.723 59.7211L26.4924 59.5178L26.622 59.6141L26.0768 59.0364C25.995 58.9642 25.9143 58.8907 25.835 58.8157C25.8736 58.8498 25.9083 58.8713 25.9323 58.8823L25.759 58.6958C25.2473 58.3127 24.0846 57.2495 23.7254 56.9664C23.2723 56.57 22.7353 56.067 22.4128 55.7375C22.7148 56.0399 23.13 56.427 23.0441 56.2726C22.4646 55.6254 22.2695 55.2247 21.1171 54.2588L21.7418 54.8761L20.2054 53.6187C19.7704 53.0756 20.9722 54.2462 21.2154 54.3912C20.059 53.3751 19.3301 52.299 18.7081 51.9133C18.7062 51.774 18.7022 51.5405 17.9802 50.8375C18.4169 51.428 17.5006 50.4622 17.8392 50.9662C17.5524 50.7604 17.0662 50.1494 16.9735 50.16L17.069 50.1978C15.9575 48.8766 15.3858 48.6504 14.8069 48.188C13.3163 46.7644 12.6898 46.053 11.4856 44.8807C11.4852 44.7881 11.2881 44.3391 10.8047 43.8689C10.5196 43.7103 9.41125 42.668 9.22043 42.6384C10.0422 43.5209 9.98776 43.2661 10.5186 43.7557C10.8605 44.2628 10.4738 43.8768 11.0056 44.505C10.5685 44.006 8.83853 42.4409 8.40311 41.8517L8.59573 42.021C7.82236 41.1578 7.8645 40.8046 6.37552 39.5656L5.67319 38.9661C5.71271 38.9894 5.72577 38.9836 5.74963 38.9932C5.21948 38.4585 5.05011 38.241 4.85687 38.0195C4.806 37.9609 4.75397 37.9034 4.70074 37.8469C4.62869 37.771 4.55511 37.6966 4.48001 37.6236C4.30704 37.4547 4.07626 37.2409 3.71405 36.9174C3.82584 37.0172 3.77707 36.9513 3.88864 37.0513C3.74481 36.89 3.59558 36.7336 3.44113 36.5823C3.72589 36.2971 3.98154 36.0126 4.23178 35.7303L4.59961 35.3154L4.90784 34.9737C5.28528 34.7321 4.90021 35.1124 4.75674 35.3512C5.96597 34.2021 7.12784 32.8203 7.78082 32.0096L8.58289 31.2915C8.15826 31.7682 7.67606 32.3871 7.85468 32.2903C8.26062 31.8607 8.14783 31.9097 8.75385 31.3335C8.69547 31.4766 8.48657 31.7634 8.26163 32.0939C9.56036 30.9473 8.38382 31.6706 9.37393 30.9489C9.76022 30.567 9.92157 30.2825 9.91193 30.1893L10.6781 29.5631C10.6897 29.4207 11.548 28.5609 12.103 27.9902C12.1436 27.8936 11.5777 28.3718 11.389 28.6097C11.3794 28.5165 11.9561 27.8955 12.3438 27.5126C12.6238 27.5095 14.8548 24.9801 14.5608 25.5956C16.2523 23.827 18.6778 21.3915 19.766 20.1962C20.1822 19.8589 20.9543 19.0964 20.5578 19.6191C21.9563 18.232 22.535 17.3752 23.9604 16.0355C24.0924 15.9387 23.3343 16.6594 23.4298 16.6562C24.2812 15.701 25.1383 15.0765 26.5085 13.6429C26.2743 13.8804 26.2338 13.9772 26.2153 14.0242C26.1677 14.0261 26.744 13.4047 27.086 13.0212C27.3025 12.83 26.8301 13.3081 26.9624 13.2117C29.7477 10.5801 31.6303 8.33752 34.34 5.65997C33.5662 6.4245 33.3659 6.80524 33.3954 6.85083L34.1534 6.10162C34.399 5.76672 34.9671 5.20319 35.4076 4.69775C35.483 4.65692 35.7326 4.44598 35.5187 4.70154C36.3122 4.0061 36.8536 3.38538 37.4317 2.71722L37.8766 2.2052L37.9334 2.13989L37.9673 2.08752C37.9906 2.05341 38.0175 2.02173 38.0291 1.98071C38.0658 1.90723 38.0847 1.82452 38.0917 1.74146C38.0977 1.65778 38.0895 1.57117 38.0632 1.48889C38.0474 1.45044 38.0379 1.39923 38.0182 1.37927C38.0104 1.36548 38.0038 1.35101 37.9984 1.33606L37.9942 1.32391L37.9771 1.30377L37.943 1.26337L37.8742 1.18146L37.8655 1.17114L37.8643 1.16992C37.9121 1.22253 37.877 1.18408 37.8874 1.19562L37.8856 1.19446L37.882 1.19183L37.868 1.18146L37.8401 1.16016L37.7861 1.11432C37.7643 1.10437 37.7429 1.09357 37.7219 1.08209C37.6767 1.05103 37.644 1.0506 37.6109 1.03308C37.6031 1.02252 37.5595 1.01831 37.5192 1.01416L37.3996 1L37.5349 1.00159C37.5533 1.00256 37.587 1.00043 37.5991 1.00439C37.6286 1.01251 37.6589 1.01746 37.6896 1.0191L37.756 1.04541C37.8069 1.05798 37.8521 1.08966 37.9027 1.1225L37.9223 1.13446L37.9326 1.14044L37.9374 1.14343L37.9388 1.14423L37.9394 1.14465C37.9312 1.13544 37.959 1.16577 37.9209 1.1239L37.9237 1.12689L37.9697 1.17389C38.0009 1.20605 38.032 1.23822 38.0632 1.27032C38.1186 1.34821 38.1973 1.49146 38.2151 1.64368C38.2272 1.79749 38.1987 1.95178 38.1322 2.09131C38.0899 2.15662 38.0582 2.21417 38.0024 2.27991L37.8485 2.46045L37.531 2.83295L38.1439 2.35223L37.2533 3.4035C37.8834 2.86798 38.2825 2.28253 38.4053 2.2074C38.3921 2.25623 38.3538 2.31 38.3098 2.36798L38.2422 2.45685L38.1764 2.52997C38.0913 2.62537 38.0227 2.70905 38.0369 2.73236C38.1842 2.59625 38.2896 2.50964 38.3889 2.37695C38.4398 2.32019 38.469 2.25842 38.4955 2.20105C38.5223 2.14386 38.5488 2.09229 38.5576 2.03607L38.5916 1.87555L38.5956 1.7066C38.601 1.64783 38.5855 1.58606 38.5763 1.51794C38.5705 1.44922 38.547 1.37769 38.5187 1.29803C38.6166 1.49841 38.6534 1.76935 38.5735 2.04407C38.5342 2.17975 38.4712 2.32019 38.3728 2.44049C38.3504 2.47015 38.3243 2.50665 38.3028 2.53113L38.2384 2.60345L38.1064 2.75006C37.7262 3.16815 37.3402 3.58099 36.9487 3.98859L34.7498 6.26477C34.577 6.45819 34.873 6.07471 34.891 6.02808C34.4191 6.50598 34.089 6.74628 33.5134 7.36621C33.2006 7.79547 33.8417 7.12756 34.1437 6.84027C34.155 6.93231 34.0031 7.07697 33.6814 7.41162C33.5407 7.41382 31.8489 9.18201 31.34 9.51947C29.602 11.2881 31.8007 9.41827 30.0527 11.0936L29.4603 11.5244C28.5244 12.5752 27.2889 13.9097 26.1432 15.0133L26.3784 14.7747C26.5031 14.5838 26.2203 14.8229 26.0871 14.9207C25.2003 15.7337 24.5301 16.5899 23.9341 17.0242C23.0457 18.0734 21.4863 19.7452 20.4178 20.8925C20.0132 21.0865 21.7799 19.3641 22.1772 18.84L21.1655 19.8454C21.7897 19.2228 21.9972 18.938 22.3129 18.5065C21.4062 19.3681 21.206 19.7484 20.3913 20.6097C20.4284 20.5165 20.2986 20.6108 19.9099 20.9951L19.8691 21.1733C19.8563 21.1747 19.8081 21.2122 19.6839 21.3267L18.2297 22.8545C18.5768 22.5686 18.6527 22.6135 19.0402 22.2303C18.8616 22.3271 19.1816 21.9937 19.5695 21.6108C19.2759 21.9923 19.9849 21.2744 20.0142 21.3196C19.2366 22.0877 18.2931 23.043 17.8036 23.5667L17.5745 23.6672C16.8192 24.385 16.0741 25.1952 15.5541 25.6745L15.6783 25.4839C14.7719 26.3448 13.9398 27.2527 13.0901 27.9724C12.3721 28.8302 11.437 29.8793 10.8669 30.5969C10.6036 31.0222 8.44223 32.7983 7.66663 33.799C7.5976 33.8497 8.21707 33.1292 8.49017 32.7961C7.88416 33.3724 7.51514 33.9424 7.24243 34.041C8.60275 32.7483 7.10156 34.0432 7.67667 33.4232C7.05499 34.0436 6.41345 34.7117 6.13873 35.046C7.1467 34.0438 5.90033 35.5208 6.88382 34.4693C6.54187 34.8777 6.12491 35.3411 5.677 35.8122L5.24255 36.266C5.13516 36.3742 5.02466 36.4794 4.91125 36.5814L4.96924 36.6461C4.8942 36.6461 4.91647 36.7025 5.07861 36.8943C5.08243 36.8983 5.29935 37.0057 5.29553 37.0019C5.39566 37.111 5.27646 37.0246 5.1709 36.9543C5.06735 36.8857 4.97766 36.8334 5.21106 37.084C5.29593 37.1453 5.33606 37.1696 5.50684 37.3286C5.65881 37.4691 5.80859 37.6118 5.95615 37.7569L6.89948 38.7007C7.51996 39.3235 8.08624 39.8725 8.37219 39.9857C9.00089 40.7447 6.97775 38.738 7.94455 39.863C7.27173 39.3183 6.50034 38.4113 6.2132 38.2966C6.83627 38.8665 6.35907 38.5854 6.74435 38.9697L7.46497 39.5799L7.3205 39.4301C8.52188 40.4618 10.2581 42.2626 11.7025 43.6693C13.0008 44.7864 13.96 45.4908 15.4042 46.9433C14.9244 46.5676 16.5627 48.1902 15.5547 47.374C16.1826 48.086 16.8996 48.6928 16.9504 48.6687C16.3715 48.0682 16.7543 48.4501 16.2744 47.937C16.6562 48.2258 17.4298 48.998 17.7188 49.3438C17.5743 49.1938 17.6218 49.2582 17.5751 49.2401C18.2511 49.9717 17.959 49.5315 18.4885 50.0195C18.5869 50.2435 19.599 51.1556 20.0325 51.6511L20.7992 52.2324C20.3682 51.9228 21.4255 52.8973 21.4771 53.0577C22.0041 53.4974 22.4845 53.8277 23.2068 54.5767C22.8707 54.3048 23.8358 55.2901 23.788 55.3628C24.9946 56.6756 26.0469 57.2778 27.1578 58.553C27.1067 58.53 26.8251 58.3295 27.16 58.692C27.4526 58.949 27.9282 59.4353 28.23 59.7217L28.2188 59.7142L28.236 59.7277C28.3835 59.8677 28.4821 59.9506 28.5001 59.9395C29.0644 60.3821 29.3851 60.5803 30.429 61.517C30.4251 61.3758 29.5594 60.5696 29.174 60.2311L28.7917 59.9873C28.596 59.5857 27.8772 59.1155 27.684 58.854C28.4026 59.3241 30.0892 61.0582 31.1943 62.0059C30.6629 61.2869 29.312 59.9158 28.1084 58.7442L28.5918 59.3064L27.9669 58.6886L28.4969 59.361C27.9192 58.7615 27.3896 58.2735 26.8598 57.7392C27.4863 58.3583 27.6344 58.695 27.2957 58.3289C26.667 57.5698 26.5255 57.6523 25.9972 57.1196C26.2873 57.4202 26.6716 57.8041 26.3835 57.5967C25.4166 56.472 25.0789 56.2441 24.213 55.2082C24.216 55.4403 23.0086 54.0353 22.771 53.9872L23.2045 54.4366L22.1949 53.5729C21.4217 52.6187 23.0584 54.2401 21.8054 52.8639C20.5994 51.6435 20.5097 51.7953 19.5435 50.8538C19.9273 51.0989 20.7451 51.7945 21.5156 52.563L21.0808 52.066C21.3679 52.2725 22.4281 53.3414 22.9572 53.8747C21.9976 53.0778 23.3455 54.308 23.6848 54.767C23.8247 54.7743 23.2486 54.2233 23.9696 54.8335C23.3425 54.2136 23.2456 54.1283 22.4744 53.3131C24.1651 55.0515 24.2513 54.6212 25.6978 56.1674C24.9756 55.5098 25.8437 56.5019 25.8948 56.6165C26.2285 56.932 26.9052 57.5724 27.1936 57.8256L27.0431 57.4866C27.9593 58.3141 28.0609 58.8169 29.1693 59.7217C29.3578 59.795 28.3004 58.8207 28.4933 58.9898C29.9351 60.3021 30.2787 60.9491 31.4337 62.2386C31.5318 62.2788 31.5782 62.2045 32.0576 62.5804C31.8655 62.5035 32.1537 62.848 31.6288 62.4103C32.0148 62.8416 32.543 63.2822 32.9271 63.6191C32.1068 62.738 33.3589 63.884 33.5506 64.0062C33.9832 64.455 33.3585 63.9291 33.0698 63.6755C33.4095 64.0434 33.747 64.546 34.0346 64.661C33.9882 64.7349 32.8831 63.8334 32.2089 63.1954L32.6429 63.6456C32.3064 63.3729 32.2578 63.3074 31.8268 62.8607C32.2113 63.3354 32.117 63.3444 31.9735 63.2874C31.9257 63.2227 32.0193 63.3044 31.9739 63.2422C31.6346 62.8746 31.3458 62.621 31.396 62.7346C30.9958 62.4984 31.8372 63.2733 32.0371 63.5522L32.5946 64.0735L34.6982 65.6445C35.5159 66.3959 35.8075 66.8094 36.3597 67.4356L36.5917 67.5276C37.2696 68.2149 37.894 68.8785 37.3667 68.5303C37.3653 68.4827 37.2693 68.3984 37.1239 68.2474C37.0946 68.2372 37.0536 68.21 37.0049 68.1723C36.9864 68.1621 36.9746 68.1583 36.9587 68.1508L38.2328 69.3363C36.8857 68.2 38.0439 69.4 37.7118 69.3157C38.0077 69.5912 38.3035 69.8668 38.5994 70.1423L38.7092 70.2445L38.8522 70.4048L38.8916 70.4496C38.8956 70.4531 38.9078 70.4704 38.9195 70.4875L38.9516 70.5357C38.9925 70.5985 39.026 70.6559 39.0521 70.7032C39.1049 70.7991 39.1288 70.8547 39.1259 70.8517C39.0671 70.7077 38.9943 70.5697 38.9086 70.4397C38.9021 70.4303 38.8954 70.421 38.8888 70.4116L38.854 70.3622C38.8373 70.3373 38.8206 70.3123 38.8041 70.2873L38.7997 70.2802L38.7991 70.2794L38.7413 70.2158L38.7401 70.214L38.7377 70.2108L38.729 70.1995L38.7166 70.1812C38.7039 70.161 38.7072 70.1568 38.722 70.1648C38.7294 70.1688 38.7397 70.1758 38.7525 70.1851L38.7625 70.1927L38.7633 70.1933L38.8233 70.259L38.8246 70.2603L38.8271 70.2626L38.8322 70.2674L38.8542 70.2891C38.8864 70.3218 38.9229 70.3584 38.9678 70.4086C39.0517 70.5236 39.1378 70.6644 39.205 70.8065C39.2502 70.9268 39.2927 71.0515 39.3206 71.1682C39.3405 71.2867 39.3531 71.3979 39.3611 71.4888C39.3445 71.546 39.3321 71.6044 39.324 71.6635C39.3078 71.7521 39.2977 71.8694 39.2516 72.0023C39.2313 72.069 39.208 72.1407 39.1815 72.2157C39.148 72.2878 39.1095 72.3633 39.0674 72.4408C39.028 72.5204 38.9756 72.5946 38.9153 72.6677L38.8243 72.7789L38.7766 72.8342L38.7706 72.841L38.7 72.9044L38.6925 72.9107L38.6775 72.9235L38.5557 73.0281C38.4718 73.0894 38.3459 73.1657 38.2344 73.2225L38.1473 73.2651L38.0736 73.291L37.9243 73.3386C37.825 73.3723 37.7235 73.3878 37.6217 73.3978C37.4199 73.4281 37.2212 73.4044 37.0406 73.3767C36.862 73.3317 36.6971 73.2847 36.5676 73.2078L36.6549 73.2289C36.5349 73.1625 36.3987 73.0974 36.2811 72.9912C36.2209 72.9418 36.1559 72.8858 36.0995 72.8333L36.0043 72.7346L35.5837 72.3115C35.2976 72.0295 35.0068 71.7521 34.7116 71.4794C34.7116 71.5254 33.9445 70.9895 33.562 70.7457C34.4104 71.6393 33.8636 71.1521 33.8907 71.2645C33.804 71.1708 33.6423 71.0084 33.6144 70.9985C33.4693 70.8939 33.7578 71.1933 33.7596 71.2405C34.2404 71.6858 34.7223 72.1434 35.1435 72.5247C35.3321 72.6972 35.525 72.8652 35.7218 73.0284L35.8743 73.1512C35.964 73.2221 36.0529 73.2855 36.1378 73.3405C36.3114 73.445 36.4837 73.5084 36.6236 73.5512C36.4282 73.446 36.2431 73.3526 36.0932 73.2267C36.0188 73.1693 35.9323 73.0992 35.8743 73.0496L35.7718 72.9645C35.6337 72.8519 35.4894 72.7366 35.3445 72.5637C35.4846 72.6692 35.6202 72.7803 35.7513 72.8966C35.7862 72.9279 35.8217 72.9594 35.8577 72.9918L35.9223 73.05L36.0453 73.152C36.2082 73.2926 36.4065 73.398 36.617 73.492C37.0754 73.6712 37.5812 73.6927 38.0534 73.553C38.1158 73.5345 38.1782 73.5145 38.2404 73.4926C38.3163 73.4592 38.3929 73.4213 38.4678 73.3796C38.5428 73.338 38.6166 73.2926 38.6877 73.2446C38.7098 73.2297 38.7162 73.2243 38.7208 73.2205L38.7395 73.2056L38.777 73.1757L38.8526 73.1149L38.8621 73.1072L38.8669 73.1034L38.9558 73.0233L38.9602 73.0185L38.9953 72.9797L39.0648 72.9001C39.1565 72.7918 39.2459 72.6804 39.3118 72.5486L39.3792 72.4478C39.4205 72.3868 39.4703 72.3033 39.507 72.2127C39.5468 72.1232 39.5829 72.0306 39.6082 71.9605C39.6317 71.8902 39.6403 71.8414 39.6403 71.8414L39.6501 71.7375C39.6535 71.6714 39.666 71.5766 39.6585 71.4639C39.6494 71.3352 39.6331 71.2072 39.6098 71.0804C39.571 70.9406 39.5331 70.8052 39.4667 70.6519C39.4039 70.5228 39.3316 70.3986 39.2504 70.2802L39.2106 70.2239C39.195 70.202 39.1972 70.2074 39.1896 70.1979L39.0726 70.0672L38.9855 69.9717L38.9787 69.9656L38.9654 69.9532L38.9409 69.9309L38.9012 69.8943C38.8791 69.874 38.8663 69.8626 38.8663 69.8626C38.9108 69.899 38.9474 69.9268 38.9793 69.9495L38.9911 69.9576L38.9967 69.9616L38.9971 69.962L39.079 70.0516L39.0798 70.0522L39.081 70.0535L39.0838 70.0556L39.1039 70.0718L39.1408 70.1L39.2086 70.1476L39.2433 70.1724C39.259 70.1863 39.2949 70.2323 39.3218 70.2668C39.38 70.3431 39.445 70.4371 39.514 70.5614L39.5652 70.6594L39.601 70.7483C39.625 70.811 39.6499 70.8813 39.674 70.9601C39.756 71.2694 39.8439 71.7527 39.5995 72.3846C39.6405 72.3119 39.7374 72.1155 39.7755 71.8258C39.7928 71.6802 39.8114 71.5137 39.7881 71.332C39.7798 71.2377 39.767 71.1438 39.7498 71.0507C39.7256 70.9554 39.6967 70.8574 39.6631 70.7589C39.6236 70.5937 39.4099 70.2341 39.3003 70.1022L39.2054 69.9937L39.091 69.867L39.0645 69.8419L39.0116 69.7917C38.8748 69.6627 38.7417 69.5299 38.6124 69.3934L38.2797 69.2166C38.4212 69.2714 37.3611 68.2024 38.179 68.8976C38.4934 69.1796 38.8078 69.4614 39.1223 69.7433L39.1494 69.7676L39.1627 69.7795L39.1693 69.7855L39.1709 69.7869L39.2708 69.8965L39.2738 69.8997L39.3627 69.9971L39.4021 70.0403C39.4031 70.0391 39.4312 70.0784 39.4442 70.0964L39.4912 70.164C39.551 70.2524 39.5989 70.3337 39.6363 70.4011C39.7111 70.5377 39.7432 70.6162 39.7398 70.6107C39.744 70.6168 39.7125 70.5266 39.6489 70.3915C39.6126 70.3149 39.5732 70.2397 39.5307 70.1664L39.4215 69.9879L39.3358 69.8433L39.2307 69.7275L39.2293 69.7257L39.2269 69.7224L39.2221 69.7158L39.2133 69.7039C39.2078 69.6965 39.2028 69.6899 39.199 69.6843C39.1912 69.6735 39.1863 69.6675 39.1863 69.6675L39.2321 69.7114L39.2375 69.7168L39.3481 69.8377L39.3593 69.8508L39.3846 69.8807C39.4029 69.902 39.4232 69.9263 39.4456 69.9525L39.4627 69.9728L39.4713 69.9831C39.4774 69.99 39.4831 69.9973 39.4882 70.005C39.6074 70.1702 39.7103 70.3464 39.7956 70.5311C39.8425 70.6447 39.8727 70.7449 39.9064 70.8588L39.9509 71.0276C39.9605 71.0848 39.9684 71.1427 39.9754 71.2007C40.0496 71.6671 39.9437 72.1384 39.8203 72.4679C39.7492 72.6296 39.6774 72.7607 39.626 72.8503C39.576 72.9414 39.5375 72.9857 39.5375 72.9857C39.5375 72.9857 39.545 72.9739 39.5584 72.9537C39.572 72.9338 39.5893 72.9037 39.6078 72.8661C39.6457 72.7916 39.6938 72.6906 39.7364 72.5882C39.7768 72.4958 39.8082 72.3998 39.8303 72.3015L39.8612 72.1681C39.8371 72.2577 39.8104 72.3444 39.782 72.4274C39.7516 72.5095 39.7115 72.5862 39.6744 72.6611C39.6363 72.7358 39.5967 72.8071 39.5566 72.8751C39.5149 72.9416 39.4667 73.001 39.4211 73.0599C39.375 73.1183 39.3284 73.1737 39.2821 73.2263L39.2473 73.2651L39.2299 73.2841L39.2257 73.2888L39.2235 73.2912L39.1081 73.3948L39.1041 73.3982L39.0734 73.4237C39.0327 73.4568 38.9943 73.4879 38.9586 73.5173C38.7553 73.6674 38.4465 73.8311 38.2894 73.8735C38.1174 73.9255 37.9671 73.9694 37.8336 73.9815C37.5657 74.0106 37.3777 74.0032 37.2308 73.9745C37.0841 73.9482 36.9782 73.9279 36.8766 73.8857C36.7633 73.8427 36.651 73.7972 36.5397 73.7492C36.4123 73.6809 36.2415 73.6006 36.0349 73.4486C35.9802 73.406 35.9264 73.3624 35.8735 73.3177L35.7862 73.242L35.7413 73.2014L35.7202 73.1807L35.543 73.0092C35.3683 72.8449 35.1913 72.6833 35.0118 72.5242C34.3898 72.0923 33.8116 71.5383 32.7994 70.4883C33.5692 71.2109 32.9423 70.4991 33.2783 70.725C32.5536 69.9279 32.2187 69.7487 31.7859 69.3915C31.6406 69.1492 31.5427 68.9719 32.2177 69.6562C32.4066 69.6383 31.3022 68.7828 31.3466 68.6154C29.0831 66.3746 29.1912 67.1589 26.6821 64.4036L26.8241 64.4592C25.0927 62.8467 24.1761 61.8348 22.5886 60.3259L21.4747 59.003C21.765 59.2578 22.5824 59.907 22.2916 59.5137C22.776 60.2144 23.4463 60.8029 24.028 61.4981C24.1221 61.5347 23.8819 61.2549 23.7858 61.1244C24.1717 61.5095 24.3164 61.7513 24.8465 62.2397C24.8447 62.1927 24.3145 61.6121 24.7482 62.0156L25.3753 62.7734C26.3377 63.6647 25.9962 63.0665 27.0575 64.1821C26.7936 64.0406 26.291 63.7159 25.8535 63.3105C26.3395 63.8191 25.1513 62.6862 25.5706 63.1744C26.3796 63.7992 26.6555 64.2145 27.6682 65.1078C27.5433 65.0088 27.4962 64.9968 27.2552 64.7687L28.6047 66.184C28.3141 65.7909 29.8087 67.2645 29.7577 67.0587C28.3115 65.5587 28.6988 66.0369 27.0579 64.3201C27.5526 64.7761 28.2473 65.3076 28.6087 65.5212C28.6203 65.5387 28.6422 65.5654 28.6926 65.6182C29.0273 65.7969 28.7857 65.5158 28.9259 65.3865C28.0605 64.7184 27.6256 64.1293 26.663 63.2836C26.4184 63.1878 27.0948 63.9 27.565 64.3285L26.7166 63.5839L26.908 63.7062L24.9041 61.6678C25.2926 62.0455 25.466 62.1324 25.699 62.2993C25.4401 62.0367 25.2003 61.7599 24.9463 61.465C24.9336 61.5927 24.8471 61.6059 24.5931 61.3513C23.3048 60.0387 22.6426 59.2554 22.2416 58.6972L22.0847 58.5514C22.231 58.8405 21.0276 57.7605 20.5492 57.4324C20.6441 57.3782 19.9215 56.7202 19.5834 56.3087C19.2972 56.1953 19.4457 56.5782 19.8336 57.1025C20.7948 57.9008 20.4073 57.5146 20.9359 57.8181L22.4258 59.1498L22.0408 58.9037C22.7172 59.6353 23.4864 60.2194 23.3453 60.2562C22.9125 59.9446 22.3322 59.2968 21.9021 58.9882L22.337 59.4847C21.4247 58.753 21.9986 58.9813 20.9391 58.0508C21.2307 58.4906 20.8432 57.9663 20.3648 57.5922C20.6554 57.9854 22.1443 59.3159 21.7155 59.146C21.14 58.6864 20.1196 57.2618 19.3047 56.7073L19.3528 56.7262C18.3561 55.7034 17.9262 55.423 17.5006 55.0923C17.1111 54.6229 16.4569 54.09 15.985 53.6306L16.0339 53.6047L15.3589 52.9657C15.7411 53.2097 16.1299 53.7346 16.7062 54.2872L16.7054 54.1482C17.2757 54.8785 17.8369 55.1861 18.4033 55.6293C17.606 54.9576 16.3392 53.5464 16.0299 53.5095L15.6442 52.9872L15.4008 52.7958C15.1139 52.4061 15.5435 52.6683 16.218 53.3065C16.3147 53.4376 16.3633 53.5029 16.3141 53.483C16.651 53.7557 16.9857 53.9807 17.7095 54.7313L17.2779 54.3759C18.1942 55.2953 19.0584 56.1001 19.4423 56.3453C18.1414 54.9962 16.8398 53.692 15.5879 52.4555C15.0621 52.2459 14.537 51.8999 14.203 51.8586C13.3382 51.0536 12.1805 49.9445 11.5064 49.1689L11.6022 49.2065C11.2969 48.8775 10.9749 48.5642 10.6373 48.2679C10.3006 47.8573 10.9715 48.4462 10.7309 48.1659L9.48169 47.0232C9.62195 47.031 10.6319 48.033 11.1163 48.5045C11.0202 48.4203 10.8266 48.2499 10.8763 48.3171C11.4071 48.8978 12.559 49.8176 12.707 50.1548C12.9954 50.408 12.0842 49.6769 12.9994 50.5953C13.5796 51.2427 13.8659 51.3564 13.959 51.3919C14.0066 51.3646 13.0434 50.3811 13.4276 50.6727C12.9434 50.2014 12.7042 50.0598 12.1271 49.4152C12.6069 49.8825 13.3285 50.4479 13.5234 50.7568C14.5329 51.6204 14.5741 51.3118 14.1408 50.8622C14.191 51.0218 12.3585 49.2279 13.519 50.5226C12.8945 50.0435 11.8827 49.0402 11.1143 48.3651L11.1613 48.3839L10.2446 47.5089C10.3909 47.6149 10.6795 47.8683 10.7256 47.84L9.37994 46.7037C10.1483 47.3324 8.99225 46.226 8.70309 45.8795C8.51227 45.804 7.9841 45.363 8.41794 45.8588C8.90094 46.421 8.75446 46.1312 9.23587 46.6005L8.46991 46.0198L8.42075 45.9534L7.93994 45.6234C7.02509 44.7048 8.51407 45.8516 7.2627 44.753L7.31528 45.0056C5.96515 43.6358 4.3259 41.783 3.31473 40.8718C3.63821 41.0789 3.84769 41.1036 3.53665 40.6861C3.93518 41.1162 4.77438 41.9423 5.3804 42.525C5.47733 42.6565 4.51593 41.9037 3.88965 41.2387C4.03833 41.7144 5.6192 42.7577 5.52811 42.9995C7.12082 44.6968 6.92096 44.0621 8.22409 45.551C8.31821 45.496 8.65894 45.9102 8.79861 45.9178C8.50583 45.3849 6.92114 44.0623 6.05426 43.1169C6.14877 43.2 6.33902 43.3667 6.38837 43.3874C5.76028 42.7202 5.47491 42.4702 4.99313 42.0469L5.04147 42.1124C4.17499 41.3973 4.60641 41.5696 4.17218 41.0734C3.98013 40.9047 3.35245 40.2386 3.40201 40.3969L2.62723 39.4868L2.58447 39.6102C2.10269 39.1414 2.05353 38.983 1.5701 38.6043L1.47537 38.6585L2.63406 39.8604C2.00916 39.2886 2.39526 39.7651 1.71979 39.1257C2.12918 39.451 2.00916 39.3113 1.78644 39.0727C1.67505 38.9531 1.53799 38.8093 1.42862 38.6864C1.37405 38.6246 1.32608 38.5685 1.29196 38.5234C1.27722 38.5041 1.26343 38.484 1.25064 38.4633C1.23734 38.4468 1.22668 38.4284 1.21915 38.4087C1.10495 38.3067 0.99057 38.2047 0.883209 38.098L0.659271 37.863L0.546295 37.7441C0.508575 37.7043 0.484497 37.6585 0.452789 37.6155L0.535645 37.726L0.637787 37.827L0.5495 37.7063L0.486694 37.59C0.447174 37.5159 0.403015 37.4527 0.380524 37.3828L0.299866 37.1917C0.276978 37.1294 0.262543 37.0658 0.242676 37.0027C0.197327 36.877 0.185272 36.7391 0.167023 36.575C0.169647 36.4927 0.174438 36.4033 0.183289 36.304C0.197327 36.2058 0.227631 36.1005 0.25531 35.9817L0.170044 36.2789C0.154175 36.3782 0.140533 36.4756 0.12851 36.572C0.127106 36.6682 0.131317 36.7634 0.135315 36.8583C0.143341 36.9525 0.165833 37.0435 0.180878 37.1364C0.225616 37.3176 0.285828 37.4987 0.387756 37.6658C0.428101 37.7543 0.497528 37.8334 0.564362 37.9164L0.773438 38.1714L1.16196 38.5446C1.24942 38.6243 1.3345 38.6984 1.43204 38.7812L1.2063 38.5892C1.1774 38.5659 1.08609 38.4804 1.01144 38.4115L0.761597 38.1792C0.586426 37.9796 0.376923 37.7708 0.249084 37.527C0.12851 37.2784 0.0369873 37.0103 0.0129089 36.7507C-0.0480957 36.2275 0.122681 35.7988 0.199921 35.6155C0.308502 35.3442 0.533661 35.1401 0.715057 34.9337C0.893036 34.7415 1.11758 34.4962 1.19827 34.4362C1.42221 34.2365 1.64716 34.0456 1.89038 33.8127C1.4469 34.2827 1.58374 34.2593 1.59518 34.3396C1.6008 34.3799 1.57513 34.446 1.42984 34.6127L1.01425 35.0703L0.64621 35.465C0.586426 35.543 0.538666 35.6327 0.479065 35.7238C0.437134 35.8234 0.385559 35.9271 0.34964 36.0431C0.345428 35.9694 0.466431 35.674 0.553711 35.5825C0.37793 35.7341 0.170441 36.1812 0.222595 36.7045C0.239655 36.965 0.340393 37.227 0.46402 37.4604C0.597046 37.6885 0.801331 37.8744 0.961487 38.0457L1.32669 38.3665C1.27731 38.2684 1.39551 38.3533 1.41217 38.3434C1.42242 38.3404 1.43427 38.3404 1.39111 38.2862C1.34537 38.2294 1.25485 38.1284 1.09451 37.9569L0.87558 37.684C0.940613 37.7782 0.915131 37.7748 0.824829 37.6961C0.802551 37.6762 0.774658 37.6525 0.746155 37.623L0.663666 37.5154C0.634796 37.4746 0.598267 37.432 0.569153 37.3808C0.543488 37.3272 0.515594 37.27 0.486481 37.2098C0.383942 36.9646 0.305481 36.6321 0.364288 36.2857C0.421661 35.9397 0.574188 35.601 0.849487 35.3562L0.839874 35.4851C0.833252 35.5468 0.83847 35.6092 0.840881 35.6102C0.834045 35.607 0.919739 35.5187 1.04675 35.386L1.50427 34.9092L2.00055 34.4305L1.91446 34.5269C2.35812 34.2368 2.9437 33.4763 3.66187 32.8515C4.10617 32.327 6.00549 30.5078 5.07962 31.1825C5.75787 30.6554 6.19492 30.0355 6.83887 29.3647L5.96838 30.1335C6.85654 29.0846 6.63077 29.4167 7.27515 28.5111C7.38589 28.4651 7.58575 28.319 7.46176 28.5095C8.77414 27.2188 10.6729 25.3998 11.3429 24.5434C12.2688 23.6344 12.5519 23.6286 13.7895 22.2919C14.0449 22.0052 13.4674 22.3933 14.3565 21.5778C14.423 21.5294 13.6203 22.4819 14.5634 21.5269C15.1514 20.7637 16.2069 19.9948 17.011 19.0408C17.5095 18.6107 18.3057 17.7957 18.209 18.034C17.4547 18.7505 16.425 19.8022 16.3002 19.9944C16.3588 19.8504 15.7333 20.4741 16.244 19.901C15.0741 20.9548 15.5642 20.6639 14.5263 21.6208C14.486 21.7178 15.1201 21.1887 15.3091 20.95C15.4115 21.0425 13.3829 22.9563 14.3899 22.1895C15.4679 21.1361 15.5814 20.6183 16.6113 19.8004C16.2992 20.2283 15.6677 20.7552 15.2985 21.3257L16.0995 20.6088L16.5818 19.9898L16.5633 20.0369C17.9981 18.7902 17.7069 18.7013 18.8616 17.4578C18.0964 18.0828 18.8531 17.1293 18.287 17.6088C19.0795 16.7972 19.6835 16.2235 19.7869 16.3152C18.3609 17.8893 19.8049 16.5028 18.5104 17.9816C18.7739 17.7896 18.3222 18.4527 19.1626 17.64C20.0275 16.6427 18.8016 17.8365 19.7016 16.8792C19.7654 16.8331 19.8314 16.7851 19.8131 16.8315C20.191 16.3554 20.3317 16.3532 20.7944 15.7823L20.6911 15.924C21.3902 15.3478 21.3236 15.1624 21.939 14.6799C21.6463 14.8265 22.2491 14.2535 22.5453 13.8696C21.9597 14.3965 21.5533 14.5932 20.4577 15.6923C20.3822 15.8813 20.4944 15.8331 20.0698 16.3098L20.7788 15.5922C20.6337 15.7548 20.5309 15.8865 20.4007 16.0385L19.6833 16.6915C20.5141 15.7853 20.0529 16.1212 20.3638 15.6942C21.1867 14.9271 21.0063 15.0251 21.5267 14.5453C21.5604 14.6791 23.2089 13.1611 24.1817 12.303L23.7521 12.7228C23.138 13.438 24.2814 12.3367 24.3292 12.3351L24.7733 11.8106C24.6876 11.9072 24.5807 12.0524 24.8 11.8584C25.4427 11.1895 25.3209 11.1445 25.9622 10.4763C26.058 10.4733 25.5728 11.0948 26.0058 10.7133C26.1872 10.6138 26.7437 10.2749 27.5758 9.36725C27.6202 9.28839 27.8365 9.05371 28.0912 8.78558C28.0573 8.82422 28.0131 8.87164 28.0002 8.89117L28.6307 8.36566C28.2158 8.93481 27.5941 9.32068 27.1767 9.89282L27.2098 10.0093C26.8235 10.3934 26.3311 10.9468 26.1288 11.2251C26.7308 10.6528 26.8352 10.5099 27.4787 9.84021C27.6184 9.79578 27.1895 10.2916 27.1277 10.3632L27.1831 10.2229C26.3349 10.9412 26.0803 11.461 25.088 12.4184C24.9372 12.562 25.0217 12.467 25.0404 12.4202C24.3212 13.2788 23.4442 13.9511 22.7704 14.8107L22.9817 14.5223L20.5861 17.2531L20.6072 17.2903C20.7384 17.1949 20.3529 17.5756 20.1348 17.7684L20.1354 17.767L18.8182 19.2603C19.0004 19.1226 19.1744 18.9745 19.3396 18.8171C19.4658 18.6234 20.435 17.7172 20.2279 17.7678C20.7097 17.3829 21.3428 16.6204 21.6916 16.3327C21.0597 16.8604 22.0231 15.8572 22.0819 15.7134C22.3269 15.5681 22.9404 14.8538 22.9305 14.9952C23.0626 14.8984 22.6008 15.2352 22.3932 15.5203C21.8455 16.1867 23.5633 14.4667 22.8627 15.2787C23.7818 14.274 25.0743 13.0309 26.009 11.9818L25.4243 12.5082C25.8768 12.0784 26.9096 11.0235 27.02 10.9775C26.6987 11.3118 26.3134 11.6927 25.9059 12.1236C25.9602 12.2182 26.9168 11.1191 27.0097 11.1185L28.1082 9.78223L27.5688 10.3096C27.8606 9.92963 29.0347 8.87305 29.8747 8.05988C29.5013 8.63397 28.6257 9.30493 27.7942 10.2123C27.199 10.8805 28.2844 9.92188 27.7089 10.5418C27.8885 10.4109 28.2772 10.0195 28.4445 9.80237L28.6996 9.58582C28.2575 10.2097 27.0366 11.3805 26.3178 12.2531C26.3781 12.1736 26.4286 12.1025 26.4398 12.0698C25.7887 12.6445 25.1654 13.2662 24.5905 13.886C24.937 13.6001 25.0426 13.4559 25.2132 13.2651C25.2587 13.2654 24.7026 13.8374 24.5138 14.0753C25.099 13.5483 24.6728 14.0264 25.041 13.6913C24.6998 14.074 24.399 14.3597 23.9465 14.7896C23.6819 14.9827 24.088 14.553 23.9951 14.5538C23.5669 15.0338 23.248 15.1313 22.6339 15.8466C23.541 14.9846 22.5003 16.1783 22.2256 16.5126L22.3775 16.3682C22.1501 16.701 21.9134 16.9405 21.6695 17.0845C22.0107 16.7018 22.3775 16.3682 22.2192 16.4162C21.9816 16.6568 21.7448 16.8965 21.4895 17.1827L21.697 16.8981L20.5159 18.0933C20.3756 18.329 20.1286 18.7099 20.0349 18.9449C19.705 19.1854 19.3432 19.6171 19.0887 19.9034L19.1947 19.7579C18.6272 20.239 17.4914 21.4353 17.4356 21.5759C17.0214 21.911 19.819 18.6675 17.2022 21.3442C16.1929 22.3471 16.71 22.1047 16.181 22.7238C16.181 22.7238 16.1995 22.6776 16.1333 22.7254C15.6814 23.1543 15.6892 23.2501 15.3478 23.6326C15.6336 23.3901 16.0187 23.0099 16.1224 22.8674C16.0468 23.0563 15.197 23.7762 14.9034 24.1571C15.2545 23.6332 14.0154 24.9719 14.3112 24.5882C13.3753 25.4044 12.5054 26.4066 12.1089 26.9296C11.4017 27.4116 11.0776 27.9826 10.0584 28.8926C10.2105 28.7482 10.464 28.4637 10.6839 28.269C11.1655 27.6515 9.64404 29.228 10.429 28.3212C10.2585 28.5125 10.4535 28.371 10.6287 28.1752C10.9466 27.8439 11.2225 27.5087 11.1087 27.5583L10.2577 28.2798L10.5161 27.9896L9.23285 29.0928C9.21439 29.139 9.34442 29.0452 9.41064 28.9966C7.98428 30.3375 6.44455 31.9612 5.21646 33.1577C5.20142 33.3694 4.474 34.1339 3.64261 34.9823L3.00909 35.6271L2.69547 35.9476L2.57706 36.0707L2.50983 36.1443C2.42215 36.2393 2.33887 36.3303 2.32181 36.4375C2.30014 36.5413 2.32724 36.6387 2.375 36.7023C2.30515 36.6365 2.24313 36.568 2.18695 36.5303C2.12936 36.4925 2.07178 36.4867 2.03125 36.5533C2.02563 36.4646 2.02283 36.3164 2.11331 36.17C2.15726 36.0969 2.22028 36.0247 2.28751 35.9451C2.32242 35.905 2.35672 35.8674 2.39865 35.8247C2.45825 35.7642 2.52026 35.704 2.58447 35.6443C2.69586 35.597 3.34583 35.0233 2.98703 35.4518C4.33835 34.0655 2.71411 35.55 3.04584 35.0743L2.66898 35.4626L2.33325 35.8176C2.19077 35.9861 2.03564 36.1198 1.96783 36.2929C1.93683 36.3746 1.92371 36.462 1.92929 36.5491C1.93491 36.6364 1.95911 36.7213 2.00034 36.7985C2.07599 36.9491 2.21765 37.0396 2.33084 37.1299L2.47855 37.2441L2.71051 37.4443L3.17065 37.8507L3.17145 37.8981L3.94122 38.5745C3.36148 37.9727 3.50314 37.8901 4.22797 38.688L4.12943 38.6011C4.51813 39.0806 5.48053 39.9257 6.15399 40.609L6.68076 41.0029C7.35519 41.6873 7.2637 41.8365 7.41278 42.1284C8.47311 43.1978 9.18951 43.7121 10.0076 44.4072C10.298 44.8004 11.8865 46.402 10.9743 45.6235C11.9848 46.5344 12.0731 46.0604 13.5699 47.8577L13.0899 47.4822C14.6814 49.041 17.0373 51.1788 17.7121 51.9551C16.946 51.5577 19.5007 54.1002 19.6024 54.5572C19.5651 54.4387 20.1727 55.015 20.2811 55.0791C20.3901 55.2291 20.5865 55.4646 20.8534 55.656C20.2729 55.0082 21.4729 55.9015 20.2219 54.8032C20.9413 55.2733 21.8058 55.9409 23.1063 57.2441L23.0118 57.299L22.0006 56.2499C22.05 56.4083 21.522 55.876 21.2782 55.6847C23.1595 57.6356 20.8514 55.6086 22.8272 57.5507C23.0656 57.691 22.9225 57.5886 23.4527 58.077C23.2099 57.841 23.1151 57.8492 23.5014 58.2346L23.9331 58.5446C24.495 59.35 22.7154 57.4969 23.2137 58.1655C22.3958 57.4703 21.0495 56.1961 21.199 56.5342C22.404 57.7994 22.4931 57.4639 23.7461 58.7938L23.8434 58.9713C24.327 59.3964 24.4665 59.4042 24.7558 59.6125C24.7552 59.658 24.8538 59.7903 25.1401 60.0875C26.0062 60.7562 26.5359 61.2449 27.3511 61.8457C25.3821 60.0474 25.8083 60.1689 23.787 58.3018C24.1239 58.5745 25.52 59.9156 25.7078 59.8967L25.6145 59.953C26.2878 60.5441 26.9604 61.1353 27.7325 61.9505L27.204 61.5096C28.3119 62.5061 28.8459 63.3649 29.8035 64.0685C29.5159 63.7699 29.2747 63.5349 29.0817 63.3659C29.6586 63.8723 30.333 64.557 30.9112 65.1558L32.2568 66.2465C32.2091 66.2728 32.9813 67.0439 32.5484 66.7318C33.3716 67.6621 33.8979 67.9631 34.4249 68.4494C35.2466 69.4232 33.6089 67.7097 33.4173 67.7247C34.6241 68.9915 35.9714 70.267 36.7394 70.8955C36.5012 70.6292 36.3912 70.4941 36.4221 70.4889C36.4362 70.5497 36.9427 71.0403 37.2206 71.3178L37.461 71.4597L37.471 71.4712L37.4734 71.4742L37.4478 71.4997L37.4474 71.4997L37.446 71.5007L37.4417 71.5047C37.4379 71.5089 37.4344 71.5134 37.4313 71.5182C37.4309 71.5192 37.4331 71.5143 37.4315 71.517C37.4273 71.5254 37.4331 71.5121 37.4301 71.5197C37.4271 71.5302 37.4221 71.54 37.4153 71.5487C37.413 71.5507 37.4034 71.5638 37.3998 71.5629C37.3968 71.5629 37.3937 71.5635 37.391 71.5646L37.3839 71.5674C37.3781 71.5645 37.3853 71.5788 37.3667 71.5616C37.3757 71.5712 37.3781 71.5728 37.3779 71.5714L37.3809 71.5718L37.3856 71.5738C37.3892 71.574 37.3871 71.5834 37.3926 71.5802C37.4028 71.573 37.4024 71.5865 37.4124 71.5754C37.4237 71.5798 37.4363 71.5505 37.4405 71.5505C37.4407 71.5446 37.4407 71.5411 37.4417 71.5408C37.4393 71.5408 37.4498 71.5411 37.4375 71.5425C37.4163 71.546 37.3967 71.5561 37.3817 71.5714L37.3709 71.584C37.3697 71.5862 37.3586 71.5995 37.3721 71.5873L37.4716 71.5065L37.522 71.4672L37.5224 71.467L37.4493 71.5326L37.4492 71.5323L37.449 71.532L37.4488 71.5316L37.4485 71.5306L37.4485 71.5296C37.4493 71.5288 37.4526 71.5302 37.4588 71.5326C37.459 71.5306 37.474 71.5367 37.4857 71.5362C37.4937 71.5433 37.4851 71.5432 37.4933 71.5527C37.4963 71.5601 37.4875 71.5607 37.4917 71.5722L37.4921 71.5742L37.4923 71.5752L37.4925 71.5756C37.523 71.5479 37.4239 71.6371 37.5613 71.5139L37.5605 71.5145L37.5581 71.5167L37.5381 71.5342L37.4983 71.5692L37.4177 71.6392L37.4086 71.6469L37.4112 71.6422L37.4174 71.6332C37.4237 71.6254 37.4315 71.6189 37.4403 71.6141C37.4491 71.6093 37.4588 71.6063 37.4688 71.6053C37.4563 71.6114 37.4425 71.6144 37.4286 71.614C37.4147 71.6136 37.4011 71.6099 37.3889 71.6031C37.3831 71.6011 37.3751 71.6015 37.3733 71.5922C37.3721 71.5908 37.3707 71.5897 37.369 71.589C37.3674 71.5883 37.3657 71.5878 37.3639 71.5878C37.3653 71.5919 37.353 71.5796 37.341 71.5674L37.3075 71.534L37.0538 71.283C36.8945 71.1276 36.7567 70.9975 36.6485 70.9084C36.8687 71.114 37.0846 71.324 37.2961 71.5383L37.3498 71.5933C37.3575 71.5991 37.3575 71.5966 37.3607 71.5993C37.3657 71.6019 37.3661 71.6111 37.3699 71.6155C37.3755 71.6163 37.3793 71.6194 37.3823 71.6254C37.3837 71.635 37.3912 71.6318 37.3952 71.6356C37.4002 71.6371 37.403 71.6483 37.409 71.6489C37.4205 71.6465 37.4313 71.668 37.4442 71.6639C37.4516 71.666 37.4586 71.6696 37.4648 71.6742C37.4712 71.6722 37.4781 71.6722 37.4845 71.674C37.5162 71.6776 37.4736 71.6852 37.4736 71.7126L37.4724 71.7228C37.4718 71.727 37.4865 71.7141 37.4929 71.7104L37.5429 71.6758L37.5932 71.6409L37.6187 71.6232L37.6314 71.6143L37.6378 71.6099L37.6394 71.6087L37.58 71.662L37.5802 71.6619L37.5808 71.6611C37.5866 71.654 37.5939 71.6482 37.6021 71.6439C37.6129 71.6401 37.6223 71.6348 37.6252 71.6254C37.6629 71.6019 37.6715 71.5525 37.6797 71.4995C37.6866 71.4756 37.6705 71.4346 37.6721 71.4234C37.6725 71.4276 37.6753 71.4312 37.6799 71.4332C37.6827 71.4344 37.6857 71.4351 37.6888 71.4352L37.6942 71.4352C37.6966 71.4354 37.6862 71.4244 37.6825 71.4196L37.6199 71.3433L37.5878 71.3045L37.5718 71.2845L37.5676 71.2798L37.6165 71.3337L37.6153 71.3326L37.6131 71.3302L37.6039 71.3212C37.3807 71.1015 37.1544 70.8849 36.9252 70.6714C36.9238 70.6238 37.3091 70.9164 36.9228 70.5317C36.0084 69.6596 36.5885 70.3987 36.2544 70.1744C36.6146 70.5021 36.8676 70.7527 37.0729 70.979C37.1754 71.0921 37.2661 71.1991 37.3526 71.3067L37.4797 71.4686L37.4799 71.4691C37.5363 71.5312 37.403 71.3848 37.4171 71.3999L37.4174 71.4007L37.4182 71.4021L37.42 71.4049L37.4235 71.4103L37.4303 71.4214L37.4437 71.4434L37.4706 71.488C37.4865 71.5159 37.5116 71.5523 37.5202 71.5742C37.5298 71.5832 37.4708 71.5354 37.4211 71.4959L37.3829 71.4658L37.3653 71.4519L37.3611 71.4485L37.3601 71.4477L37.3595 71.4473L37.3593 71.4471L37.3591 71.4469L37.4273 71.5219L37.4251 71.5204L37.4168 71.5153L37.3819 71.4929C37.3745 71.4449 36.9423 71.0134 36.8343 70.867L36.6423 70.8361C36.7827 70.7987 36.1573 70.0433 35.5789 69.5353C36.0652 70.1461 35.9196 69.9951 35.968 70.2445C35.1055 69.5791 35.1976 69.2924 34.2371 68.5406C34.33 68.5763 35.1013 69.2996 34.4753 68.6345C33.9429 68.0982 33.9449 68.238 33.563 67.9028C34.0424 68.2313 33.9934 68.0733 34.5204 68.4219C35.4828 69.3586 34.9039 68.8046 35.8677 69.697L35.1421 68.8522C35.9614 69.6417 35.8141 69.3508 35.9088 69.3885C34.6055 67.9448 34.7572 68.4687 33.8895 67.5687C33.4109 67.1946 34.7098 68.4042 33.9874 67.793C33.1687 66.9587 33.7498 67.6531 32.7866 66.7607L32.9764 66.8816C32.7358 66.5551 32.4001 66.3296 32.0632 66.0103C31.6785 65.673 32.2157 66.6732 30.7213 65.1996C30.8148 65.2516 30.8548 65.2652 30.8634 65.2567L32.9393 66.0806C31.2729 64.4283 29.6268 62.756 28.0015 61.064C27.7117 60.5347 29.3492 62.2027 29.2972 62.0419L30.0693 62.8581C29.973 62.8649 28.3835 61.216 29.0118 62.0212C30.4565 63.3817 31.0358 64.0747 32.4776 65.2947C32.1848 64.7616 30.6972 63.5703 29.9231 62.6143C30.2798 62.9843 30.6011 63.2767 30.9176 63.5562L28.3524 60.9078L28.1142 60.73C28.7261 61.3646 29.1483 61.8045 29.1996 61.8641C28.3811 61.0302 27.6142 60.403 27.4697 60.4369L27.614 60.5863L27.2863 60.3166C27.0991 60.1176 26.9114 59.9191 26.723 59.7211ZM34.1345 6.12732C34.0926 6.18585 34.0629 6.23529 34.046 6.27673C34.0635 6.23346 34.0211 6.25897 34.1345 6.12732ZM33.8313 69.6957L35.4648 71.3668L36.2716 72.1935L36.4717 72.3978C36.4994 72.429 36.5506 72.472 36.5981 72.5113C36.6473 72.5488 36.6906 72.5948 36.7462 72.623C36.9573 72.7579 37.2057 72.8181 37.4516 72.8243C37.2302 72.8032 37.0165 72.7469 36.8445 72.6309C36.7534 72.5818 36.68 72.5127 36.6104 72.444C36.5313 72.373 36.5006 72.3204 36.4468 72.2603L35.9209 71.6212C35.612 71.2407 35.3967 70.9612 35.3359 70.8461C35.2749 70.7311 35.3684 70.7804 35.6771 71.0574C35.8314 71.1959 36.0395 71.3914 36.3087 71.6515C36.4428 71.7822 36.5927 71.9286 36.7599 72.0912C36.8018 72.136 36.8433 72.1661 36.8855 72.2001L36.9493 72.2517L37.0244 72.29L37.1006 72.3302L37.1855 72.3547C37.2144 72.3625 37.2427 72.3735 37.2726 72.3795L37.3649 72.3878C37.3659 72.4003 37.6237 72.3641 37.6205 72.3551C37.4945 72.3693 37.3404 72.3766 37.1855 72.3177C37.1048 72.2996 37.033 72.2485 36.9571 72.2053L36.8532 72.1187C36.8169 72.0884 36.7765 72.0432 36.7376 72.0055C36.4037 71.6705 36.0656 71.3396 35.7234 71.0128C35.2144 70.6145 34.7022 70.22 34.1871 69.8295L33.4316 69.262C33.2341 69.1165 33.1089 69.0281 33.1087 69.0378C33.2538 69.2801 33.5913 69.508 33.9298 69.874L33.8313 69.6957ZM33.3405 68.6217C32.7334 67.9799 32.8368 68.1605 32.7045 68.0988L33.3766 68.7394C33.3021 68.648 33.2732 68.5946 33.3405 68.6217ZM32.7069 68.1709C32.7766 68.2416 32.835 68.303 32.8617 68.3391L32.7069 68.1709ZM32.24 64.9233L32.3064 64.9851L31.8633 64.5291C31.9177 64.5942 32.0279 64.7122 32.24 64.9233ZM33.4259 66.272L33.6393 66.3559L33.2237 65.9283C33.2419 66.0046 33.2662 66.0792 33.4259 66.272ZM37.3035 70.5421C37.3871 70.5869 37.5043 70.6738 37.6348 70.7786L37.8387 70.9459L37.8911 70.9897L37.9173 71.0117L37.9304 71.0228L37.9308 71.0232C37.9219 71.0132 37.9514 71.0455 37.9109 71.0013L37.9117 71.0021L37.9131 71.0037L37.9161 71.0068L37.9221 71.0128L38.0173 71.1105C38.0568 71.1467 38.0628 71.166 38.0767 71.1865C38.0897 71.2081 38.1078 71.2246 38.1218 71.2487C38.1417 71.3041 38.1782 71.3529 38.1892 71.4017C38.2023 71.4497 38.2207 71.4916 38.2338 71.5242C38.2422 71.5569 38.2541 71.58 38.2691 71.5892C38.2815 71.6232 38.2982 71.5876 38.3118 71.5091L38.3084 71.3641C38.3016 71.3091 38.2813 71.2501 38.2677 71.1871C38.2538 71.1559 38.2368 71.127 38.2219 71.0961C38.2055 71.0656 38.1967 71.0342 38.166 71.0019L38.0873 70.9045L38.0674 70.8799C38.0624 70.8749 38.0573 70.8698 38.0524 70.8646L38.0074 70.8192L37.6362 70.4427C37.6143 70.4467 37.5509 70.4078 37.454 70.3347C37.697 70.5981 37.8447 70.7887 37.6868 70.7409C37.1528 69.9731 37.0159 70.2441 36.3401 69.5122C36.0523 69.3512 37.0641 70.3546 37.3035 70.5421ZM16.8188 20.8078C16.8464 20.7957 16.9358 20.747 17.0573 20.6755L16.6036 21.2136C15.6964 22.0757 14.8568 22.6545 14.1679 23.5575C13.7662 23.9014 13.5073 24.042 13.2677 24.184C13.4543 24.0057 13.6303 23.8404 13.7804 23.7061C15.8596 21.3212 15.1191 22.7152 16.8188 20.8078ZM6.453 30.7863C6.53906 30.6899 6.55734 30.6428 6.55734 30.6428C4.73727 32.775 3.15118 34.4438 2.07538 35.4992C2.34769 35.358 3.35745 34.4554 3.83987 34.0298L3.51016 34.5042L3.19995 34.6966L2.56622 35.4592C2.81204 35.314 3.36771 34.7418 3.7843 34.4042C3.80295 34.3575 4.92831 33.069 5.22128 32.6876L4.20209 33.5978C4.48422 33.3587 5.75125 32.067 6.24149 31.5427C6.21439 31.4958 5.27966 32.3102 5.24979 32.4999C5.09045 32.5489 6.10141 31.5441 5.40268 32.1206C6.10202 31.3096 7.35721 30.1609 7.94415 29.6324L8.13138 29.6301C8.78134 29.0563 8.43481 29.1075 9.2178 28.4366C8.33908 29.3448 9.47086 28.3868 8.7645 29.1017C9.02716 28.9103 8.86685 29.1942 9.5748 28.4778C10.0474 27.7654 10.405 27.8061 10.8595 27.1403C11.2735 26.8052 10.5288 27.6151 11.2847 26.8971C12.0685 25.9913 11.9734 25.9941 11.9369 25.8532C11.1187 26.6158 11.1617 26.853 10.4912 27.4754L11.6288 26.0431C11.3696 26.2576 11.1912 26.4301 11.0497 26.5827C11.3001 26.3166 11.4978 26.0756 11.6552 25.8574L11.9078 25.5167C11.1758 26.2419 10.5242 26.8845 10.3715 26.9608L10.429 26.8178C10.1305 27.0355 9.73956 27.4854 9.5766 27.7098C8.92664 28.3647 8.33286 29.0737 8.13379 29.1601L8.3429 28.8741C7.54944 29.6859 7.46518 29.7803 6.453 30.7863ZM21.5854 57.5964C21.2562 56.9549 20.8582 56.282 18.5541 54.0496L18.7442 54.2166C17.6965 52.9788 16.3759 52.1266 15.0906 50.6313C15.8276 51.2445 15.7857 51.2136 16.6701 51.8204L15.8987 51.1435C16.1862 51.2578 15.4169 50.5825 14.8877 50.0492L15.4608 50.4146C15.7514 50.7614 16.5703 51.5957 16.5693 51.5483C16.3763 51.3792 17.5352 52.7643 18.2585 53.4233C18.2566 53.2832 16.7638 51.8573 17.5313 52.3937C16.9073 51.8687 16.905 51.7288 16.2782 51.1548C16.9036 51.6814 16.516 51.2026 16.9969 51.5796L15.9852 50.6222C15.9826 50.5735 17.4756 51.9995 16.7513 51.111C16.3191 50.7542 15.3077 49.6594 15.214 49.715L15.2126 49.6679C14.4884 48.9167 14.781 49.4496 13.9143 48.5045C13.8659 48.5312 14.0134 48.7292 14.3469 49.045C14.6389 49.3018 14.7326 49.2926 15.3101 49.8452C15.506 50.1558 14.6333 49.1589 14.928 49.6482C15.0743 49.8912 16.4678 51.0923 15.9418 50.7909L15.2188 50.0411C15.1249 50.0966 14.5939 49.561 14.5484 49.6359C14.0688 49.2145 13.7267 48.7073 13.1997 48.3135C12.9597 48.1713 13.2043 48.593 12.4797 47.7958C11.9939 47.0933 10.2135 45.3688 9.53909 44.7305L8.91479 44.2057C8.91782 44.3002 10.0225 45.2928 9.59247 44.9847L8.6756 44.1101L8.77374 44.1504C8.48215 43.8482 8.14664 43.5767 7.85828 43.3232C8.1922 43.5475 8.81848 44.2123 8.7677 44.0071C8.36115 43.5729 8.32584 43.4802 7.92249 43.1097C8.01279 43.1884 8.09344 43.2531 8.09366 43.2316C7.27313 42.3499 7.18143 42.4991 6.9418 42.3118C5.9812 41.5601 7.71338 43.2646 7.52316 43.2356L4.97244 40.7887C5.21204 40.9761 5.45285 41.1654 5.40408 41.0532C4.82495 40.4068 5.45065 40.9793 4.58334 40.1257C4.53821 40.2927 3.4295 39.1121 2.75766 38.5679C2.51627 38.2414 2.46649 38.1744 3.09119 38.792C3.09219 38.6555 2.21826 37.8408 1.94153 37.5537C1.90521 37.5244 1.86963 37.4943 1.83478 37.4633C1.75311 37.3907 1.64514 37.3077 1.55304 37.2089C1.5069 37.1594 1.45773 37.1116 1.42804 37.0544C1.3941 37.0001 1.35721 36.9497 1.34094 36.8975C1.37186 37.0624 1.3851 37.1118 1.31244 37.0403C1.29678 37.0214 1.27112 36.9967 1.25183 36.9592C1.2338 36.9214 1.2131 36.8742 1.18964 36.8174C1.16534 36.7609 1.16113 36.6899 1.14508 36.611C1.13828 36.5213 1.14178 36.431 1.15552 36.3421L1.14828 36.2943C1.0881 36.5015 1.07886 36.7501 1.16336 36.986C1.2424 37.2268 1.43225 37.4138 1.61163 37.6122L2.15826 38.186L2.66135 38.7014C2.98322 39.024 3.27097 39.2954 3.48209 39.4576L3.29065 39.3358C4.25607 40.413 5.64609 41.4272 5.98804 42.0264C5.89252 42.0345 6.1821 42.2427 6.08939 42.2991L6.90268 42.9906L6.71185 42.8685L8.01279 44.1265L7.96484 44.1066L9.60349 45.3992C9.6376 45.3682 9.60791 45.319 9.83548 45.4968C10.0149 45.6469 10.1856 45.8069 10.3468 45.9761C10.348 45.9769 10.348 45.9769 10.3482 45.9767L10.3478 45.9772C10.6532 46.2993 10.8163 46.5543 11.1852 46.9584L9.98315 45.7811C9.83044 45.7397 9.87439 45.8975 10.4208 46.5168C10.1794 46.2811 10.0361 46.2248 10.3259 46.5251C10.3729 46.5431 11.1436 47.2668 10.9022 46.9391C12.0567 48.0452 13.7475 50.0126 15.575 51.6176C14.2745 50.452 16.4923 52.6758 15.096 51.3347C15.9661 52.3746 16.0082 52.067 16.9719 53.051C17.0233 53.1653 16.4439 52.5184 16.1566 52.3579C17.7458 54.0062 19.0414 54.9375 20.5865 56.5248L20.5845 56.6603C20.8915 56.9469 21.2317 57.2654 21.5854 57.5964ZM24.7813 60.5978L25.7263 61.4888L25.638 61.3969L26.6028 62.244C26.0712 61.6627 25.7792 61.222 26.5964 61.9629C26.5019 61.9258 26.6955 62.1876 26.4069 61.9342C26.8893 62.4954 27.9984 63.6763 27.8032 63.2751C26.6979 62.3738 27.7017 62.9101 26.8374 62.1975C27.33 62.5513 27.7197 62.9994 28.1509 63.3671C27.6768 63.0093 28.1192 63.5918 28.7188 64.241C29.0084 64.4952 29.731 65.2443 30.2118 65.667C30.1141 65.4431 30.5453 65.7987 29.8227 65.0493C30.2333 65.409 30.6201 65.7947 30.9806 66.2041C30.7833 66.03 30.4496 65.7144 30.449 65.7598C30.6936 66.1192 31.0512 66.4692 31.2222 66.6885L31.6998 67.1423C31.6597 67.0912 31.6273 67.0447 31.6081 67.0075L32.1836 67.4671C31.462 66.8103 31.8936 67.1204 31.9398 67.0922C31.8465 67.1479 32.3754 67.5438 32.6144 67.7762L32.1792 67.1874C32.4675 67.3948 32.9997 68.1153 32.9482 67.9088C31.8886 66.7943 31.4556 66.3915 30.4454 65.4353L30.7843 65.8939C29.6277 64.8319 30.2032 65.1078 28.951 63.8709C28.3757 63.4109 27.0687 62.0099 26.9307 62.0958C27.1215 62.2173 26.2528 61.2246 25.774 60.8501C25.1983 60.4823 23.7537 59.0759 24.1402 59.5524C24.5255 59.9375 25.1022 60.3979 25.346 60.7728L24.5748 60.0496L25.0109 60.5935C24.7767 60.3214 24.7466 60.4 24.7813 60.5978ZM36.1573 67.3553L36.1298 67.3253L36.1615 67.3575L36.1573 67.3553Z" fill="#202020" fill-opacity="1.000000" fill-rule="nonzero"/>
	<path id="Vector" d="M27.2302 9.8642C27.4178 9.62646 27.9485 9.10443 27.7909 9.15332C27.8636 9.20026 26.8596 10.1022 27.2302 9.8642ZM27.9181 9.29346C27.9409 9.24219 27.8924 9.24518 28.1266 9.00702L27.4913 9.672L27.9181 9.29346ZM28.9861 9.04187C29.2772 8.66235 29.4644 8.4248 29.995 7.90295C30.3384 7.85089 29.1737 8.80469 29.0711 9.17883C30.0497 8.22839 30.2188 7.80536 31 7C30.5461 7.33221 28.9045 8.90228 28.9861 9.04187ZM28.7414 9.65399L29.2453 9.08502L29.1838 9.12933L28.6796 9.69873L28.7414 9.65399ZM15.853 20.0032C15.7591 20.006 15.4694 20.3849 15.3011 20.5752C15.45 20.4323 15.6661 20.2404 15.853 20.0032ZM22.4742 19.4541L26.524 15.3201L22.4742 19.4541ZM2.56628 33.873C3.62256 32.7319 4.03232 32.1657 5.13239 31.0268C3.56787 32.4066 3.33051 33.1134 2 34.2549L2.56628 33.873ZM2.59085 33.1231C2.85873 33.0267 1.84326 34.0708 2.06558 33.9742C2.78543 33.2132 2.32892 33.5479 3.00854 32.8835L2.59085 33.1231ZM8.9888 29.562L8.7001 29.9398L8.95215 29.6553L8.9888 29.562ZM2.49576 40.0718L2.35486 39.9697L2.87894 40.5475L2.49576 40.0718ZM2.21381 39.8679L2.35486 39.9697L2.21381 39.8679ZM8.74451 30.1738L9.25827 29.697L9.46375 29.413L8.74451 30.1738ZM3.91226 34.0829L4.32794 33.6127C4.24533 33.7057 3.60394 34.2762 3.91226 34.0829ZM5.82529 43.4712L6.39734 43.977L6.35077 43.9136L5.78052 43.4094L5.82529 43.4712ZM2.21082 37.1868C2.18289 37.1146 2.23282 37.1458 2.29562 37.1993L2.39233 37.2864L2.52271 37.4081C2.55975 37.441 2.57758 37.4535 2.56293 37.4287C2.54791 37.4059 2.53171 37.3839 2.51437 37.3628C2.49338 37.3345 2.43988 37.2729 2.42957 37.2531L2.33725 37.171C2.16049 37.0225 2.20526 37.1265 2.21082 37.1868ZM8.13443 43.9982C8.20715 44.0708 8.28601 44.1451 8.36725 44.2115L8.13443 43.9982ZM8.13443 43.9982C7.89963 43.7635 7.69 43.5038 7.50989 43.3619C7.77283 43.6844 7.89072 43.7796 8.13443 43.9982ZM10.84 46.6708L10.6318 46.4532C10.8818 46.6381 10.7738 46.5399 10.5535 46.372C10.3257 46.1487 10.3175 46.1824 10.2765 46.1699L10.1121 46.0568L10.3209 46.2178C10.6698 46.5676 10.8864 46.7776 10.84 46.6708ZM19.7228 57.7654C18.961 56.9551 18.7694 56.7401 18.8635 56.7316C18.1334 55.9694 18.1611 56.1733 17.6905 55.7439C18.5449 56.5778 18.6939 56.7739 19.7228 57.7654ZM17.6903 55.7439L17.3915 55.4535C17.4883 55.5531 17.588 55.65 17.6903 55.7439ZM8.25488 42.9705L8.82196 43.3805L8.63174 43.2122L8.25488 42.9705ZM20.8641 58.957C20.7215 58.8079 20.4855 58.5767 20.3882 58.4444C20.2949 58.4537 21.0064 59.1054 20.8641 58.957ZM18.8344 54.9247C18.7859 54.8137 18.2641 54.3298 18.0712 54.113C18.3585 54.4131 18.5035 54.7465 18.8344 54.9247ZM23.331 61C23.1885 60.851 22.9987 60.5926 23.1382 60.6472C22.9012 60.4608 22.5242 60.2645 23.331 61ZM20.2622 56.3699L20.1673 56.2402L19.5964 55.7354L20.2622 56.3699ZM19.0983 53.6973C18.4322 53.1537 19.9111 54.8038 18.8171 53.8139C20.0977 55.2211 18.8005 53.6245 19.7825 54.6255C19.2222 54.0244 19.0147 53.6628 19.0983 53.6973Z" fill="#202020" fill-opacity="1.000000" fill-rule="nonzero"/>
	<path id="Vector" d="M19.9167 55.0387C20 55.1265 20.0918 55.2203 20.1934 55.3202L19.9167 55.0387ZM28.2531 63.9837C28.1785 63.9202 28.1019 63.859 28.0234 63.8002C28.0995 63.8645 28.1737 63.9246 28.2531 63.9837ZM23.2159 58.1703L22.1919 57.3511C22.8756 57.8986 24.4347 59.4337 24.4307 59.2464C23.9437 58.732 23.3099 58.1595 23.0194 57.9541L23.2159 58.1703ZM32.1938 70.2926L31.755 69.9351L32.2458 70.4373C32.116 70.2829 32.4447 70.4704 32.1938 70.2926ZM32.3409 70.5345L32.2458 70.4376C32.2649 70.4608 32.2948 70.4917 32.3409 70.5345ZM26.4489 62.3045C26.1551 62.0035 25.9122 61.7704 25.6215 61.5184C25.7173 61.647 26.4495 62.3969 26.4489 62.3045ZM35.1595 72.9317L34.4802 72.2975L35.2106 73L35.1595 72.9317ZM39 69.9735L38.9031 69.8442L38.3197 69.3381L38.4184 69.4694L39 69.9735ZM35.8885 70.35C35.4489 69.8997 35.0136 69.6379 35.1137 69.7707L35.9893 70.6211C35.8412 70.332 35.7453 70.3862 35.2584 69.8728L35.8885 70.35ZM15.8933 47.6003C16.1373 47.7431 17.0622 48.7053 17.0656 48.7999C16.9171 48.6944 16.3809 48.2067 16.676 48.5541L17.5509 49.1751C18.4793 50.2321 16.6297 48.5829 16.0916 48.1392C17.0984 49.156 17.4805 49.3754 18.5674 50.4413C18.3425 50.2068 18.1333 49.9582 17.9414 49.697C17.9893 49.5776 18.965 50.6073 19.6959 51.3104C19.2717 50.8225 19.5695 51.0534 19.9388 51.3498C20.002 51.4066 20.0469 51.4412 20.0812 51.4634L20.2072 51.5636L20.1202 51.4786C20.1359 51.4752 20.1284 51.4451 20.0815 51.3683C19.4489 50.797 19.0552 50.2719 18.6648 49.8875C18.9134 50.4017 17.3005 48.6132 16.7658 48.1727L16.1842 47.6295L15.9715 47.4214C15.9439 47.3647 16.0233 47.4053 16.3748 47.6961C16.0772 47.4578 15.185 46.5647 15.2238 46.6899L13.1638 44.6752C13.1092 44.6132 13.0582 44.5483 13.0108 44.481C12.9308 44.4194 12.9117 44.4149 12.9141 44.431C10.3927 41.9656 7.87137 39.5005 5.35571 37.0354L5.38535 37C5.36768 37.0114 5.34677 37.0229 5.32318 37.0354C5.32928 37.0691 5.33722 37.1151 5.37439 37.173C5.26044 37.1513 5.27994 37.1783 5.32788 37.2321L5.34494 37.2516C5.35306 37.2606 5.34616 37.255 5.3876 37.297C5.44812 37.3593 5.50479 37.4186 5.54907 37.4686C5.63785 37.5685 5.67828 37.6304 5.60638 37.6025C5.52167 37.5349 5.43045 37.4561 5.33762 37.3712C5.27606 37.3141 5.28235 37.3223 5.26611 37.3076L5.23016 37.2731C5.18405 37.2257 5.1489 37.1761 5.13406 37.1409C5.08633 37.1368 5.06906 37.1606 5.0589 37.1933C5.04794 37.2249 5.04428 37.2659 5 37.2739C5.03815 37.3239 5.08005 37.371 5.12534 37.4149C5.13672 37.4252 5.28989 37.5683 5.38129 37.6467C5.58524 37.8243 5.76746 37.9636 5.94968 38.1014C6.3139 38.3771 6.67792 38.6466 7.21481 39.204C7.11853 39.2125 6.73096 38.9225 7.46164 39.6246L7.26642 39.4554C8.48383 40.5333 8.05054 40.4562 8.92383 41.0301L8.82898 41.0854C9.41177 41.5447 10.4348 42.5463 11.0215 43.1007L10.9725 43.0814C12.6758 44.5805 11.8984 43.9526 13.75 45.696L12.8261 44.9639C13.4159 45.6132 13.6531 45.6573 14.0929 46.1077C14.0462 46.0903 14.0949 46.2468 13.6566 45.8443L15.9941 47.8709C16.5767 48.3305 15.9429 47.7122 15.8933 47.6003ZM18.5673 50.4413C18.6977 50.5782 18.8319 50.7117 18.9699 50.8414L18.5673 50.4413Z" fill="#202020" fill-opacity="1.000000" fill-rule="nonzero"/>
	<path id="Vector" d="M6.06381 36L6 36.0648C6.02661 36.0492 6.04861 36.0268 6.06381 36ZM22.5621 52.7319C22.218 52.3121 22.904 52.9627 23 53L21.6259 51.6367C21.6028 51.6719 21.4341 51.5694 21.4349 51.6235L22.5621 52.7319Z" fill="#202020" fill-opacity="1.000000" fill-rule="nonzero"/>
	<path id="Vector" d="M20.6665 52.2986C20.6016 52.2726 20.4436 52.1461 20.2692 52.0011L20.9975 52.7496C21.0143 52.723 20.9521 52.619 20.6665 52.2986ZM19.295 54L19.0573 53.7604L18.6797 53.4168L19.295 54ZM15.7418 50.0856C15.9796 50.419 16.5452 50.934 16.7343 51.1062C16.1187 50.4753 16.4012 50.7325 15.7418 50.0856ZM16.0402 51.3407L15.424 50.7563L15.4707 50.8219L16.0402 51.3407ZM10 32.3028L10.2845 32C10.1874 32.0988 10.0926 32.1997 10 32.3028Z" fill="#202020" fill-opacity="1.000000" fill-rule="nonzero"/>
	<path id="Vector" d="M5 35.86C5.20578 35.7188 5.21136 35.7481 5.19101 35.7985C5.16748 35.8519 5.10687 35.9379 5.11285 35.9764C5.17007 36.0032 5.21234 36.0071 5.24664 35.9886C5.24042 35.9851 5.23456 35.981 5.2291 35.9764C5.24396 35.9359 5.26196 35.8966 5.28293 35.8588L5.31323 35.8854L5.37845 35.8118L5.79776 35.389C5.55429 35.5323 5.40536 35.6733 5.396 35.5807C6.68063 34.3535 5.85577 35.2478 6.84854 34.3969L8.25262 32.9936L8.15372 33.1216C8.27158 33.0031 8.31781 32.9451 8.35013 32.8962L13.0814 28.1666C13.9071 27.2717 12.5094 28.5479 13.0728 27.8428C12.0685 28.8337 10.5213 30.2517 10.5386 30.4371C10.5581 30.39 10.5962 30.2963 10.3805 30.4854L9.88422 31.1415L10.465 30.6218C9.96518 31.281 8.06 33.123 7.66663 33.4078C8.7106 32.3215 8.07077 32.7523 9.62042 31.3327C9.52731 31.3732 9.20789 31.598 9.52991 31.2519C8.66934 32.1301 7.83511 32.9446 7.00006 33.7741C6.57791 34.1925 6.15912 34.6143 5.74371 35.0392L5.42728 35.366L5.26837 35.5316L5.19162 35.6122L5.16809 35.6407C5.10608 35.7162 5.04865 35.7903 5 35.86ZM21.9813 19.0142L21.9767 19.0369C22.0034 19.001 22.01 18.9872 21.9813 19.0142ZM21.381 19.5813L20.6282 20.5225L21.9508 19.2021L21.9767 19.0371C21.877 19.1708 21.4464 19.6662 21.2378 19.8174L21.381 19.5813ZM19.6981 21.5598C20.3553 20.8524 20.2349 20.8072 19.8221 21.1395C20.4145 20.4792 20.2444 20.8994 20.5912 20.3842C20.517 20.3392 19.7745 21.1409 19.6066 21.3281L19.6981 21.5598ZM14.584 26.5173L14.7429 26.2927L14.2576 26.7531L14.584 26.5173ZM14.7429 26.2927L15.2248 25.8359C15.1666 25.8428 15.1092 25.8501 15.0147 25.9089L14.7429 26.2927ZM16.4887 24.6364C16.726 24.4163 16.9606 24.1935 17.1926 23.9681L16.4887 24.6364ZM15.9271 25.1484L15.954 25.1433L16.4887 24.6364L15.9271 25.1484Z" fill="#202020" fill-opacity="1.000000" fill-rule="nonzero"/>
	<path id="Vector" d="M15.0734 26.7628C15.2046 26.7438 15.3515 26.7145 16 26L15.7822 26.0456L15.0734 26.7628ZM11.3279 46.9328L10.7708 46.4144L10.8174 46.4821L11.3747 47L11.3279 46.9328ZM8.34888 43.693C8.23462 43.59 8.11832 43.4896 8 43.3918C8.14285 43.5291 8.26108 43.6334 8.34888 43.693Z" fill="#202020" fill-opacity="1.000000" fill-rule="nonzero"/>
	<path id="Vector" d="M5.52103 41.2985C4.94736 40.5991 6.46997 42.1039 5.32556 40.8918C5.27661 40.7325 5.89529 41.2174 6.41922 41.8031C6.32425 41.8105 5.84949 41.2921 6.13635 41.6882C6.56134 41.9993 6.66028 42.1811 6.60971 41.974C7.27341 42.5491 7.3967 42.5634 7.86472 42.9359C7.08646 42.2161 5.60269 40.5526 4.55942 39.6954C3.94608 39.2616 4.1358 39.7094 4 39.8427C4.04678 39.954 5.38168 41.3367 5.52103 41.2985ZM6.38214 42.4414C6.668 42.7443 6.76276 42.8297 6.95325 43C6.95047 42.9048 6.62042 42.6788 6.38214 42.4414ZM5.44809 34.3315C5.48495 34.2558 5.99045 33.6956 5.84396 33.7775L5.0657 34.6147C5.25699 34.4271 5.34659 34.3834 5.44809 34.3315ZM4.72394 34.9817L5.06549 34.6147C4.97589 34.7023 4.86963 34.815 4.72394 34.9817ZM5.49783 34.3048L5.44809 34.3315C5.44073 34.347 5.4469 34.349 5.49783 34.3048ZM18.3359 23.3723C18.3613 23.4208 18.6969 23.0364 18.8654 22.8436C18.7165 22.9884 18.4996 23.1837 18.3359 23.3723ZM31.6493 9.58984L31.9943 9.29944C31.8652 9.39502 31.7994 9.44427 31.6493 9.58984ZM35.5149 3.64362C35.517 3.62695 35.5343 3.59741 35.5602 3.55988C35.5333 3.59625 35.5174 3.62457 35.5149 3.64362ZM35.5602 3.55969C35.7456 3.31018 36.4592 2.68311 36.6523 2.39349L36.636 2.43866L36.8454 2.19885L36.9221 2.1109C36.9338 2.09723 36.9481 2.08215 36.9558 2.07153C36.9603 2.06335 36.9649 2.05524 36.9697 2.04718L37 2C36.9778 2.04358 36.8105 2.20868 36.6741 2.34888L36.2261 2.8111C35.929 3.1214 35.659 3.41467 35.5602 3.55969Z" fill="#202020" fill-opacity="1.000000" fill-rule="nonzero"/>
</svg>
