<svg xmlns="http://www.w3.org/2000/svg">

<symbol viewBox="0 0 142 12" id="logo">
    <path d="M13.2301 0.129905V11.8701H11.2304V4.28687C11.2304 3.98376 11.2473 3.65629 11.281 3.30447L7.5938 9.97023C7.41943 10.2896 7.15224 10.4493 6.79224 10.4493H6.47161C6.11161 10.4493 5.84442 10.2896 5.67004 9.97023L1.94064 3.28011C1.95751 3.45873 1.97158 3.63464 1.98283 3.80785C1.99408 3.98106 1.9997 4.14073 1.9997 4.28687V11.8701H0V0.129905H1.71282C1.81408 0.129905 1.90126 0.132611 1.97439 0.138024C2.04751 0.143436 2.1122 0.156968 2.16845 0.178619C2.23033 0.20027 2.28377 0.235453 2.32877 0.284168C2.37939 0.332882 2.4272 0.397834 2.47221 0.479025L6.12567 6.99865C6.22129 7.17185 6.30848 7.35047 6.38723 7.53451C6.47161 7.71854 6.55317 7.90798 6.63192 8.10284C6.71067 7.90257 6.79224 7.71042 6.87661 7.52639C6.96099 7.33694 7.05099 7.15562 7.14661 6.98241L10.7495 0.479025C10.7945 0.397834 10.8423 0.332882 10.8929 0.284168C10.9435 0.235453 10.997 0.20027 11.0532 0.178619C11.1151 0.156968 11.1826 0.143436 11.2557 0.138024C11.3288 0.132611 11.416 0.129905 11.5173 0.129905H13.2301Z" fill="black"/>
    <path d="M30.8361 7.43708L29.3511 3.5318C29.278 3.35859 29.202 3.15291 29.1233 2.91475C29.0445 2.67659 28.9658 2.41949 28.887 2.14344C28.8139 2.41949 28.738 2.6793 28.6592 2.92287C28.5805 3.16103 28.5045 3.36942 28.4314 3.54804L26.9548 7.43708H30.8361ZM34.844 11.8701H33.0889C32.8921 11.8701 32.7318 11.8241 32.608 11.7321C32.4843 11.6346 32.3914 11.5156 32.3296 11.3748L31.4183 8.9797H26.3642L25.453 11.3748C25.408 11.4993 25.3208 11.613 25.1914 11.7158C25.062 11.8187 24.9017 11.8701 24.7105 11.8701H22.9386L27.7395 0.129905H30.0514L34.844 11.8701Z" fill="black"/>
    <path d="M54.8298 0.129905V11.8701H53.6654C53.4854 11.8701 53.3335 11.843 53.2098 11.7889C53.0916 11.7294 52.9763 11.6319 52.8638 11.4966L46.4935 3.66982C46.5272 4.02706 46.5441 4.35724 46.5441 4.66035V11.8701H44.5444V0.129905H45.7341C45.8297 0.129905 45.9113 0.135317 45.9788 0.146143C46.0519 0.151555 46.1138 0.167794 46.1644 0.194857C46.2206 0.216509 46.2741 0.251691 46.3247 0.300405C46.3753 0.343707 46.4316 0.403247 46.4935 0.479025L52.8891 8.33829C52.8723 8.14885 52.8582 7.96211 52.8469 7.77808C52.8357 7.59405 52.8301 7.42354 52.8301 7.26658V0.129905H54.8298Z" fill="black"/>
    <path d="M68.2625 11.8701H65.9844V0.129905H68.2625V11.8701Z" fill="black"/>
    <path d="M81.7099 1.86739V5.34235H86.283V7.08796H81.7099V11.8701H79.4317V0.129905H87.1268V1.86739H81.7099Z" fill="black"/>
    <path d="M99.7056 1.86739V5.12314H103.975V6.80379H99.7056V10.1245H105.123V11.8701H97.4275V0.129905H105.123V1.86739H99.7056Z" fill="black"/>
    <path d="M122.068 2.26522C122.001 2.37889 121.928 2.46279 121.849 2.51691C121.776 2.56563 121.683 2.58999 121.571 2.58999C121.452 2.58999 121.323 2.54939 121.182 2.4682C121.047 2.3816 120.884 2.28687 120.693 2.18403C120.502 2.08119 120.277 1.98917 120.018 1.90798C119.765 1.82138 119.464 1.77808 119.115 1.77808C118.8 1.77808 118.525 1.81597 118.288 1.89174C118.052 1.96211 117.852 2.06225 117.689 2.19215C117.532 2.32206 117.414 2.47903 117.335 2.66306C117.256 2.84168 117.217 3.03924 117.217 3.25575C117.217 3.5318 117.296 3.76184 117.453 3.94587C117.616 4.1299 117.83 4.28687 118.094 4.41678C118.359 4.54668 118.66 4.66306 118.997 4.7659C119.335 4.86874 119.681 4.9797 120.035 5.09878C120.389 5.21245 120.735 5.34777 121.073 5.50474C121.41 5.65629 121.711 5.85115 121.976 6.08931C122.24 6.32206 122.451 6.60893 122.608 6.94993C122.772 7.29093 122.853 7.70501 122.853 8.19215C122.853 8.7226 122.757 9.22057 122.566 9.68606C122.381 10.1461 122.105 10.5494 121.739 10.8958C121.379 11.2368 120.938 11.5074 120.415 11.7077C119.892 11.9026 119.292 12 118.617 12C118.229 12 117.847 11.9621 117.47 11.8863C117.093 11.816 116.73 11.7131 116.382 11.5778C116.038 11.4425 115.715 11.2801 115.411 11.0907C115.107 10.9012 114.837 10.6901 114.601 10.4574L115.268 9.41001C115.324 9.33424 115.397 9.27199 115.487 9.22328C115.577 9.16915 115.673 9.14208 115.774 9.14208C115.915 9.14208 116.067 9.19892 116.23 9.31258C116.393 9.42084 116.587 9.54263 116.812 9.67794C117.037 9.81326 117.298 9.93775 117.597 10.0514C117.9 10.1597 118.263 10.2138 118.685 10.2138C119.332 10.2138 119.832 10.0677 120.187 9.77537C120.541 9.47767 120.718 9.05277 120.718 8.50068C120.718 8.19215 120.637 7.94046 120.474 7.7456C120.316 7.55074 120.105 7.38836 119.841 7.25846C119.577 7.12314 119.276 7.00947 118.938 6.91746C118.601 6.82544 118.257 6.7253 117.909 6.61705C117.56 6.5088 117.217 6.37889 116.879 6.22733C116.542 6.07578 116.241 5.87821 115.977 5.63464C115.712 5.39107 115.498 5.08796 115.335 4.7253C115.178 4.35724 115.099 3.90528 115.099 3.36942C115.099 2.94181 115.186 2.52503 115.361 2.11908C115.541 1.71313 115.799 1.35318 116.137 1.03924C116.474 0.725304 116.891 0.473613 117.386 0.284168C117.881 0.0947225 118.449 0 119.09 0C119.81 0 120.474 0.108254 121.081 0.324763C121.689 0.541271 122.206 0.844384 122.634 1.2341L122.068 2.26522Z" fill="black"/>
    <path d="M141.793 1.92422H138.114V11.8701H135.844V1.92422H132.165V0.129905H141.793V1.92422Z" fill="black"/>
</symbol>

<symbol viewBox="0 0 18 16" id="search">
    <path id="search" fill-rule="evenodd" clip-rule="evenodd" d="M13.8942 11.0715L17.6712 14.6313C17.8399 14.8079 17.8316 15.0783 17.6524 15.2454L16.9914 15.8684C16.9027 15.9526 16.7821 16 16.6562 16C16.5303 16 16.4096 15.9526 16.3209 15.8684L12.5439 12.3085C12.4394 12.21 12.3446 12.1028 12.2606 11.9881L11.5524 11.0982C10.3806 11.9801 8.92549 12.4602 7.42595 12.4598C4.33594 12.4699 1.65084 10.461 0.960303 7.62231C0.269767 4.78365 1.75809 1.87288 4.54414 0.613257C7.3302 -0.646363 10.6704 0.0813446 12.5873 2.36555C14.5042 4.64977 14.4862 7.88086 12.5439 10.1459L13.4881 10.76C13.6356 10.849 13.7718 10.9535 13.8942 11.0715ZM2.70508 6.23017C2.70508 8.68773 4.81889 10.68 7.42641 10.68C8.67859 10.68 9.87948 10.2112 10.7649 9.37666C11.6503 8.54216 12.1477 7.41034 12.1477 6.23017C12.1477 3.77262 10.0339 1.78037 7.42641 1.78037C4.81889 1.78037 2.70508 3.77262 2.70508 6.23017Z" fill="#565656"/>
</symbol>

<symbol viewBox="0 0 24 24" id="instagram-white">
    <path d="M12.0029 5.8467C8.59691 5.8467 5.84962 8.594 5.84962 12C5.84962 15.406 8.59691 18.1533 12.0029 18.1533C15.4089 18.1533 18.1562 15.406 18.1562 12C18.1562 8.594 15.4089 5.8467 12.0029 5.8467ZM12.0029 16.0004C9.80187 16.0004 8.00247 14.2064 8.00247 12C8.00247 9.7936 9.79651 7.99955 12.0029 7.99955C14.2093 7.99955 16.0034 9.7936 16.0034 12C16.0034 14.2064 14.204 16.0004 12.0029 16.0004ZM19.8431 5.595C19.8431 6.39295 19.2005 7.03024 18.4079 7.03024C17.61 7.03024 16.9727 6.38759 16.9727 5.595C16.9727 4.80241 17.6153 4.15977 18.4079 4.15977C19.2005 4.15977 19.8431 4.80241 19.8431 5.595ZM23.9186 7.05166C23.8275 5.12909 23.3884 3.42608 21.9799 2.02298C20.5768 0.619882 18.8738 0.180743 16.9513 0.0843468C14.9698 -0.0281156 9.03069 -0.0281156 7.04922 0.0843468C5.132 0.175388 3.429 0.614526 2.02054 2.01763C0.612085 3.42073 0.178302 5.12373 0.0819054 7.0463C-0.030557 9.02778 -0.030557 14.9669 0.0819054 16.9483C0.172946 18.8709 0.612085 20.5739 2.02054 21.977C3.429 23.3801 5.12665 23.8193 7.04922 23.9157C9.03069 24.0281 14.9698 24.0281 16.9513 23.9157C18.8738 23.8246 20.5768 23.3855 21.9799 21.977C23.383 20.5739 23.8222 18.8709 23.9186 16.9483C24.031 14.9669 24.031 9.03314 23.9186 7.05166ZM21.3587 19.0744C20.941 20.1241 20.1323 20.9327 19.0773 21.3558C17.4975 21.9824 13.7488 21.8378 12.0029 21.8378C10.2571 21.8378 6.50297 21.977 4.9285 21.3558C3.87885 20.9381 3.07019 20.1294 2.64712 19.0744C2.02054 17.4946 2.16514 13.7458 2.16514 12C2.16514 10.2542 2.0259 6.50006 2.64712 4.92558C3.06484 3.87593 3.87349 3.06728 4.9285 2.6442C6.50833 2.01763 10.2571 2.16222 12.0029 2.16222C13.7488 2.16222 17.5029 2.02298 19.0773 2.6442C20.127 3.06192 20.9356 3.87058 21.3587 4.92558C21.9853 6.50541 21.8407 10.2542 21.8407 12C21.8407 13.7458 21.9853 17.4999 21.3587 19.0744Z" fill="white"/>
</symbol>

<symbol viewBox="0 0 24 24" id="instagram-black">
<path d="M21.6264 2.37654L21.6271 2.37721C22.9117 3.65699 23.3311 5.2163 23.4191 7.07531L23.9186 7.05166L23.4194 7.07999C23.5308 9.0426 23.5308 14.9574 23.4194 16.92L23.4192 16.9233C23.3259 18.7835 22.9064 20.3435 21.6264 21.6235L21.6257 21.6241C20.3459 22.9088 18.7866 23.3282 16.9276 23.4162L16.9276 23.4162L16.9229 23.4165C14.9603 23.5278 9.04015 23.5278 7.07755 23.4164L7.07425 23.4163C5.21478 23.323 3.65928 22.9038 2.37342 21.6228C1.08876 20.343 0.669377 18.7837 0.581346 16.9247L0.581368 16.9247L0.581102 16.92C0.469711 14.9574 0.469711 9.03724 0.581102 7.07463L0.581113 7.07464L0.581278 7.07134C0.674601 5.21006 1.08922 3.65117 2.37342 2.37185C3.65907 1.09109 5.21958 0.671792 7.07293 0.583784L7.07293 0.583805L7.07755 0.583543C9.04015 0.472152 14.9603 0.472152 16.9229 0.583554L16.9262 0.583719C18.7864 0.676988 20.3464 1.09654 21.6264 2.37654ZM21.9799 21.977C23.383 20.5739 23.8222 18.8709 23.9186 16.9483L16.9513 23.9157C18.8738 23.8246 20.5768 23.3855 21.9799 21.977ZM19.2617 21.8206L19.2634 21.8199C20.4447 21.3462 21.3546 20.4371 21.8233 19.2593C22.1737 18.3788 22.2926 16.9608 22.3344 15.617C22.3649 14.6376 22.3548 13.639 22.3467 12.8378C22.3436 12.5239 22.3407 12.2403 22.3407 12C22.3407 11.7597 22.3436 11.4761 22.3467 11.1623C22.3548 10.3615 22.3649 9.36385 22.3344 8.38496C22.2925 7.04154 22.1736 5.62405 21.8235 4.74125L21.8228 4.73948C21.3491 3.55822 20.44 2.64836 19.2622 2.17964L19.2608 2.1791C18.3812 1.83202 16.9641 1.71304 15.6202 1.67051C14.6334 1.63927 13.6278 1.64891 12.8236 1.65662C12.5166 1.65956 12.239 1.66222 12.0029 1.66222C11.7626 1.66222 11.479 1.65935 11.1652 1.65618C10.3644 1.64807 9.36676 1.63798 8.38787 1.66849C7.04446 1.71037 5.62697 1.82929 4.74416 2.17942L4.74416 2.17942L4.7424 2.18013C3.56113 2.65383 2.65128 3.56289 2.18255 4.7407L2.18201 4.74207C1.83494 5.62173 1.71596 7.03879 1.67342 8.38271C1.64218 9.36954 1.65182 10.3751 1.65953 11.1793C1.66248 11.4863 1.66514 11.7639 1.66514 12C1.66514 12.2403 1.66227 12.5239 1.65909 12.8377C1.65099 13.6385 1.64089 14.6361 1.6714 15.615C1.71328 16.9585 1.83221 18.3759 2.18234 19.2588L2.18304 19.2605C2.65675 20.4418 3.5658 21.3516 4.74362 21.8204L4.74499 21.8209C5.62465 22.168 7.04171 22.287 8.38562 22.3295C9.37245 22.3607 10.378 22.3511 11.1822 22.3434C11.4892 22.3404 11.7668 22.3378 12.0029 22.3378C12.2433 22.3378 12.5268 22.3406 12.8406 22.3438C13.6414 22.3519 14.6391 22.362 15.618 22.3315C16.9614 22.2896 18.3789 22.1707 19.2617 21.8206ZM6.34962 12C6.34962 8.87014 8.87305 6.3467 12.0029 6.3467C15.1328 6.3467 17.6562 8.87014 17.6562 12C17.6562 15.1299 15.1328 17.6533 12.0029 17.6533C8.87305 17.6533 6.34962 15.1299 6.34962 12ZM7.50247 12C7.50247 14.483 9.52616 16.5004 12.0029 16.5004C14.4797 16.5004 16.5034 14.483 16.5034 12C16.5034 9.51745 14.4855 7.49955 12.0029 7.49955C9.52037 7.49955 7.50247 9.51745 7.50247 12ZM19.3431 5.595C19.3431 6.11559 18.9256 6.53024 18.4079 6.53024C17.8873 6.53024 17.4727 6.11267 17.4727 5.595C17.4727 5.07855 17.8915 4.65977 18.4079 4.65977C18.9244 4.65977 19.3431 5.07855 19.3431 5.595Z" fill="#565656" stroke="black"/>
</symbol>

<symbol viewBox="0 0 14 24" id="facebook-black">
    <path d="M12.5845 13.5L13.251 9.15656H9.08338V6.33797C9.08338 5.14969 9.66557 3.99141 11.5321 3.99141H13.4268V0.293438C13.4268 0.293438 11.7074 0 10.0635 0C6.63135 0 4.38791 2.08031 4.38791 5.84625V9.15656H0.572754V13.5H4.38791V24H9.08338V13.5H12.5845Z" fill="#565656"/>
</symbol>

<symbol viewBox="0 0 14 24" id="facebook-white">
    <path d="M12.5845 13.5L13.251 9.15656H9.08338V6.33797C9.08338 5.14969 9.66557 3.99141 11.5321 3.99141H13.4268V0.293438C13.4268 0.293438 11.7074 0 10.0635 0C6.63135 0 4.38791 2.08031 4.38791 5.84625V9.15656H0.572754V13.5H4.38791V24H9.08338V13.5H12.5845Z" fill="white"/>
</symbol>


<symbol viewBox="0 0 30 24" id="twitter-black">
    <path d="M26.7376 5.98123C26.7564 6.24372 26.7564 6.50626 26.7564 6.76875C26.7564 14.775 20.6626 24 9.52511 24C6.09384 24 2.90636 23.0062 0.225098 21.2813C0.712616 21.3375 1.18132 21.3563 1.68759 21.3563C4.5188 21.3563 7.12509 20.4 9.20635 18.7688C6.54384 18.7125 4.31258 16.9688 3.54382 14.5687C3.91885 14.625 4.29383 14.6625 4.68762 14.6625C5.23135 14.6625 5.77514 14.5874 6.28135 14.4563C3.50636 13.8937 1.42505 11.4562 1.42505 8.51249V8.43752C2.23127 8.88752 3.16885 9.16877 4.16252 9.20622C2.53127 8.1187 1.46256 6.26247 1.46256 4.16246C1.46256 3.03748 1.76251 2.00623 2.28754 1.10622C5.2688 4.78122 9.75008 7.18118 14.775 7.44372C14.6813 6.99372 14.625 6.52502 14.625 6.05626C14.625 2.71872 17.325 0 20.6813 0C22.425 0 24 0.731248 25.1063 1.9125C26.475 1.65001 27.7875 1.14374 28.95 0.450003C28.5 1.85628 27.5438 3.03754 26.2875 3.78748C27.5063 3.6563 28.6876 3.31872 29.775 2.85002C28.9502 4.04997 27.9189 5.11868 26.7376 5.98123Z" fill="#565656"/>
</symbol>

<symbol viewBox="0 0 30 24" id="twitter-white">
    <path d="M27.2371 5.98123C27.2559 6.24372 27.2559 6.50626 27.2559 6.76875C27.2559 14.775 21.1622 24 10.0246 24C6.59335 24 3.40587 23.0062 0.724609 21.2813C1.21213 21.3375 1.68083 21.3563 2.18711 21.3563C5.01831 21.3563 7.6246 20.4 9.70586 18.7688C7.04335 18.7125 4.8121 16.9688 4.04333 14.5687C4.41836 14.625 4.79334 14.6625 5.18713 14.6625C5.73086 14.6625 6.27465 14.5874 6.78087 14.4563C4.00588 13.8937 1.92456 11.4562 1.92456 8.51249V8.43752C2.73078 8.88752 3.66836 9.16877 4.66204 9.20622C3.03078 8.1187 1.96207 6.26247 1.96207 4.16246C1.96207 3.03748 2.26202 2.00623 2.78705 1.10622C5.76832 4.78122 10.2496 7.18118 15.2745 7.44372C15.1808 6.99372 15.1245 6.52502 15.1245 6.05626C15.1245 2.71872 17.8246 0 21.1808 0C22.9245 0 24.4995 0.731248 25.6058 1.9125C26.9745 1.65001 28.287 1.14374 29.4496 0.450003C28.9995 1.85628 28.0433 3.03754 26.7871 3.78748C28.0058 3.6563 29.1871 3.31872 30.2745 2.85002C29.4497 4.04997 28.4184 5.11868 27.2371 5.98123Z" fill="white"/>
</symbol>


<symbol viewBox="0 0 24 24" id="linkedin-white">
    <path d="M5.37226 24H0.396437V7.97643H5.37226V24ZM2.88167 5.79066C1.29056 5.79066 0 4.47278 0 2.88167C1.13885e-08 2.1174 0.303604 1.38444 0.844022 0.844022C1.38444 0.303604 2.1174 0 2.88167 0C3.64594 0 4.3789 0.303604 4.91932 0.844022C5.45974 1.38444 5.76334 2.1174 5.76334 2.88167C5.76334 4.47278 4.47224 5.79066 2.88167 5.79066ZM23.9952 24H19.0301V16.1998C19.0301 14.3409 18.9926 11.9569 16.443 11.9569C13.856 11.9569 13.4596 13.9766 13.4596 16.0659V24H8.48912V7.97643H13.2614V10.1622H13.331C13.9953 8.90323 15.618 7.57463 18.039 7.57463C23.0748 7.57463 24.0005 10.8908 24.0005 15.198V24H23.9952Z" fill="white"/>
</symbol>

<symbol viewBox="0 0 24 24" id="linkedin-black">
    <path d="M5.87177 24H0.895949V7.97643H5.87177V24ZM3.38118 5.79066C1.79008 5.79066 0.499512 4.47278 0.499512 2.88167C0.499512 2.1174 0.803116 1.38444 1.34353 0.844022C1.88395 0.303604 2.61692 0 3.38118 0C4.14545 0 4.87841 0.303604 5.41883 0.844022C5.95925 1.38444 6.26285 2.1174 6.26285 2.88167C6.26285 4.47278 4.97175 5.79066 3.38118 5.79066ZM24.4947 24H19.5296V16.1998C19.5296 14.3409 19.4921 11.9569 16.9426 11.9569C14.3555 11.9569 13.9591 13.9766 13.9591 16.0659V24H8.98863V7.97643H13.7609V10.1622H13.8305C14.4948 8.90323 16.1175 7.57463 18.5385 7.57463C23.5743 7.57463 24.5 10.8908 24.5 15.198V24H24.4947Z" fill="#565656"/>
</svg>

